<?xml version="1.0" encoding="utf-8"?>
<!-- Generator: Adobe Illustrator 21.0.2, SVG Export Plug-In . SVG Version: 6.00 Build 0)  -->
<svg version="1.1" id="Layer_1" xmlns="http://www.w3.org/2000/svg" xmlns:xlink="http://www.w3.org/1999/xlink" x="0px" y="0px"
	 viewBox="0 0 116 100" style="enable-background:new 0 0 116 100;" xml:space="preserve">
<style type="text/css">
	.st0{fill:#084CA1;}
	.st1{fill:#FFFFFF;}
</style>
<polygon id="hexagon_x5F_lgzpp" class="st0" points="86.9,0 29.1,0 0.3,50 29.1,100 86.9,100 115.7,50 "/>
<g id="lgzpp_x5F_logo">
	<g>
		<path class="st1" d="M72.2,55.3c0.2,0.4,0.6,0.4,0.8,0.6c0.2,0,0.4,0,0.6,0.2c0.2,0.2,0.6,0.2,0.8,0.4c0.4,0,0.6,0.2,0.8,0.6
			l0.2,0.2c0.4,0.2,0.6,0.4,0.8,0.6c0,0.2,0.2,0.2,0.4,0.2c0.4,0.2,0.6,0.4,1.1,0.4c0.4,0.2,0.6,0.2,1.1,0.4
			c0.4,0.2,0.8,0.6,1.1,0.8c0.6,0.4,1.1,1.1,1.5,1.7c0.2,0.2,0.2,0.4,0.4,0.6c0.2,0.4,0.4,0.8,0.6,1.5c0,0.2,0.2,0.4,0.2,0.8
			s0,0.8,0,1.5c0,0.6,0,1.3,0,1.9c-0.4,1.5-1.1,2.8-2.1,3.8c-0.4,0.4-0.8,0.8-1.5,1.1c-0.6,0.2-1.3,0.6-1.9,0.6c-1.3,0-2.5,0-3.8,0
			l0,0c-0.6-0.2-1.3-0.2-1.9-0.6c-0.2-0.2-0.6-0.2-1.1-0.4c-1.5-0.8-2.8-1.7-3.6-3.2c-0.6-0.8-1.1-1.7-1.3-2.8
			c-0.2-0.6-0.6-1.1-0.4-1.7c0-0.2,0-0.2-0.2-0.4c-0.2-0.2-0.2-0.6-0.2-0.8c0-0.2,0-0.2-0.2-0.2c-0.4,0.2-0.6,0.2-1.1,0.2
			s-1.1,0-1.5,0c0.6,0,1.1,0,1.7,0H64v0.2c-0.4,0.6-0.8,1.1-1.5,1.7c-0.2,0-0.2,0.2-0.4,0c-0.2-0.2-0.4-0.2-0.6-0.4
			c-0.2-0.2-0.2-0.2-0.2,0c0,0.2-0.2,0.2-0.4,0.2s-0.4,0-0.6,0.2c-0.6,0.2-1.1,0.4-1.7,0.6c-0.2,0-0.2,0-0.4,0.2
			c-0.4,0.2-0.8,0.2-1.3,0.2c-0.2,0-0.4,0-0.6-0.2s-0.2-0.2-0.4-0.2c-0.8,0-1.7-0.2-2.5-0.2c-0.8,0-1.5-0.6-1.9-1.1
			c-0.4-0.4-0.6-0.6-1.3-0.6c-0.4,0-0.6,0-1.1,0.2c-0.4,0-1.1,0-1.5,0.2c-0.2,0-0.4,0.2-0.4,0.2c0,0.6-0.2,1.1-0.2,1.7
			s0.2,1.3,0.2,2.1c0,0.2,0.2,0.6,0.6,0.6c0.4,0,0.6,0.2,1.1,0.4c0,0,0,0,0.2,0c0.6,0.2,1.1,0.2,1.5,0.6c0.2,0.2,0.4,0,0.6,0
			c0.4-0.2,0.6-0.2,1.1,0s0.8,0.2,1.1,0c0.2,0,0.2-0.2,0.4-0.2c0.4,0,0.6-0.2,1.1-0.4c0.6,0,1.1,0,1.5,0.2c0.2,0.2,0.6,0.2,1.1,0
			c0.2-0.2,0.4-0.2,0.6,0c0.4,0.2,0.8,0.2,1.3,0c0.4-0.2,0.8-0.2,1.3-0.2c0.2,0,0.4,0,0.6-0.2c0.2-0.2,0.2,0,0.4,0
			c0.2,0.2,0.6,0.2,0.8,0c0.4-0.2,0.8-0.4,1.1-0.8c0.2-0.2,0.6-0.2,0.8-0.2c0,0,0,0,0,0.2c-0.2,0.4-0.4,0.8-0.6,1.3
			c-0.2,0.2-0.2,0.4-0.6,0.6c-0.2,0-0.4,0.2-0.4,0.2c-0.4,0.6-1.1,0.8-1.7,1.1c-0.2,0-0.2,0-0.2,0.2c-0.6,0.8-1.3,1.1-2.3,1.3
			c-0.4,0-0.8,0.2-1.3,0.4C56.6,74,56.2,74,55.7,74c-0.2,0-0.2,0-0.4,0.2c-0.4,0.2-0.6,0.2-1.1,0.2c-0.2,0-0.6,0-0.8,0.2
			c-0.2,0.2-0.2,0.2-0.4,0h-0.2c-0.2,0-0.4,0-0.4,0.2s0,0.6,0.2,0.6c0.4,0.2,0.8,0.4,1.3,0.4c1.1,0.4,1.9,0.4,3,0.6
			c0.6,0.2,1.5,0.2,2.1-0.2c0.2,0,0.2-0.2,0.4,0c0.6,0,1.3-0.2,1.9-0.4c0.2,0,0.2-0.2,0.4-0.2c0,0,0.2-0.2,0.2,0v0.2
			c-0.4,0.2-1.1,0.6-1.5,0.8c-0.4,0.2-0.8,0.2-1.3,0.6l0,0c-0.6,0-1.3,0.6-2.1,0.4c-0.4,0-0.8,0-1.3,0.2c-0.8,0.4-1.9,0.2-2.8,0
			c-0.4-0.2-0.6-0.4-1.1-0.6c-0.4-0.2-0.8-0.4-1.3-0.6c-1.3-0.6-2.3-1.5-3.2-2.5c-0.6-0.8-1.3-1.5-1.5-2.5c-0.2-0.6-0.6-1.5-0.6-2.3
			c0,0,0,0,0-0.2c-0.4-1.1-0.2-2.3-0.2-3.4v-0.2c0.2-0.4,0.2-1.1,0.4-1.5c0-0.4,0.2-0.8,0.4-1.3c0.4-0.8,0.8-1.9,1.3-2.5
			c0.4-0.6,1.1-1.3,1.7-1.7c0.6-0.6,1.3-1.1,1.9-1.5c0.8-0.6,1.7-1.1,2.5-1.5c0.6-0.4,1.5-0.6,2.1-0.8c0.6-0.2,1.1-0.2,1.7-0.6l0,0
			c0.6,0,1.1-0.4,1.5-0.4c0.4-0.2,0.8-0.4,1.3-0.6c0.6-0.4,1.3-0.6,1.9-1.1c0.8-0.6,1.7-1.1,2.3-1.9c0.4-0.4,0.6-0.8,0.8-1.5
			c0.4-0.4,0.4-1.1,0.6-1.7c0-0.2,0-0.2,0-0.4c0-0.2,0-0.4,0-0.6c0.4-1.1,0.4-1.9,0-3v-0.2c-0.2-1.3-0.6-2.3-1.5-3.6
			c-0.6-0.8-1.3-1.7-2.1-2.1c-0.4-0.2-0.8-0.4-1.3-0.6c-1.1-0.4-2.1-0.4-3.2-0.6c-0.2,0-0.2,0-0.4,0c-0.6,0.2-1.1,0.2-1.7,0.4
			c-0.6,0.2-1.3,0.4-1.9,0.8c-0.6,0.4-1.1,0.6-1.5,1.3c-0.4,0.4-1.1,1.1-1.3,1.7c-0.2,0.4-0.4,0.8-0.6,1.1c0,0,0,0.2-0.2,0.2
			c0,0.2-0.2,0.6-0.2,0.8c0,0.2-0.2,0.4-0.2,0.6c0,0.8,0,1.9,0,2.8v0.2c0.4,1.1,0.6,2.1,1.3,3c0,0,0.2,0.2,0,0.2c-0.2,0-0.2,0-0.2,0
			c-0.6-0.6-1.1-1.3-1.5-2.1c-0.2-0.6-0.6-1.1-0.6-1.9c0-0.2,0-0.4-0.2-0.6c-0.2-0.8-0.2-1.5,0-2.3c0.2-0.4,0.2-0.6,0.2-1.1
			c0-0.2,0-0.2,0-0.4c0.4-1.5,1.3-2.8,2.5-3.8c-0.2-0.4,0-1.1-0.2-1.5c-0.6-1.1-1.3-2.3-2.1-3.2c-0.8-0.8-1.9-1.7-3-2.3
			c-0.4-0.2-0.8-0.2-1.3-0.4c0,0-0.2,0-0.4,0c-0.4,0-0.6,0-1.1-0.2c0-0.2-0.2-0.2-0.4-0.2c-0.8,0-1.7-0.2-2.5,0.2
			c-0.2,0-0.6,0.2-0.8,0.2s-0.4,0.2-0.4,0.2c0,0.2-0.2,0.4-0.4,0.8c-0.2,0.2-1.1,0.4-1.5,0.2c-0.2,0-0.2-0.2-0.2-0.4
			c0-0.2-0.4-0.2-0.4-0.4s0.2-0.2,0.4-0.4c0.2-0.4,0.6-0.6,1.1-0.6c0.6-0.2,1.3-0.2,1.9-0.6h0.2c1.1,0,2.3,0,3.4,0
			c0.4,0,0.6,0.2,1.1,0.4c0.8,0,1.5,0.6,2.1,0.8c1.1,0.4,1.9,0.8,2.5,1.7c0.6,0.6,1.1,1.5,1.7,2.1c0.4,0.4,0.6,1.1,0.8,1.5l0.2,0.2
			c0.2,0.4,0.4,0.6,0.8,0.4c0.4-0.2,1.1-0.6,1.7-0.6c0.4,0,0.6-0.2,1.1-0.4c1.1,0,2.3,0,3.4,0c0.2,0,0.2,0,0.4,0.2
			c0.4,0.2,0.8,0.2,1.5,0.2c0.2,0,0.2-0.2,0.4-0.2c0.2-0.6,0.4-1.3,0.6-1.9c0,0,0-0.2,0-0.4c0.4-1.7,0.4-3.6,0.4-5.3
			c0-0.2,0-0.2-0.2-0.4c0-0.2-0.2-0.4-0.2-0.4c0-0.6-0.2-1.3-0.4-1.9c-0.2-0.6-0.4-1.3-0.8-1.9c-0.2-0.4-0.6-0.8-0.8-1.5
			c-0.4-0.2-0.4-0.4-0.8-0.2c-0.4,0-0.6,0-0.8-0.2l-0.2-0.2c0-0.2-0.2-0.4-0.2-0.4c0-0.6,0.4-1.1,1.1-1.3h0.2
			c0.6,0.6,1.3,1.5,1.9,2.1c0.4,0.6,0.8,1.5,1.3,2.3c0.2,0.6,0.6,1.3,0.6,1.9c0,0.6,0.4,1.1,0.4,1.7c0,1.1,0.2,2.1,0,3.4
			c0,0.4,0,1.1,0,1.5c-0.2,0.6-0.4,1.5-0.6,2.1c-0.2,0.4-0.4,1.1-0.4,1.5s0,0.6,0.4,0.8c0.2,0.2,0.4,0.2,0.6,0.4
			c0.8,0.6,1.5,1.3,2.1,2.3c0.4,0.6,0.8,1.5,1.1,2.3c0,0.2,0,0.2,0.2,0.4c0,0.2,0.2,0.4,0.2,0.6c0,0.8,0,1.7,0.2,2.5
			c0,0.2,0,0.4,0,0.6c-0.2,1.1-0.2,2.1-0.2,3.2c0,0.2,0.2,0.4,0.4,0.2c0,0,0.2,0,0.2-0.2c0.6-0.6,1.3-1.1,1.9-1.5
			c0.6-0.6,1.5-0.8,2.3-1.3c0.6-0.2,1.1-0.2,1.7-0.6c0.2-0.2,0.4,0,0.8,0c0.8,0,1.9-0.2,2.8,0c0.6,0.2,1.3,0.4,1.9,0.8
			c0.6,0.4,1.3,0.8,1.7,1.3c0.2,0.2,0.4,0.6,0.6,0.8c0.4,0.6,0.4,1.3,0.4,1.9c0.2,0.8-0.2,1.7,0,2.5c0,0.2,0,0.2,0,0.4
			c-0.2,0.4-0.4,0.8-0.4,1.5c-0.2,0.4-0.2,0.8-0.6,1.1c-0.8,0.6-1.7,1.3-2.5,1.9c-0.4,0.2-0.8,0.2-1.3,0c-0.2,0-0.4-0.2-0.6-0.2
			c-0.2-0.2-0.4-0.2-0.8-0.2c-0.2,0-0.2,0-0.2,0c-0.6-0.4-1.3-0.4-1.7-0.6C72.4,55.3,72.2,55.3,72.2,55.3z M64.2,58.3
			c0-0.2,0-0.4,0-0.6c0-0.4,0-0.4-0.6-0.4h-0.2c-0.6,0.4-1.3,0.4-2.1,0.4c-0.6,0-1.5,0-2.1,0.4c-0.2,0.2-0.4,0-0.6-0.2
			c0-0.2-0.2-0.2-0.4-0.2c-0.8,0.2-1.7,0.2-2.8,0.2c-0.2,0-0.4,0-0.4-0.4c0-0.2-0.2-0.4-0.4-0.4s-0.4-0.2-0.6-0.2
			c-0.4-0.2-1.1-0.2-1.5,0c-0.4,0.2-1.1,0.6-1.5,1.1s-1.1,0.6-1.5,1.1c-0.4,0.4-0.2,1.3,0.2,1.3c0.4,0,0.6,0.2,1.1,0.2
			s0.8,0.4,0.8,0.8s0.2,0.4,0.4,0.4c0.2,0,0.4,0,0.6,0c0.4,0,0.8,0.2,1.1,0.2c0.4,0,1.1,0,1.5-0.2c0,0,0.2,0,0.4,0
			c0.4,0,0.8,0,1.3,0c0.2,0,0.2,0,0.4,0c0.4,0.2,1.1,0.2,1.5,0.2h0.2c0.2,0.2,0.4,0.2,0.6,0.2c0.2,0,0.4,0,0.6,0.2
			c0.4,0.4,0.8,0.2,1.3,0.2c0.2,0,0.2,0,0.4,0c0.6,0.2,1.3,0.2,1.7-0.2c0.2-0.2,0.4-0.4,0.4-0.8C64.2,60.2,64.2,59.4,64.2,58.3z
			 M62.9,56.6c0.2,0,0.4,0,0.4,0c0.4,0,0.6-0.2,0.6-0.6c0-0.2,0-0.4,0-0.6c0-0.8,0-1.7,0-2.3c0.2-0.8,0.2-1.7,0.2-2.5
			c0-0.2,0-0.4-0.2-0.4s-0.4,0-0.4,0.2c-0.2,0.2-0.2,0.4-0.4,0.4c-0.6,0.6-1.3,1.1-1.9,1.5c-0.4,0.2-0.6,0.6-1.1,0.8
			c-1.1,0.4-1.9,1.3-3,1.7c-0.2,0-0.2,0.4-0.2,0.6c0,0.2,0.2,0.2,0.2,0.2c0.4,0.2,1.1,0.2,1.5,0.4c0,0,0,0,0.2,0
			c0.4,0,0.8,0,1.3,0.2c0.2,0.2,0.6,0.2,1.1,0.2c0.2,0,0.2,0,0.4,0C62.1,56.6,62.5,56.6,62.9,56.6z M71.6,55.1
			c0-0.2-0.2-0.2-0.2-0.2c-0.4-0.2-0.6-0.2-0.8-0.6c-0.4-0.4-0.8-0.6-1.5-0.6c-0.6,0-1.3-0.2-1.9-0.2c-0.2,0-0.4,0-0.4,0.2l0.2,0.2
			c0.2,0,0.6,0.2,0.8,0.2s0.4,0,0.6,0.2c0,0,0,0,0.2,0c0.4,0,0.8,0.2,1.1,0c0.2,0,0.2,0,0.4,0.2C70.5,54.7,71,55.1,71.6,55.1z"/>
		<path class="st1" d="M83.5,29.3c0-0.2,0-0.2,0-0.4c-0.4-0.6-0.8-1.3-1.1-1.9c0-0.2-0.2-0.2-0.4-0.2c-0.8,0-1.5,0-2.3,0
			c-0.2,0-0.2,0-0.4,0.2c-0.4,0.6-0.8,1.3-1.3,2.1c0,0.2,0,0.2,0,0.4c0.4,0.6,0.8,1.5,1.3,2.1c0,0.2,0.2,0.2,0.2,0.2
			c0.8,0,1.7,0,2.3,0c0.2,0,0.2-0.2,0.4-0.4c0,0.4,0,0.6,0,0.8c-0.2-0.2-0.2-0.2-0.4-0.2c-0.6,0-1.5,0-2.1,0c-0.2,0-0.2,0-0.4,0.2
			c-0.4,0.6-0.8,1.3-1.1,1.9c0,0.2,0,0.2,0,0.4c0.2,0.2,0.2,0.4,0.2,0.6c0.2,0.2,0.2,0.4,0,0.8c-0.2-0.4-0.4-0.6-0.6-1.1
			c0-0.2-0.2-0.2-0.4-0.2c-0.8,0-1.5,0-2.3,0c-0.2,0-0.2,0-0.4,0.2c-0.4,0.6-0.8,1.3-1.3,2.1c0,0.2,0,0.2,0,0.4
			c0.4,0.6,0.8,1.5,1.3,2.1c0,0.2,0.2,0.2,0.4,0.2c0.8,0,1.5,0,2.3,0c0.2,0,0.2,0,0.4-0.2c0.2-0.4,0.4-0.6,0.6-1.1
			c0.2,0.2,0.2,0.4,0,0.6l0,0c-0.4,0.4-0.4,0.8,0,1.5c0.4,0.4,0.6,1.1,0.8,1.5c0,0.2,0.2,0.2,0.4,0.2c0.8,0,1.5,0,2.3,0
			c0.2,0,0.2,0,0.4-0.2c0.2-0.4,0.4-0.6,0.6-1.1c0.2-0.2,0.2-0.2,0.6-0.2c-0.2,0.4-0.6,1.1-0.8,1.5c0,0.2,0,0.2,0,0.4
			c0.4,0.6,0.8,1.3,1.3,2.1c0,0.2,0.2,0.2,0.2,0.2c0.8,0,1.5,0,2.3,0c0.2,0,0.2,0,0.2-0.2c0.4-0.6,0.8-1.5,1.3-2.1
			c0-0.2,0-0.2,0-0.4c-0.2-0.2-0.2-0.4-0.4-0.8c0.4-0.2,0.4-0.2,0.4,0.2c0.2,0.4,0.4,0.8,1.1,0.6c-0.2,0.2-0.2,0.4-0.6,0.4
			c0,0-0.2,0-0.2,0.2c-0.4,0.6-0.8,1.5-1.3,2.1c0,0.2,0,0.2,0,0.4c0.2,0.2,0.2,0.4,0,0.6l0,0c-0.2-0.6-0.6-0.6-1.1-0.6
			c-0.6,0-1.3,0-1.9,0c-0.2,0-0.2,0-0.2,0.2c-0.4,0.6-0.8,1.3-1.1,1.9c0,0.2,0,0.2,0,0.4c0.4,0.6,0.6,1.3,1.1,1.7
			c0.2,0.2,0.2,0.6,0.6,0.4l0,0c-0.2,0-0.4,0.2-0.4,0.2c-0.2,0-0.2-0.2-0.2-0.4c-0.4-0.6-0.8-1.3-1.1-1.9c-0.4-0.4-0.6-0.4-0.8-0.4
			h-0.2c-0.2,0-0.2-0.2-0.2-0.2c0-0.2,0.2-0.2,0.2-0.2c0.4,0,0.6-0.2,0.8-0.4c0.2-0.6,0.6-1.3,1.1-1.7c0-0.2,0-0.2,0-0.4
			c-0.4-0.6-0.8-1.3-1.1-1.9c0-0.2-0.2-0.2-0.4-0.2c-0.8,0-1.5,0-2.3,0c-0.2,0-0.2,0-0.4,0.2c-0.2,0.4-0.4,0.8-0.8,1.3
			c0,0.2-0.2,0.2-0.4,0c-0.2,0,0-0.2,0-0.2c0.2-0.4,0.6-0.8,0.8-1.5c0-0.2,0-0.2,0-0.4c-0.4-0.6-0.8-1.3-1.3-2.1
			c0-0.2-0.2-0.2-0.2-0.2c-0.8,0-1.7,0-2.3,0c-0.2,0-0.2,0-0.2,0.2c-0.4,0.6-0.8,1.5-1.3,2.1c0,0.2,0,0.2,0,0.4
			c0.2,0.4,0.4,0.8,0.6,1.3c-0.2,0-0.4,0-0.6-0.2c-0.2-0.6-0.6-1.1-1.5-0.8c-0.6,0-1.1,0-1.7,0c-0.2,0-0.2,0-0.2,0.2
			c-0.2,0.2-0.2,0.4-0.4,0.6c0,0.2-0.2,0.2-0.4,0.2c0.2-0.4,0.4-0.8,0.6-1.1c0-0.2,0-0.2,0-0.2c-0.4-0.6-0.8-1.5-1.3-2.1
			c0-0.2-0.2-0.2-0.4-0.2c-0.8,0-1.5,0-2.3,0c-0.2,0-0.2,0-0.2-0.2c0-0.2,0.2-0.2,0.2-0.2c0.8,0,1.5,0,2.3,0c0.2,0,0.2,0,0.4-0.2
			c0.4-0.6,0.8-1.5,1.3-2.1c0-0.2,0-0.2,0-0.4c-0.4-0.6-0.8-1.3-1.1-1.9c0-0.2-0.2-0.2-0.2-0.2c-0.8,0-1.7,0-2.3,0
			c-0.2,0-0.2,0-0.2,0.2c-0.4,0.6-0.6,1.3-1.1,1.9c-0.2-0.2-0.2-0.4,0-0.6c0.2-0.4,0.6-1.1,0.8-1.5c0-0.2,0-0.2,0-0.4
			c-0.2-0.2-0.2-0.4-0.2-0.4c-0.2-0.2-0.2-0.2,0-0.6c0.2,0.4,0.4,0.6,0.6,1.1c0,0.2,0.2,0.2,0.2,0.2c0.8,0,1.7,0,2.3,0
			c0.2,0,0.2,0,0.2-0.2c0.4-0.6,0.8-1.5,1.3-2.1c0-0.2,0-0.2,0-0.2c-0.4-0.6-0.8-1.5-1.3-2.1c0-0.2-0.2-0.2-0.2-0.2
			c-0.8,0-1.7,0-2.5,0c-0.2,0-0.2,0.2-0.2,0.2c0-0.2-0.2-0.6,0-0.8c0,0.2,0.2,0.2,0.6,0.2c0.6,0,1.5,0,2.1,0c0.2,0,0.2,0,0.4-0.2
			c0.4-0.6,0.8-1.5,1.3-2.1v-0.2c-0.4-0.6-0.8-1.5-1.3-2.1c0-0.2-0.2-0.2-0.4-0.2c-0.8,0-1.5,0-2.3,0c-0.2,0-0.4,0-0.4,0.2
			s-0.2,0.4-0.4,0.6c-0.2-0.2-0.2-0.4,0-0.6s0.2-0.4,0-0.8c-0.2-0.2-0.4-0.6-0.6-1.1c0.2,0,0.4,0,0.6,0.4c-0.2,0-0.2,0.4,0.2,0.6
			c0.2,0.2,0.6,0,1.1,0c0.4,0,1.1,0,1.5,0c0.2,0,0.2,0,0.2-0.2c0.4-0.6,0.8-1.5,1.3-2.1c0,0,0.2-0.2,0-0.2c0,0-0.2-0.2,0-0.2
			c0,0,0.2-0.2,0.2,0c0,0.2,0.2,0.2,0.2,0.2c0.8,0,1.5,0,2.3,0c0.2,0,0.2,0,0.2-0.2c0-0.2,0.2-0.2,0.2-0.4c0.4-0.4,0.6-0.4,1.1-0.4
			c-0.2,0.4-0.4,0.6-0.6,1.1c0,0.2,0,0.2,0,0.4c0.4,0.6,0.8,1.3,1.3,2.1c0,0.2,0.2,0.2,0.4,0.2c0.8,0,1.5,0,2.3,0
			c0.2,0,0.2,0,0.4-0.2c0.4-0.6,0.8-1.5,1.3-2.1c0-0.2,0-0.2,0-0.4c-0.4-0.6-0.6-1.1-1.1-1.7c0,0-0.2-0.2,0-0.2s0.2-0.2,0.4,0
			c0.2,0.4,0.6,0.8,0.8,1.3c0.2,0.4,0.4,0.4,0.8,0.4c0.6,0,1.3,0,2.1,0c0.2,0,0.2,0,0.4-0.2c0.4-0.6,0.8-1.3,1.1-1.9
			c0,0,0-0.2,0.2-0.2s0.2,0.2,0,0.4c-0.2,0.2-0.2,0.4-0.4,0.6c-0.6,0.4-1.1,0.8-1.3,1.3c0,0.2,0,0.2,0,0.4c0.4,0.6,0.8,1.3,1.1,1.9
			c0,0.2,0.2,0.2,0.4,0.2c0.6,0,1.5,0,2.1,0C86,23.8,85.8,24,85.6,24c-0.4,0-1.1,0-1.5,0c-0.2,0-0.2,0-0.2,0.2
			c-0.4,0.6-0.8,1.5-1.3,2.1v0.2c0.4,0.6,0.8,1.5,1.3,2.1c0,0.2,0.2,0.2,0.4,0.2C83.9,29.1,83.7,29.3,83.5,29.3L83.5,29.3z
			 M80.9,26.3c0.4,0,0.8,0,1.3,0c0.2,0,0.2,0,0.2-0.2c0.4-0.6,0.8-1.5,1.3-2.1c0-0.2,0-0.2,0-0.4c-0.4-0.6-0.8-1.5-1.3-2.1l-0.2-0.2
			c-0.8,0-1.7,0-2.3,0c-0.2,0-0.2,0-0.2,0.2c-0.4,0.6-0.8,1.5-1.3,2.1c0,0.2,0,0.2,0,0.2c0.4,0.6,0.8,1.5,1.3,2.1
			c0,0.2,0.2,0.2,0.4,0.2C80.1,26.3,80.5,26.3,80.9,26.3z M71.8,36.9c0.4,0,0.8,0,1.3,0c0.2,0,0.2,0,0.4-0.2
			c0.4-0.6,0.8-1.3,1.3-2.1c0-0.2,0-0.2,0-0.4c-0.4-0.6-0.8-1.5-1.3-2.1c0-0.2-0.2-0.2-0.2-0.2c-0.8,0-1.7,0-2.3,0
			c-0.2,0-0.2,0-0.2,0.2c-0.4,0.6-0.8,1.5-1.3,2.1c0,0.2,0,0.2,0,0.4c0.4,0.6,0.8,1.3,1.3,2.1c0,0.2,0.2,0.2,0.4,0.2
			C71,36.9,71.4,36.9,71.8,36.9z M71.8,31.6c0.4,0,0.8,0,1.3,0c0.2,0,0.2,0,0.2-0.2c0.4-0.6,0.8-1.5,1.3-2.1v-0.2
			c-0.4-0.6-0.8-1.5-1.3-2.1l-0.2-0.2c-0.8,0-1.7,0-2.5,0c-0.2,0-0.2,0-0.2,0.2c-0.4,0.6-0.8,1.5-1.3,2.1c0,0.2,0,0.2,0,0.4
			c0.4,0.6,0.8,1.5,1.3,2.1c0,0.2,0.2,0.2,0.4,0.2C71.2,31.6,71.4,31.6,71.8,31.6z M76.3,29.1c0.4,0,0.8,0,1.3,0
			c0.2,0,0.2,0,0.2-0.2c0.4-0.6,0.8-1.5,1.3-2.1c0-0.2,0-0.2,0-0.4c-0.4-0.6-0.8-1.5-1.3-2.1c0-0.2-0.2-0.2-0.2-0.2
			c-0.8,0-1.7,0-2.3,0C75,24,75,24,75,24.2c-0.4,0.6-0.8,1.3-1.3,2.1c0,0.2,0,0.2,0,0.4c0.4,0.6,0.8,1.3,1.3,2.1
			c0,0.2,0.2,0.2,0.2,0.2C75.6,29.1,75.8,29.1,76.3,29.1z M71.8,37.4L71.8,37.4c-0.4,0-0.8,0-1.3,0c-0.2,0-0.2,0-0.2,0.2
			c-0.4,0.6-0.8,1.3-1.3,2.1c0,0.2,0,0.2,0,0.4c0.4,0.6,0.8,1.5,1.3,2.1c0,0.2,0.2,0.2,0.2,0.2c0.8,0,1.7,0,2.3,0
			c0.2,0,0.2,0,0.2-0.2c0.4-0.6,0.8-1.5,1.3-2.1c0-0.2,0-0.2,0-0.4c-0.4-0.6-0.6-1.3-1.1-1.9c-0.2-0.2-0.2-0.4-0.6-0.4
			C72.4,37.4,72.2,37.4,71.8,37.4z M71.8,21.7L71.8,21.7c-0.4,0-0.8,0-1.3,0c-0.2,0-0.2,0-0.2,0.2c-0.4,0.6-0.8,1.3-1.1,1.9
			c0,0.2,0,0.2,0,0.4c0.4,0.6,0.8,1.3,1.3,2.1c0,0.2,0.2,0.2,0.2,0.2c0.8,0,1.7,0,2.3,0c0.2,0,0.2,0,0.2-0.2
			c0.4-0.6,0.8-1.5,1.3-2.1c0-0.2,0-0.2,0-0.4c-0.4-0.6-0.8-1.3-1.3-2.1c0-0.2-0.2-0.2-0.2-0.2C72.7,21.7,72.2,21.7,71.8,21.7z
			 M76.5,29.5L76.5,29.5c-0.4,0-0.8,0-1.3,0c-0.2,0-0.2,0-0.2,0.2c-0.4,0.6-0.8,1.5-1.3,2.1v0.2c0.4,0.6,0.8,1.5,1.3,2.1
			c0,0.2,0.2,0.2,0.2,0.2c0.8,0,1.7,0,2.3,0c0.2,0,0.2,0,0.2-0.2c0.4-0.6,0.8-1.5,1.3-2.1c0-0.2,0-0.2,0-0.2
			c-0.4-0.6-0.8-1.3-1.1-1.9c0-0.2-0.2-0.2-0.4-0.2C77.1,29.5,76.7,29.5,76.5,29.5z"/>
		<path class="st1" d="M42.2,75.7c0-0.4,0.4-0.8,0.6-1.1c0.4-0.6,0.4-1.3,0-1.7c-0.2-0.4-0.6-0.8-0.8-1.3c0-0.2-0.2-0.2-0.2-0.2
			c-0.8,0-1.7,0-2.3,0c-0.2,0-0.2,0-0.2,0.2c-0.4,0.6-0.8,1.5-1.3,2.1c0,0.2,0,0.2,0,0.2c0.4,0.6,0.8,1.5,1.3,2.1
			c0,0.2,0.2,0.2,0.4,0.2c0.6,0,1.3,0,2.1,0c-0.2,0.2-0.4,0.4-0.6,0.4c-0.4,0-0.8,0-1.5,0c-0.2,0-0.2,0-0.2,0.2
			c-0.4,0.6-0.8,1.5-1.3,2.1c0,0.2,0,0.2,0,0.2c0.4,0.6,0.8,1.5,1.3,2.1c0,0.2,0.2,0.2,0.4,0.2c0.4,0,0.8,0,1.1,0h0.2
			c-0.4,0-0.6,0-0.6,0c-0.4,0-1.1,0-1.5,0c-0.2,0-0.2,0-0.2-0.2c-0.4-0.6-0.8-1.5-1.3-2.1c0-0.2-0.2-0.2-0.2-0.2c-0.8,0-1.7,0-2.3,0
			c-0.2,0-0.2,0-0.2,0.2c-0.2,0.2-0.2,0.6-0.4,0.8c0,0,0,0.4-0.2,0.2s0-0.2,0-0.4c-0.2-0.2-0.2-0.4,0-0.6c0.2-0.2,0-0.4,0-0.4
			c-0.4-0.6-0.8-1.3-1.1-1.9c0-0.2-0.2-0.2-0.4-0.2c-0.8,0-1.7,0-2.3,0c-0.4,0-0.4,0-0.6-0.4c0,0,0,0,0-0.2c0-0.2,0-0.4,0-0.4
			c0.2,0,0.2,0.2,0.2,0.2c0.2,0.2,0.2,0.4,0.6,0.2c0.6,0,1.5,0,2.1,0c0.2,0,0.2,0,0.4-0.2c0.4-0.6,0.8-1.5,1.3-2.1
			c0-0.2,0-0.2,0-0.4c-0.4-0.2-0.6-0.4-0.8-0.8c-0.2-0.2-0.2-0.4,0-0.6c0.2,0.4,0.6,0.8,0.8,1.5c0,0.2,0.2,0.2,0.4,0.2
			c0.8,0,1.5,0,2.3,0c0.2,0,0.2,0,0.2-0.2c0.4-0.6,0.8-1.3,1.1-1.9c0-0.2,0.2-0.2,0-0.4c-0.2-0.8-0.6-1.5-0.8-2.1
			c0-0.2-0.2-0.2-0.4-0.2c-0.6,0-1.5,0-2.1,0c-0.2,0-0.2,0-0.2-0.2s0.2-0.2,0.2-0.2c0.6,0,1.5,0,2.1,0c0.2,0,0.2,0,0.2-0.2
			c0.4-0.6,0.8-1.5,1.3-2.1c0-0.2,0-0.2,0-0.4c-0.4-0.6-0.8-1.5-1.3-2.1c0-0.2-0.2-0.2-0.2-0.2c-0.8,0-1.7,0-2.5,0
			c-0.2,0-0.2,0-0.2,0.2c-0.4,0.6-0.8,1.5-1.3,2.1c0,0,0,0.2-0.2,0.2s-0.2-0.2,0-0.2c0.4-0.6,0.8-1.5,1.3-2.1c0-0.2,0-0.2,0-0.4
			c-0.2-0.2-0.2-0.4,0-0.6C34.4,63,34.6,63,35,63c0.6,0,1.3,0,1.9,0c0.2,0,0.2,0,0.2-0.2c0.4-0.6,0.8-1.5,1.3-2.1
			c0.2-0.2,0-0.4,0-0.4c-0.2-0.4-0.6-1.1-0.8-1.5c0,0-0.2-0.2,0-0.2c0-0.2,0.2-0.2,0.2,0c0.4,0.6,0.6,1.1,1.1,1.7
			c0.2,0.2,0.2,0.2,0.4,0.2c0.8,0,1.5,0,2.3,0c0.2,0,0.2,0,0.4-0.2c0.4-0.6,0.6-1.3,1.1-1.9c0-0.2,0.2-0.2,0-0.4
			c-0.4-0.6-0.8-1.3-1.1-1.9c-0.2-0.2-0.2-0.2-0.4-0.2c-0.8,0-1.5,0-2.3,0c0-0.2,0.2-0.4,0.4-0.4c0.6,0,1.3,0,1.9,0
			c0.2,0,0.2,0,0.4-0.2c0.4-0.6,0.8-1.3,1.3-2.1c0-0.2,0.2-0.2,0-0.4c-0.4-0.6-0.8-1.5-1.3-2.1c0-0.2-0.2-0.2-0.2-0.2
			c-0.4,0-0.6,0-1.1,0c-0.4,0.2-0.4,0-0.4-0.2s0,0,0.2,0c0.4,0,0.8,0,1.3,0c0.2,0,0.2,0,0.2-0.2c0.4-0.6,0.8-1.5,1.3-2.1
			c0-0.2,0-0.2,0-0.4c-0.4-0.6-0.8-1.3-1.3-2.1c0-0.2-0.2-0.2-0.4-0.2c-0.6,0-1.5,0-2.1,0c-0.2,0-0.4,0-0.4-0.4c0.8,0,1.7,0,2.5,0
			c0.2,0,0.2,0,0.4-0.2c0.4-0.6,0.8-1.3,1.3-2.1c0-0.2,0-0.2,0-0.4c-0.4-0.4-0.8-1.1-1.3-1.7c0-0.2-0.2-0.2-0.4-0.2
			c-0.8,0-1.5,0-2.3,0c-0.2,0-0.2,0-0.2,0.2c-0.4,0.6-0.6,1.3-1.1,1.7c0,0,0,0.2-0.2,0.2s-0.2-0.2,0-0.4c0.4-0.6,0.6-1.1,1.1-1.7
			c0.2-0.2,0.2-0.4,0-0.6c-0.6-0.4-1.1-1.1-1.3-1.9c-0.2,0-0.2-0.2-0.4-0.2c-0.4,0-1.1,0-1.5,0c-0.4,0-0.6,0-0.8-0.4H35
			c0.6,0,1.3,0,1.9,0c0.2,0,0.4,0,0.4-0.2c0.2-0.4,0.4-1.1,1.1-1.3c0,0,0,0,0.2,0l0,0c-0.2,0.4-0.4,1.1-0.8,1.5c0,0.2-0.2,0.2,0,0.4
			c0.4,0.8,0.8,1.5,1.3,2.1c0,0.2,0.2,0.2,0.4,0.2c0.8,0,1.5,0,2.3,0c0.2,0,0.2,0,0.4-0.2c0.2-0.6,0.4-1.3,0.8-2.1
			c0-0.2,0-0.2,0-0.4c-0.2-0.6-0.6-1.3-1.1-1.9c0-0.2-0.2-0.2-0.4-0.2c-0.6,0-1.5,0-2.1,0h-0.2c0-0.2,0-0.4,0.2-0.2
			c0.4,0,1.1,0,1.5,0c0.6,0,1.1-0.2,1.3-0.6c0-0.2,0-0.4,0.4-0.4c0.2,0,0.2,0,0.2,0.2c-0.2,0-0.4,0.4-0.6,0.6c0,0.2,0,0.2,0,0.4
			c0.4,0.6,0.8,1.5,1.3,2.1c0,0.2,0.2,0.2,0.2,0.2c0.8,0,1.5,0,2.3,0c0.2,0,0.2,0,0.4-0.2c0.4-0.6,0.8-1.3,1.1-1.9
			c0,0,0-0.2,0.2-0.2s0.2,0.2,0,0.2c-0.2,0.6-0.6,1.5-1.1,2.1v0.2c0,0.2,0.2,0.2,0.2,0.4c0.2,0.2,0.2,0.4,0,0.6
			c0-0.2-0.2-0.4-0.4-0.8l-0.2-0.2c-0.8,0-1.7,0-2.3,0c-0.2,0-0.2,0-0.2,0.2c-0.4,0.6-0.8,1.5-1.3,2.1c0,0.2,0,0.2,0,0.4
			c0.4,0.6,0.8,1.3,1.3,2.1c0,0.2,0.2,0.2,0.4,0.2c0.6,0,1.3,0,1.9,0c0.2,0,0.2,0,0.2,0.2c0,0.2,0,0.2-0.2,0.2c-0.6,0-1.5,0-2.1,0
			c-0.2,0-0.2,0-0.2,0.2c-0.4,0.6-0.8,1.5-1.3,2.1c0,0.2,0,0.2,0,0.2c0.4,0.6,0.8,1.5,1.3,2.1c0,0.2,0.2,0.2,0.2,0.2
			c0.8,0,1.7,0,2.5,0c0.2,0,0.2-0.2,0.4-0.4c0.2,0.2,0.2,0.2,0,0.4v0.2c0.4,0.6,0.8,1.5,1.3,2.1c0,0,0,0.2,0.2,0.2
			c0.2,0,0.4,0.2,0.4,0.4l0,0c-0.4,0-0.6,0.2-0.8,0.4c-0.4,0.4-0.8,1.1-1.3,1.7c0,0.2,0,0.2,0,0.4c0.4,0.6,0.8,1.3,1.3,2.1
			c0,0.2,0.2,0.2,0.4,0.2s0.2,0,0.4,0c0,0.2-0.2,0.4-0.4,0.4c-0.2,0-0.2,0-0.2,0.2c0,0.2-0.2,0.4-0.2,0.6c-0.2,0.4-0.4,0.4-0.8,0.6
			l0,0c0.2-0.4,0.4-0.8,0.8-1.3c0-0.2,0.2-0.2,0-0.4c-0.4-0.6-0.8-1.3-1.1-1.9c0-0.2-0.2-0.2-0.4-0.2c-0.8,0-1.7,0-2.3,0
			c-0.2,0-0.2,0-0.2,0.2c-0.4,0.6-0.8,1.3-1.3,2.1c0,0.2,0,0.2,0,0.4c0.4,0.6,0.8,1.3,1.1,1.9c0,0.2,0.2,0.2,0.4,0.2
			c0.8,0,1.5,0,2.3,0c0,0.2-0.2,0.4-0.6,0.4c-0.6,0-1.3,0-1.9,0c-0.2,0-0.2,0-0.2,0.2c-0.4,0.6-0.8,1.5-1.3,2.1c0,0.2,0,0.2,0,0.4
			c0.4,0.6,0.8,1.5,1.3,2.1c0,0.2,0,0.2,0,0.4c-0.2,0.8-0.8,1.7-1.3,2.3c0,0.2,0,0.2,0,0.4c0-0.4,0-0.2,0.2,0
			c0.2,0.2,0.4,0.6,0.2,1.1c-0.2-0.4-0.4-0.6-0.4-1.1c-0.2-0.6-0.6-0.8-1.3-0.8c-0.6,0-1.3,0-1.9,0c-0.2,0-0.2,0-0.2,0.2
			c-0.4,0.6-0.8,1.5-1.3,2.1c0,0.2,0,0.2,0,0.4c0.4,0.6,0.8,1.5,1.3,2.1c0,0.2,0.2,0.2,0.4,0.2c0.8,0,1.5,0,2.3,0
			c0.2,0,0.2,0,0.4-0.2c0.4-0.6,0.6-1.1,1.1-1.7c0,0.6-0.2,1.3-0.6,1.7c-0.2,0.2-0.2,0.4,0,0.6c0.4,0.6,0.6,1.3,1.1,1.7
			c0.2,0.2,0.2,0.4,0.6,0.4c0,0,0.2,0,0.4,0c-0.2,0.2-0.2,0.4-0.6,0.4c-0.2,0-0.2,0-0.2,0.2c-0.2,0.4-0.4,0.8-0.6,1.1
			C42.6,75.4,42.4,75.7,42.2,75.7L42.2,75.7z M44.9,52.6c0.4,0,0.8,0,1.3,0c0.2,0,0.2,0,0.2-0.2c0.4-0.6,0.8-1.5,1.3-2.1v-0.2
			c-0.4-0.6-0.8-1.5-1.3-2.1c0-0.2-0.2-0.2-0.2-0.2c-0.8,0-1.7,0-2.3,0c-0.2,0-0.2,0-0.2,0.2c-0.4,0.6-0.8,1.5-1.3,2.1
			c0,0.2,0,0.2,0,0.2c0.4,0.6,0.8,1.5,1.3,2.1c0,0.2,0.2,0.2,0.2,0.2C44.1,52.6,44.5,52.6,44.9,52.6z M40.5,65.7c0.4,0,0.8,0,1.1,0
			s0.2,0,0.4-0.2c0.4-0.6,0.8-1.5,1.3-2.1c0-0.2,0-0.2,0-0.4c-0.4-0.6-0.8-1.5-1.3-2.1c0-0.2-0.2-0.2-0.2-0.2c-0.8,0-1.7,0-2.3,0
			c-0.2,0-0.2,0-0.2,0.2c-0.4,0.6-0.8,1.5-1.3,2.1v0.2c0.4,0.6,0.8,1.5,1.3,2.1c0,0.2,0.2,0.2,0.4,0.2
			C39.6,65.7,40.1,65.7,40.5,65.7z M36,74c-0.4,0-0.8,0-1.3,0c-0.2,0-0.2,0-0.2,0.2c-0.4,0.6-0.8,1.5-1.3,2.1v0.2
			c0.4,0.6,0.8,1.5,1.3,2.1c0,0.2,0.2,0.2,0.2,0.2c0.8,0,1.7,0,2.3,0c0.2,0,0.2,0,0.2-0.2c0.4-0.6,0.8-1.5,1.3-2.1
			c0-0.2,0-0.2,0-0.4c-0.4-0.6-0.8-1.3-1.1-1.9c0-0.2-0.2-0.2-0.4-0.2C36.7,74,36.3,74,36,74z"/>
		<path class="st1" d="M54.7,38c0.4,0,0.8,0,1.3,0.2l0.2,0.2c0,0,0,0,0.2,0.2c0.6,0.2,1.1,0.8,1.3,1.5c0.2,0.6,0.2,1.1,0.2,1.7
			c0,1.1-0.4,1.9-1.5,2.5c-1.1,0.8-2.1,0.8-3.4,0.4c-0.8-0.2-1.5-0.8-1.9-1.7c-0.2-0.4-0.2-1.1-0.4-1.5c0-0.2,0-0.4,0-0.6
			c0-0.2,0-0.2,0-0.4c0-0.6,0.4-1.3,0.8-1.7C52.6,38.4,53.6,37.8,54.7,38z M53.2,40.5c0,1.1,1.1,2.1,1.9,1.9c1.1,0,1.9-0.8,1.9-1.9
			s-1.1-2.1-2.1-2.1C54.2,38.6,53.2,39.7,53.2,40.5z"/>
		<path class="st1" d="M46.4,26.3c0.2-0.6,0.4-1.1,0.8-1.7c0.4-0.6,0.4-1.1,0-1.5c-0.2-0.4-0.4-0.8-0.8-1.3c0-0.2-0.2-0.2-0.4-0.2
			s-0.6,0-0.8,0c0.2-0.4,0.2-0.4,0.6-0.4c0.2,0,0.4,0,0.6-0.4c0.4-0.6,0.8-1.3,1.1-1.9c0.2-0.2,0.2-0.2,0.4-0.2s0.6,0,0.8,0
			c0.6,0,1.5,0,2.1,0c0.2,0,0.2,0.2,0.2,0.2c0.4,0.6,0.6,1.3,1.1,1.9c0.2,0.2,0.2,0.4,0.4,0.2c0.6,0,1.3,0,1.7,0
			c0.6,0,1.1,0.2,1.3,0.8c0.4,0.4,0.6,1.1,0.8,1.7c0.2,0.2,0.2,0.2,0.4,0.2H57c0.2,0,0.2,0.2,0.2,0.2c0,0.2-0.2,0-0.2,0
			c-0.4,0-0.6,0.2-0.8,0.4c-0.2,0.6-0.6,1.1-1.1,1.7c0,0.2,0,0.2,0,0.4c0.4,0.6,0.6,1.1,1.1,1.7c0.2,0.2,0.2,0.4,0,0.6
			c-0.2-0.4-0.4-0.6-0.6-1.1c-0.2-0.2-0.2-0.4-0.4-0.6c-0.2-0.4-0.4-0.4-0.8-0.4c-0.6,0-1.3,0-2.1,0c-0.2,0-0.2,0-0.4,0.2
			c-0.2,0.4-0.6,0.8-0.8,1.5c0,0,0,0.2-0.2,0.2c-0.2,0-0.2-0.2,0-0.4c0.2-0.4,0.6-1.1,0.8-1.5c0-0.2,0-0.2,0-0.4
			c-0.4-0.6-0.8-1.3-1.3-2.1c0-0.2-0.2-0.2-0.4-0.2c-0.8,0-1.5,0-2.3,0c-0.2,0-0.2,0-0.2,0.2c0.2,0.6,0,1.3-0.4,1.9
			C46.8,26.3,46.6,26.3,46.4,26.3z M53.8,21.5L53.8,21.5c-0.4,0-0.8,0-1.1,0c-0.2,0-0.2,0-0.4,0.2c-0.4,0.6-0.8,1.3-1.3,2.1
			c0,0.2,0,0.2,0,0.4c0.4,0.6,0.8,1.5,1.3,2.1c0,0.2,0.2,0.2,0.4,0.2c0.8,0,1.5,0,2.3,0c0.2,0,0.2,0,0.4-0.2
			c0.4-0.6,0.8-1.5,1.3-2.1c0-0.2,0-0.2,0-0.4c-0.4-0.6-0.8-1.3-1.3-2.1c0-0.2-0.2-0.2-0.4-0.2C54.7,21.5,54.2,21.5,53.8,21.5z
			 M49.4,18.9c-0.4,0-0.8,0-1.3,0c-0.2,0-0.2,0-0.2,0.2c-0.4,0.6-0.8,1.3-1.3,1.9c0,0.2,0,0.2,0,0.4c0.4,0.6,0.8,1.5,1.3,2.1
			c0,0.2,0.2,0.2,0.2,0.2c0.8,0,1.5,0,2.3,0c0.2,0,0.2,0,0.2-0.2c0.4-0.6,0.8-1.5,1.3-2.1c0-0.2,0-0.2,0-0.2
			c-0.4-0.6-0.8-1.3-1.3-2.1c0-0.2-0.2-0.2-0.4-0.2C50.2,18.9,49.8,18.9,49.4,18.9z"/>
		<path class="st1" d="M60.2,45.6c0.2,0.2,0.4,0.4,0.6,0.6c0.2,0.4,0.2,0.6,0.2,1.1c-0.2,0.4-0.4,0.6-0.6,1.1
			c-0.6,0.6-1.3,1.1-1.9,1.5c-0.6,0.2-1.3,0.6-2.1,0.6c-0.4,0-1.1,0.2-1.5,0.2c0,0,0,0-0.2,0c0.2-0.2,0.4-0.2,0.6-0.4
			c0.4,0,0.6-0.2,1.1-0.4c0.2-0.2,0.6-0.2,0.8-0.2c0.8-0.2,1.5-0.6,1.9-1.1c0.8-0.6,1.1-1.5,1.1-2.3C60.2,46,60.2,45.8,60.2,45.6z"
			/>
		<path class="st1" d="M56.6,80.3c0.2,0.8,0.8,1.1,1.5,1.1c0.4,0,1.1,0,1.5,0c0.2,0,0.2,0,0.2-0.2c0.4-0.6,0.8-1.3,1.3-2.1
			c0-0.2,0-0.2,0-0.4c-0.2-0.2-0.2-0.6-0.4-0.8c0,0-0.2-0.2,0-0.2c0,0,0.2,0,0.4,0c0.2,0.2,0.4,0.6,0.4,0.8c0,0.2,0.2,0.2,0.2,0.2
			c0.8,0,1.7,0,2.3,0c0.2,0,0.2,0,0.2-0.2c0.2-0.2,0.4-0.6,0.4-0.8c0,0,0-0.2,0.2-0.2H65c0.2,0,0,0.2,0,0.2
			c-0.2,0.4-0.4,0.6-0.6,1.1c0,0.2,0,0.2,0,0.2s0.2,0.2,0,0.4c0,0-0.2,0.2-0.2,0c0-0.2-0.2-0.2-0.4-0.2c-0.8,0-1.5,0-2.3,0
			c-0.2,0-0.2,0-0.4,0.2c-0.4,0.6-0.8,1.5-1.3,2.1c0,0.2-0.2,0.2-0.2,0.2c-1.1,0-1.9,0-3,0c-0.2,0-0.2,0-0.2-0.2
			c0-0.2-0.2-0.4-0.2-0.4C56.2,80.7,56.2,80.5,56.6,80.3z"/>
		<path class="st0" d="M38.6,35.2L38.6,35.2L38.6,35.2L38.6,35.2L38.6,35.2z"/>
		<path class="st0" d="M46.8,57L46.8,57L46.8,57L46.8,57L46.8,57z"/>
		<path class="st0" d="M42.2,75.7L42.2,75.7L42.2,75.7L42.2,75.7L42.2,75.7z"/>
		<path class="st1" d="M55.1,40.1c0.4,0,0.8,0.4,0.8,0.8c0,0.4-0.4,0.8-0.8,0.8s-0.8-0.4-0.8-0.8S54.7,40.1,55.1,40.1z"/>
	</g>
</g>
</svg>
