<?xml version="1.0" encoding="utf-8"?>
<!-- Generator: Adobe Illustrator 21.0.2, SVG Export Plug-In . SVG Version: 6.00 Build 0)  -->
<svg version="1.1" id="Layer_1" xmlns="http://www.w3.org/2000/svg" xmlns:xlink="http://www.w3.org/1999/xlink" x="0px" y="0px"
	 viewBox="0 0 116 100" style="enable-background:new 0 0 116 100;" xml:space="preserve">
<style type="text/css">
	.st0{fill:#084CA1;}
	.st1{display:none;fill:#FFFFFF;}
	.st2{fill:#FFFFFF;}
</style>
<polygon id="hexagon_x5F_pldw" class="st0" points="86.9,0 29.1,0 0.3,50 29.1,100 86.9,100 115.7,50 "/>
<g id="pldw_x5F_logo-watra">
	<path class="st1" d="M31.4,49c0-13.4,0-26.8,0-40.2c0-1,0.3-1.1,1.1-1.1c17.2,0,34.4,0,51.6,0c0.9,0,1.1,0.2,1.1,1.1
		c0,26.8,0,53.6,0,80.4c0,0.9-0.2,1-1.1,1c-17.2,0-34.5,0-51.7,0c-1.1,0-1.1-0.4-1-1.2C31.4,75.7,31.4,62.4,31.4,49z M56.2,64.6
		c0.4,0.1,0.7,0.3,1.3,0.5c-0.6-3.2-1.1-6.2-3.4-8.5c-0.3-0.5-0.5-0.9-0.8-1.4c-3.5-4.5-7.1-9-8.4-15.1c-1.8,5.2-1.7,10.1,1,14.7
		c2.4,4.1,5.8,7.3,9.4,10.3C56.2,65.8,56.1,65.1,56.2,64.6z M57.7,58.4c0.4,1.8,0.8,3.7,1.3,5.7c0.3-0.4,0.5-0.5,0.6-0.7
		c0.3-0.4,0.6-0.9,0.8-1.4c1.9-4,1.8-7.9-0.4-11.8c0.1-1-0.4-1.8-0.9-2.6c-2.1-3.6-4.3-7.2-6.3-10.8c-1.8-3.4-3.3-6.9-2.2-10.9
		c0.1-0.3,0.4-0.6,0-1c-1.9,1.7-3,3.8-3.5,6.3c-0.9,4.1,0.3,7.9,1.9,11.6C51.5,48.2,54.8,53.2,57.7,58.4z M70.3,53.1
		c0.3-0.1,0.3-0.3,0.4-0.6c0.7-4.3,0.6-8.5-1.5-12.4c-2.5-4.8-5.1-9.5-7.4-14.4c-1.6-3.4-2.1-7.1-1.5-10.8c0.2-0.9,0.3-1.8,0.4-3
		c-1.7,1.5-3,2.9-4.2,4.4c-2,2.6-3.1,5.5-2.8,8.8c0.3,3.2,1.1,6.3,2.7,9.2c1.6,3,3.2,5.9,4.7,8.9c1.9,3.7,3.3,7.5,3.4,11.7
		c-0.4,2.6-0.8,5.2-1.8,7.7c-0.1,0.3-0.3,0.6-0.1,0.8c0.3,0.4,0.6,0,0.9-0.2c2.4-1.8,4.5-3.8,5.8-6.6C69.7,55.5,70.3,54.4,70.3,53.1
		z M60.7,77.9C60.7,77.9,60.7,77.9,60.7,77.9c0-1.7,0-3.3,0-5c-0.1-3.6,0.7-3.1-3.3-3.1c-1.1,0-1.5,0.4-1.5,1.6
		c0.1,3.6,0.1,7.3,0,10.9c-0.1,1.7,0.6,2.8,1.9,3.6c0.6,0.4,1.3,1,2.1,0.6c0.8-0.4,0.9-1.2,0.9-2C60.7,82.3,60.7,80.1,60.7,77.9z
		 M52.7,69.6c0-0.9-1.1-1.2-1.4-2.1c-0.2-0.6-0.4-0.6-0.9-0.3c-3.7,2.3-7.4,4.5-11,7c-1.3,0.9-1.3,1.5-0.2,2.6c0.4,0.5,0.7,1,1,1.6
		c0.7,1.2,1.4,1.3,2.5,0.4c3.1-2.7,6.2-5.3,9.3-8C52.4,70.5,52.7,70.2,52.7,69.6z M77.7,77c0-0.5-0.1-1-0.5-1.3
		c-3.2-2.7-6.3-5.4-9.5-8c-0.2-0.2-0.5-0.5-0.9-0.4c-0.7,0.2-1.5,2.9-1,3.5c2.7,3.2,5.5,6.4,8.3,9.6c0.5,0.6,1.2,0.7,1.8,0.1
		C76.8,79.6,77.5,78.4,77.7,77z"/>
	<path id="plomien_x5F_duzy_x5F_prawy" class="st2" d="M64.5,54.9c-0.1-4.2-1.5-8-3.4-11.7c-1.5-3-3.2-5.9-4.7-8.9
		c-1.5-2.9-2.3-6-2.7-9.2c-0.3-3.3,0.8-6.2,2.8-8.8c1.2-1.5,2.5-2.9,4.2-4.4c-0.2,1.2-0.3,2.1-0.4,3c-0.6,3.8-0.1,7.4,1.5,10.8
		c2.3,4.9,4.9,9.6,7.4,14.4c2.1,3.9,2.2,8.1,1.5,12.4c0,0.2-0.1,0.5-0.4,0.6C70,53,70,52.7,70,52.4c0-4.5-2.4-7.6-5.8-10.1
		c-0.1-0.2-0.3-0.3-0.4-0.2c-0.2,0.2,0.1,0.3,0.2,0.4c0.2,0.4,0.4,0.9,0.6,1.3C65.8,47.5,65.7,51.2,64.5,54.9z"/>
	<path id="plomien_x5F_duzy_x5F_srodek" class="st2" d="M57.7,58.4c-2.9-5.2-6.2-10.1-8.6-15.6c-1.6-3.7-2.8-7.5-1.9-11.6
		c0.5-2.4,1.6-4.5,3.5-6.3c0.4,0.4,0.1,0.7,0,1c-1.1,4,0.4,7.5,2.2,10.9c2,3.7,4.2,7.2,6.3,10.8c0.5,0.8,0.9,1.6,0.9,2.6
		c-1-1.2-2.2-2.1-4-2.1C58.1,51.4,57.4,54.9,57.7,58.4z"/>
	<path id="plomien_x5F_duzy_x5F_lewy" class="st2" d="M56.2,64.6c-0.1,0.5,0,1.2-0.9,0.5c-3.6-3-7.1-6.2-9.4-10.3
		c-2.7-4.6-2.8-9.5-1-14.7c1.2,6.1,4.9,10.5,8.4,15.1c0.3,0.4,0.6,0.9,0.8,1.4c-1.3-0.7-2.2-2-4-2c0.7,1.1,1.1,2.2,1.1,3.4
		c-0.1,2.2,1,3.6,2.5,4.8C54.5,63.4,55.4,64,56.2,64.6z"/>
	<path id="polano_x5F_srodek" class="st2" d="M60.7,77.9c0,2.2,0,4.4,0,6.6c0,0.8-0.1,1.6-0.9,2c-0.8,0.5-1.5-0.2-2.1-0.6
		c-1.3-0.9-2-1.9-1.9-3.6c0.2-3.6,0.1-7.3,0-10.9c0-1.1,0.4-1.6,1.5-1.6c4,0,3.2-0.4,3.3,3.1C60.8,74.6,60.7,76.3,60.7,77.9
		C60.7,77.9,60.7,77.9,60.7,77.9z"/>
	<path id="polano_x5F_lewe" class="st2" d="M52.7,69.6c0,0.6-0.3,0.9-0.7,1.2c-3.1,2.7-6.2,5.3-9.3,8c-1,0.9-1.8,0.8-2.5-0.4
		c-0.3-0.5-0.6-1.1-1-1.6c-1-1.1-1-1.7,0.2-2.6c3.5-2.5,7.3-4.7,11-7c0.5-0.3,0.8-0.3,0.9,0.3C51.6,68.4,52.7,68.7,52.7,69.6z"/>
	<path id="polano_x5F_prawe" class="st2" d="M77.7,77c-0.2,1.4-0.8,2.6-1.8,3.5c-0.6,0.6-1.3,0.5-1.8-0.1c-2.8-3.2-5.5-6.4-8.3-9.6
		c-0.5-0.5,0.4-3.2,1-3.5c0.4-0.1,0.6,0.2,0.9,0.4c3.2,2.7,6.3,5.4,9.5,8C77.5,76,77.7,76.4,77.7,77z"/>
	<path id="plomien_x5F_maly_x5F_srodek" class="st2" d="M57.7,58.4c-0.3-3.4,0.4-7-1.6-10.2c1.8,0,2.9,0.9,4,2.1
		c2.1,3.9,2.2,7.8,0.4,11.8c-0.2,0.5-0.5,0.9-0.8,1.4c-0.1,0.2-0.3,0.3-0.6,0.7C58.5,62,58.1,60.2,57.7,58.4z"/>
	<path id="plomien_x5F_maly_x5F_lewy" class="st2" d="M56.2,64.6c-0.8-0.6-1.7-1.2-2.5-1.8c-1.5-1.2-2.7-2.6-2.5-4.8
		c0.1-1.2-0.3-2.3-1.1-3.4c1.7,0,2.7,1.3,4,2c2.2,2.3,2.7,5.3,3.4,8.5C56.9,64.9,56.6,64.7,56.2,64.6z"/>
	<path id="plomien_x5F_maly_x5F_prawy" class="st2" d="M70,52.4c0-4.5-2.4-7.6-5.8-10.1c-0.1-0.2-0.3-0.3-0.4-0.2
		c-0.2,0.2,0.1,0.3,0.2,0.4c0.2,0.4,0.4,0.9,0.6,1.3c1.3,3.7,1.1,7.4-0.1,11.1c-0.4,2.6-0.8,5.2-1.8,7.7c-0.1,0.3-0.3,0.6-0.1,0.8
		c0.3,0.4,0.6,0,0.9-0.2c2.4-1.8,4.5-3.8,5.8-6.6c0.5-1.1,1.2-2.2,1.2-3.5C70,53,70,52.7,70,52.4z"/>
</g>
</svg>
