<?xml version="1.0" encoding="utf-8"?>
<!-- Generator: Adobe Illustrator 21.0.2, SVG Export Plug-In . SVG Version: 6.00 Build 0)  -->
<svg version="1.1" id="Layer_1" xmlns="http://www.w3.org/2000/svg" xmlns:xlink="http://www.w3.org/1999/xlink" x="0px" y="0px"
	 viewBox="0 0 116 100" style="enable-background:new 0 0 116 100;" xml:space="preserve">
<style type="text/css">
	.st0{fill:#084CA1;}
	.st1{fill:#FFFFFF;}
</style>
<polygon id="hexagon_x5F_22ldh-ek" class="st0" points="86.9,0 29.1,0 0.3,50 29.1,100 86.9,100 115.7,50 "/>
<g id="_x32_2ldh-ek_x5F_logo">
	<path class="st1" d="M32.4,59.6c0-1.5,0.3-2.9,0.8-4.1c0.5-1.2,1.2-2.2,2.1-3.1c0.8-0.8,1.8-1.6,2.8-2.2c1-0.7,2-1.3,3-1.8
		c1-0.5,1.9-1.1,2.8-1.6c0.8-0.6,1.5-1.2,2.1-1.9c0.5-0.7,0.8-1.5,0.8-2.3c0-0.8-0.3-1.5-0.9-1.9c-0.6-0.5-1.3-0.7-2.2-0.7
		c-0.9,0-1.6,0.2-2.1,0.6c-0.5,0.4-0.8,0.8-0.8,1.2v1.3h-7v-3.7c0-2,1.1-3.6,3.2-4.7c2.1-1.1,4.5-1.7,7.1-1.7c1.8,0,3.4,0.3,5,1
		c1.6,0.7,2.9,1.7,4,3.2c1.1,1.5,1.6,3.3,1.6,5.3c0,1.6-0.3,3.1-1,4.4c-0.7,1.3-1.6,2.4-2.6,3.3c-1,0.8-2.2,1.6-3.4,2.4
		c-1.2,0.7-2.3,1.3-3.4,1.8c-1,0.5-1.9,1-2.6,1.5c-0.7,0.5-1,1.1-1,1.6c0,0.4,0.4,0.7,1.3,0.7h6.1c0.6,0,1-0.3,1-1v-1.7h7v6
		c0,1.1-0.3,1.9-0.8,2.4c-0.5,0.5-1.3,0.8-2.4,0.8H35.9c-1.5,0-2.5-0.3-2.9-1C32.6,62.8,32.4,61.5,32.4,59.6z"/>
	<path class="st1" d="M58.3,59.6c0-1.5,0.3-2.9,0.8-4.1c0.5-1.2,1.2-2.2,2.1-3.1c0.8-0.8,1.8-1.6,2.8-2.2c1-0.7,2-1.3,3-1.8
		c1-0.5,1.9-1.1,2.8-1.6c0.8-0.6,1.5-1.2,2.1-1.9c0.5-0.7,0.8-1.5,0.8-2.3c0-0.8-0.3-1.5-0.9-1.9c-0.6-0.5-1.3-0.7-2.2-0.7
		c-0.9,0-1.6,0.2-2.1,0.6c-0.5,0.4-0.8,0.8-0.8,1.2v1.3h-7v-3.7c0-2,1.1-3.6,3.2-4.7c2.1-1.1,4.5-1.7,7.1-1.7c1.8,0,3.4,0.3,5,1
		c1.6,0.7,2.9,1.7,4,3.2c1.1,1.5,1.6,3.3,1.6,5.3c0,1.6-0.3,3.1-1,4.4c-0.7,1.3-1.6,2.4-2.6,3.3c-1,0.8-2.2,1.6-3.4,2.4
		c-1.2,0.7-2.3,1.3-3.4,1.8c-1,0.5-1.9,1-2.6,1.5c-0.7,0.5-1,1.1-1,1.6c0,0.4,0.4,0.7,1.3,0.7h6.1c0.6,0,1-0.3,1-1v-1.7h7v6
		c0,1.1-0.3,1.9-0.8,2.4c-0.5,0.5-1.3,0.8-2.4,0.8H61.9c-1.5,0-2.5-0.3-2.9-1C58.5,62.8,58.3,61.5,58.3,59.6z"/>
</g>
</svg>
