<svg version="1.1" xmlns="http://www.w3.org/2000/svg" xmlns:xlink="http://www.w3.org/1999/xlink"
	 viewBox="0 0 319.8 473.5" style="enable-background:new 0 0 319.8 473.5;" xml:space="preserve">

    <polygon id="hexagon_x5F_pasieka" class="st0" points="273.4,158 182.5,158 137,236.8 182.5,315.5 273.4,315.5 318.9,236.8 "/>
    <g id="pasieka_x5F_logo">
        <polygon id="house" class="st2" points="183.6,243.9 195.8,243.9 195.8,282 260.3,282 260.3,243.9 273.6,243.9 221.9,192 
            234.9,192 	"/>
        <path id="lilijka" class="st3" d="M233.3,228.2c0,0,1.1-0.2,1.5,3.1c0,0,5.2-2.7,3.5-7.1c0,0-2.2-4.6-6.2-1.3c0,0,0.7-2.4-1.4-4.9
            c0,0-1.9-2.8-2.2-2.8l0,0l0,0c-0.4,0-2.2,2.8-2.2,2.8c-2.2,2.4-1.4,4.9-1.4,4.9c-3.9-3.3-6.2,1.3-6.2,1.3c-1.7,4.4,3.5,7.1,3.5,7.1
            c0.4-3.2,1.5-3.1,1.5-3.1c1.2,0.4,1.4,1.9,1.4,1.9c-1.2,0.1-1.4,2.1-1.4,2.1c-0.4,2.4,2.2,2.8,2.2,2.8c-0.7,1.5-1.9,1-1.9,1
            c-1-0.3-1-1.5-1-1.5c-2.6,2.2,0,4.1,0,4c2,1.2,3.2-0.5,3.2-0.5c-0.6,2.9,2.2,4.4,2.2,4.4l0,0l0,0c0,0,2.8-1.5,2.2-4.4
            c0,0,1.3,1.6,3.2,0.5c0,0.1,2.7-1.8,0-4c0,0-0.1,1.3-1,1.5c0,0-1.2,0.5-1.9-1c0,0,2.5-0.4,2.2-2.8c0,0-0.2-2-1.3-2.1
            C231.9,230.1,232.2,228.5,233.3,228.2z"/>
        <path id="half_x5F_circle" class="st4" d="M242,269.1c0-7.5-6-13.5-13.5-13.5s-13.5,6-13.5,13.5H242z"/>
    </g>
    <g id="_x32_ldh_x5F_logo">
        <polygon id="cross" class="st3" points="265.9,119.8 270.1,115.6 232,78.4 270.1,42.1 265.9,37.9 227.8,74.8 189.7,37.9 
            185.5,42.1 223.3,78.7 185.5,115.6 189.4,119.8 227.8,82.9 	"/>
        <rect id="i_x5F_left" x="221.5" y="34" class="st3" width="4.2" height="20.1"/>
        <rect id="i_x5F_right" x="230.2" y="34" class="st3" width="4.5" height="20.1"/>
        <polygon id="h_x5F_letter" class="st3" points="255.7,68.5 255.7,88.9 259.9,88.9 259.9,80.8 268.3,80.8 268.3,88.9 272.8,88.9 
            272.8,68.5 268.3,68.5 268.3,76.6 259.9,76.6 259.9,68.5 	"/>
        <polygon id="l_x5F_letter" class="st3" points="182.8,68.5 182.8,88.9 199.3,88.9 199.3,85 190,84.7 197.5,77.5 194.5,74.5 187,82 
            186.7,68.5 	"/>
        <path id="d_x5F_letter" class="st3" d="M226.3,108.4c1.2,0,5.4,0.6,5.1,5.1c0,4.5-4.2,5.1-6,5.4h-0.6v-10.5H226.3 M226.6,103.3
            h-6.9V124h6c0,0,10.8-0.3,10.8-10.2C236.8,103.6,226.6,103.3,226.6,103.3L226.6,103.3z"/>
    </g>
    <g id="hexagon_x5F_2ldh" class="hexagon">
        <path class="st5" d="M226.3,108.4h-1.5v10.5h0.6c1.8-0.3,6-0.9,6-5.4C231.7,109,227.5,108.4,226.3,108.4z"/>
        <path class="st5" d="M273.4,0h-90.9L137,78.8l45.5,78.8h90.9l45.5-78.8L273.4,0z M230.2,34h4.5v20.1h-4.5V34z M221.5,34h4.2v20.1
            h-4.2V34z M182.8,68.5h3.9L187,82l7.5-7.5l3,3l-7.5,7.2l9.3,0.3v3.9h-16.5V68.5z M225.7,124h-6v-20.7h6.9c0,0,10.2,0.3,9.9,10.5
            C236.5,123.7,225.7,124,225.7,124z M265.9,119.8l-38.1-36.9l-38.4,36.9l-3.9-4.2l37.8-36.9l-37.8-36.6l4.2-4.2l38.1,36.9l38.1-36.9
            l4.2,4.2L232,78.4l38.1,37.2L265.9,119.8z M272.8,88.9h-4.5v-8.1h-8.4v8.1h-4.2V68.5h4.2v8.1h8.4v-8.1h4.5V88.9z"/>
    </g>
    <g id="lgzpp_x5F_logo">
        <g>
            <path class="st3" d="M250.4,403.2c0.3,0.7,1,0.7,1.3,1c0.3,0,0.7,0,1,0.3s1,0.3,1.3,0.7c0.7,0,1,0.3,1.3,1l0.3,0.3
                c0.7,0.3,1,0.7,1.3,1c0,0.3,0.3,0.3,0.7,0.3c0.7,0.3,1,0.7,1.7,0.7c0.7,0.3,1,0.3,1.7,0.7c0.7,0.3,1.3,1,1.7,1.3
                c1,0.7,1.7,1.7,2.3,2.7c0.3,0.3,0.3,0.7,0.7,1c0.3,0.7,0.7,1.3,1,2.3c0,0.3,0.3,0.7,0.3,1.3c0,0.7,0,1.3,0,2.3s0,2,0,3
                c-0.7,2.3-1.7,4.3-3.3,6c-0.7,0.7-1.3,1.3-2.3,1.7c-1,0.3-2,1-3,1c-2,0-4,0-6,0l0,0c-1-0.3-2-0.3-3-1c-0.3-0.3-1-0.3-1.7-0.7
                c-2.3-1.3-4.3-2.7-5.7-5c-1-1.3-1.7-2.7-2-4.3c-0.3-1-1-1.7-0.7-2.7c0-0.3,0-0.3-0.3-0.7c-0.3-0.3-0.3-1-0.3-1.3s0-0.3-0.3-0.3
                c-0.7,0.3-1,0.3-1.7,0.3s-1.7,0-2.3,0c1,0,1.7,0,2.7,0h0.3v0.3c-0.7,1-1.3,1.7-2.3,2.7c-0.3,0-0.3,0.3-0.7,0
                c-0.3-0.3-0.7-0.3-1-0.7c-0.3-0.3-0.3-0.3-0.3,0s-0.3,0.3-0.7,0.3c-0.3,0-0.7,0-1,0.3c-1,0.3-1.7,0.7-2.7,1c-0.3,0-0.3,0-0.7,0.3
                c-0.7,0.3-1.3,0.3-2,0.3c-0.3,0-0.7,0-1-0.3s-0.3-0.3-0.7-0.3c-1.3,0-2.7-0.3-4-0.3s-2.3-1-3-1.7s-1-1-2-1c-0.7,0-1,0-1.7,0.3
                c-0.7,0-1.7,0-2.3,0.3c-0.3,0-0.7,0.3-0.7,0.3c0,1-0.3,1.7-0.3,2.7s0.3,2,0.3,3.3c0,0.3,0.3,1,1,1s1,0.3,1.7,0.7c0,0,0,0,0.3,0
                c1,0.3,1.7,0.3,2.3,1c0.3,0.3,0.7,0,1,0c0.7-0.3,1-0.3,1.7,0s1.3,0.3,1.7,0c0.3,0,0.3-0.3,0.7-0.3c0.7,0,1-0.3,1.7-0.7
                c1,0,1.7,0,2.3,0.3c0.3,0.3,1,0.3,1.7,0c0.3-0.3,0.7-0.3,1,0c0.7,0.3,1.3,0.3,2,0s1.3-0.3,2-0.3c0.3,0,0.7,0,1-0.3s0.3,0,0.7,0
                c0.3,0.3,1,0.3,1.3,0c0.7-0.3,1.3-0.7,1.7-1.3c0.3-0.3,1-0.3,1.3-0.3c0,0,0,0,0,0.3c-0.3,0.7-0.7,1.3-1,2c-0.3,0.3-0.3,0.7-1,1
                c-0.3,0-0.7,0.3-0.7,0.3c-0.7,1-1.7,1.3-2.7,1.7c-0.3,0-0.3,0-0.3,0.3c-1,1.3-2,1.7-3.7,2c-0.7,0-1.3,0.3-2,0.7s-1.3,0.3-2,0.3
                c-0.3,0-0.3,0-0.7,0.3c-0.7,0.3-1,0.3-1.7,0.3c-0.3,0-1,0-1.3,0.3s-0.3,0.3-0.7,0h-0.3c-0.3,0-0.7,0-0.7,0.3s0,1,0.3,1
                c0.7,0.3,1.3,0.7,2,0.7c1.7,0.7,3,0.7,4.7,1c1,0.3,2.3,0.3,3.3-0.3c0.3,0,0.3-0.3,0.7,0c1,0,2-0.3,3-0.7c0.3,0,0.3-0.3,0.7-0.3
                c0,0,0.3-0.3,0.3,0v0.3c-0.7,0.3-1.7,1-2.3,1.3s-1.3,0.3-2,1l0,0c-1,0-2,1-3.3,0.7c-0.7,0-1.3,0-2,0.3c-1.3,0.7-3,0.3-4.3,0
                c-0.7-0.3-1-0.7-1.7-1s-1.3-0.7-2-1c-2-1-3.7-2.3-5-4c-1-1.3-2-2.3-2.3-4c-0.3-1-1-2.3-1-3.7c0,0,0,0,0-0.3
                c-0.7-1.7-0.3-3.7-0.3-5.3v-0.3c0.3-0.7,0.3-1.7,0.7-2.3c0-0.7,0.3-1.3,0.7-2c0.7-1.3,1.3-3,2-4s1.7-2,2.7-2.7c1-1,2-1.7,3-2.3
                c1.3-1,2.7-1.7,4-2.3c1-0.7,2.3-1,3.3-1.3s1.7-0.3,2.7-1l0,0c1,0,1.7-0.7,2.3-0.7c0.7-0.3,1.3-0.7,2-1c1-0.7,2-1,3-1.7
                c1.3-1,2.7-1.7,3.7-3c0.7-0.7,1-1.3,1.3-2.3c0.7-0.7,0.7-1.7,1-2.7c0-0.3,0-0.3,0-0.7c0-0.3,0-0.7,0-1c0.7-1.7,0.7-3,0-4.7v-0.3
                c-0.3-2-1-3.7-2.3-5.7c-1-1.3-2-2.7-3.3-3.3c-0.7-0.3-1.3-0.7-2-1c-1.7-0.7-3.3-0.7-5-1c-0.3,0-0.3,0-0.7,0
                c-1,0.3-1.7,0.3-2.7,0.7c-1,0.3-2,0.7-3,1.3c-1,0.7-1.7,1-2.3,2c-0.7,0.7-1.7,1.7-2,2.7c-0.3,0.7-0.7,1.3-1,1.7c0,0,0,0.3-0.3,0.3
                c0,0.3-0.3,1-0.3,1.3s-0.3,0.7-0.3,1c0,1.3,0,3,0,4.3v0.3c0.7,1.7,1,3.3,2,4.7c0,0,0.3,0.3,0,0.3s-0.3,0-0.3,0c-1-1-1.7-2-2.3-3.3
                c-0.3-1-1-1.7-1-3c0-0.3,0-0.7-0.3-1c-0.3-1.3-0.3-2.3,0-3.7c0.3-0.7,0.3-1,0.3-1.7c0-0.3,0-0.3,0-0.7c0.7-2.3,2-4.3,4-6
                c-0.3-0.7,0-1.7-0.3-2.3c-1-1.7-2-3.7-3.3-5s-3-2.7-4.7-3.7c-0.7-0.3-1.3-0.3-2-0.7c0,0-0.3,0-0.7,0c-0.7,0-1,0-1.7-0.3
                c0-0.3-0.3-0.3-0.7-0.3c-1.3,0-2.7-0.3-4,0.3c-0.3,0-1,0.3-1.3,0.3s-0.7,0.3-0.7,0.3c0,0.3-0.3,0.7-0.7,1.3
                c-0.3,0.3-1.7,0.7-2.3,0.3c-0.3,0-0.3-0.3-0.3-0.7c0-0.3-0.7-0.3-0.7-0.7s0.3-0.3,0.7-0.7c0.3-0.7,1-1,1.7-1c1-0.3,2-0.3,3-1h0.3
                c1.7,0,3.7,0,5.3,0c0.7,0,1,0.3,1.7,0.7c1.3,0,2.3,1,3.3,1.3c1.7,0.7,3,1.3,4,2.7c1,1,1.7,2.3,2.7,3.3c0.7,0.7,1,1.7,1.3,2.3
                l0.3,0.3c0.3,0.7,0.7,1,1.3,0.7c0.7-0.3,1.7-1,2.7-1c0.7,0,1-0.3,1.7-0.7c1.7,0,3.7,0,5.3,0c0.3,0,0.3,0,0.7,0.3
                c0.7,0.3,1.3,0.3,2.3,0.3c0.3,0,0.3-0.3,0.7-0.3c0.3-1,0.7-2,1-3c0,0,0-0.3,0-0.7c0.7-2.7,0.7-5.7,0.7-8.3c0-0.3,0-0.3-0.3-0.7
                c0-0.3-0.3-0.7-0.3-0.7c0-1-0.3-2-0.7-3c-0.3-1-0.7-2-1.3-3c-0.3-0.7-1-1.3-1.3-2.3c-0.7-0.3-0.7-0.7-1.3-0.3c-0.7,0-1,0-1.3-0.3
                l-0.3-0.3c0-0.3-0.3-0.7-0.3-0.7c0-1,0.7-1.7,1.7-2h0.3c1,1,2,2.3,3,3.3c0.7,1,1.3,2.3,2,3.7c0.3,1,1,2,1,3s0.7,1.7,0.7,2.7
                c0,1.7,0.3,3.3,0,5.3c0,0.7,0,1.7,0,2.3c-0.3,1-0.7,2.3-1,3.3c-0.3,0.7-0.7,1.7-0.7,2.3s0,1,0.7,1.3c0.3,0.3,0.7,0.3,1,0.7
                c1.3,1,2.3,2,3.3,3.7c0.7,1,1.3,2.3,1.7,3.7c0,0.3,0,0.3,0.3,0.7c0,0.3,0.3,0.7,0.3,1c0,1.3,0,2.7,0.3,4c0,0.3,0,0.7,0,1
                c-0.3,1.7-0.3,3.3-0.3,5c0,0.3,0.3,0.7,0.7,0.3c0,0,0.3,0,0.3-0.3c1-1,2-1.7,3-2.3c1-1,2.3-1.3,3.7-2c1-0.3,1.7-0.3,2.7-1
                c0.3-0.3,0.7,0,1.3,0c1.3,0,3-0.3,4.3,0c1,0.3,2,0.7,3,1.3c1,0.7,2,1.3,2.7,2c0.3,0.3,0.7,1,1,1.3c0.7,1,0.7,2,0.7,3
                c0.3,1.3-0.3,2.7,0,4c0,0.3,0,0.3,0,0.7c-0.3,0.7-0.7,1.3-0.7,2.3c-0.3,0.7-0.3,1.3-1,1.7c-1.3,1-2.7,2-4,3c-0.7,0.3-1.3,0.3-2,0
                c-0.3,0-0.7-0.3-1-0.3c-0.3-0.3-0.7-0.3-1.3-0.3c-0.3,0-0.3,0-0.3,0c-1-0.7-2-0.7-2.7-1C250.7,403.2,250.4,403.2,250.4,403.2z
                 M237.7,407.8c0-0.3,0-0.7,0-1c0-0.7,0-0.7-1-0.7h-0.3c-1,0.7-2,0.7-3.3,0.7c-1,0-2.3,0-3.3,0.7c-0.3,0.3-0.7,0-1-0.3
                c0-0.3-0.3-0.3-0.7-0.3c-1.3,0.3-2.7,0.3-4.3,0.3c-0.3,0-0.7,0-0.7-0.7c0-0.3-0.3-0.7-0.7-0.7c-0.3,0-0.7-0.3-1-0.3
                c-0.7-0.3-1.7-0.3-2.3,0c-0.7,0.3-1.7,1-2.3,1.7c-0.7,0.7-1.7,1-2.3,1.7c-0.7,0.7-0.3,2,0.3,2c0.7,0,1,0.3,1.7,0.3
                s1.3,0.7,1.3,1.3c0,0.7,0.3,0.7,0.7,0.7s0.7,0,1,0c0.7,0,1.3,0.3,1.7,0.3c0.7,0,1.7,0,2.3-0.3c0,0,0.3,0,0.7,0c0.7,0,1.3,0,2,0
                c0.3,0,0.3,0,0.7,0c0.7,0.3,1.7,0.3,2.3,0.3h0.3c0.3,0.3,0.7,0.3,1,0.3s0.7,0,1,0.3c0.7,0.7,1.3,0.3,2,0.3c0.3,0,0.3,0,0.7,0
                c1,0.3,2,0.3,2.7-0.3c0.3-0.3,0.7-0.7,0.7-1.3C237.7,410.8,237.7,409.5,237.7,407.8z M235.7,405.2c0.3,0,0.7,0,0.7,0
                c0.7,0,1-0.3,1-1c0-0.3,0-0.7,0-1c0-1.3,0-2.7,0-3.7c0.3-1.3,0.3-2.7,0.3-4c0-0.3,0-0.7-0.3-0.7s-0.7,0-0.7,0.3
                c-0.3,0.3-0.3,0.7-0.7,0.7c-1,1-2,1.7-3,2.3c-0.7,0.3-1,1-1.7,1.3c-1.7,0.7-3,2-4.7,2.7c-0.3,0-0.3,0.7-0.3,1s0.3,0.3,0.3,0.3
                c0.7,0.3,1.7,0.3,2.3,0.7c0,0,0,0,0.3,0c0.7,0,1.3,0,2,0.3c0.3,0.3,1,0.3,1.7,0.3c0.3,0,0.3,0,0.7,0
                C234.4,405.2,235,405.2,235.7,405.2z M249.4,402.8c0-0.3-0.3-0.3-0.3-0.3c-0.7-0.3-1-0.3-1.3-1c-0.7-0.7-1.3-1-2.3-1s-2-0.3-3-0.3
                c-0.3,0-0.7,0-0.7,0.3l0.3,0.3c0.3,0,1,0.3,1.3,0.3s0.7,0,1,0.3c0,0,0,0,0.3,0c0.7,0,1.3,0.3,1.7,0c0.3,0,0.3,0,0.7,0.3
                C247.7,402.2,248.4,402.8,249.4,402.8z"/>
            <path class="st3" d="M268,362.2c0-0.3,0-0.3,0-0.7c-0.7-1-1.3-2-1.7-3c0-0.3-0.3-0.3-0.7-0.3c-1.3,0-2.3,0-3.7,0
                c-0.3,0-0.3,0-0.7,0.3c-0.7,1-1.3,2-2,3.3c0,0.3,0,0.3,0,0.7c0.7,1,1.3,2.3,2,3.3c0,0.3,0.3,0.3,0.3,0.3c1.3,0,2.7,0,3.7,0
                c0.3,0,0.3-0.3,0.7-0.7c0,0.7,0,1,0,1.3c-0.3-0.3-0.3-0.3-0.7-0.3c-1,0-2.3,0-3.3,0c-0.3,0-0.3,0-0.7,0.3c-0.7,1-1.3,2-1.7,3
                c0,0.3,0,0.3,0,0.7c0.3,0.3,0.3,0.7,0.3,1c0.3,0.3,0.3,0.7,0,1.3c-0.3-0.7-0.7-1-1-1.7c0-0.3-0.3-0.3-0.7-0.3c-1.3,0-2.3,0-3.7,0
                c-0.3,0-0.3,0-0.7,0.3c-0.7,1-1.3,2-2,3.3c0,0.3,0,0.3,0,0.7c0.7,1,1.3,2.3,2,3.3c0,0.3,0.3,0.3,0.7,0.3c1.3,0,2.3,0,3.7,0
                c0.3,0,0.3,0,0.7-0.3c0.3-0.7,0.7-1,1-1.7c0.3,0.3,0.3,0.7,0,1l0,0c-0.7,0.7-0.7,1.3,0,2.3c0.7,0.7,1,1.7,1.3,2.3
                c0,0.3,0.3,0.3,0.7,0.3c1.3,0,2.3,0,3.7,0c0.3,0,0.3,0,0.7-0.3c0.3-0.7,0.7-1,1-1.7c0.3-0.3,0.3-0.3,1-0.3c-0.3,0.7-1,1.7-1.3,2.3
                c0,0.3,0,0.3,0,0.7c0.7,1,1.3,2,2,3.3c0,0.3,0.3,0.3,0.3,0.3c1.3,0,2.3,0,3.7,0c0.3,0,0.3,0,0.3-0.3c0.7-1,1.3-2.3,2-3.3
                c0-0.3,0-0.3,0-0.7c-0.3-0.3-0.3-0.7-0.7-1.3c0.7-0.3,0.7-0.3,0.7,0.3c0.3,0.7,0.7,1.3,1.7,1c-0.3,0.3-0.3,0.7-1,0.7
                c0,0-0.3,0-0.3,0.3c-0.7,1-1.3,2.3-2,3.3c0,0.3,0,0.3,0,0.7c0.3,0.3,0.3,0.7,0,1l0,0c-0.3-1-1-1-1.7-1c-1,0-2,0-3,0
                c-0.3,0-0.3,0-0.3,0.3c-0.7,1-1.3,2-1.7,3c0,0.3,0,0.3,0,0.7c0.7,1,1,2,1.7,2.7c0.3,0.3,0.3,1,1,0.7l0,0c-0.3,0-0.7,0.3-0.7,0.3
                c-0.3,0-0.3-0.3-0.3-0.7c-0.7-1-1.3-2-1.7-3c-0.7-0.7-1-0.7-1.3-0.7h-0.3c-0.3,0-0.3-0.3-0.3-0.3c0-0.3,0.3-0.3,0.3-0.3
                c0.7,0,1-0.3,1.3-0.7c0.3-1,1-2,1.7-2.7c0-0.3,0-0.3,0-0.7c-0.7-1-1.3-2-1.7-3c0-0.3-0.3-0.3-0.7-0.3c-1.3,0-2.3,0-3.7,0
                c-0.3,0-0.3,0-0.7,0.3c-0.3,0.7-0.7,1.3-1.3,2c0,0.3-0.3,0.3-0.7,0c-0.3,0,0-0.3,0-0.3c0.3-0.7,1-1.3,1.3-2.3c0-0.3,0-0.3,0-0.7
                c-0.7-1-1.3-2-2-3.3c0-0.3-0.3-0.3-0.3-0.3c-1.3,0-2.7,0-3.7,0c-0.3,0-0.3,0-0.3,0.3c-0.7,1-1.3,2.3-2,3.3c0,0.3,0,0.3,0,0.7
                c0.3,0.7,0.7,1.3,1,2c-0.3,0-0.7,0-1-0.3c-0.3-1-1-1.7-2.3-1.3c-1,0-1.7,0-2.7,0c-0.3,0-0.3,0-0.3,0.3c-0.3,0.3-0.3,0.7-0.7,1
                c0,0.3-0.3,0.3-0.7,0.3c0.3-0.7,0.7-1.3,1-1.7c0-0.3,0-0.3,0-0.3c-0.7-1-1.3-2.3-2-3.3c0-0.3-0.3-0.3-0.7-0.3c-1.3,0-2.3,0-3.7,0
                c-0.3,0-0.3,0-0.3-0.3s0.3-0.3,0.3-0.3c1.3,0,2.3,0,3.7,0c0.3,0,0.3,0,0.7-0.3c0.7-1,1.3-2.3,2-3.3c0-0.3,0-0.3,0-0.7
                c-0.7-1-1.3-2-1.7-3c0-0.3-0.3-0.3-0.3-0.3c-1.3,0-2.7,0-3.7,0c-0.3,0-0.3,0-0.3,0.3c-0.7,1-1,2-1.7,3c-0.3-0.3-0.3-0.7,0-1
                c0.3-0.7,1-1.7,1.3-2.3c0-0.3,0-0.3,0-0.7c-0.3-0.3-0.3-0.7-0.3-0.7c-0.3-0.3-0.3-0.3,0-1c0.3,0.7,0.7,1,1,1.7
                c0,0.3,0.3,0.3,0.3,0.3c1.3,0,2.7,0,3.7,0c0.3,0,0.3,0,0.3-0.3c0.7-1,1.3-2.3,2-3.3c0-0.3,0-0.3,0-0.3c-0.7-1-1.3-2.3-2-3.3
                c0-0.3-0.3-0.3-0.3-0.3c-1.3,0-2.7,0-4,0c-0.3,0-0.3,0.3-0.3,0.3c0-0.3-0.3-1,0-1.3c0,0.3,0.3,0.3,1,0.3c1,0,2.3,0,3.3,0
                c0.3,0,0.3,0,0.7-0.3c0.7-1,1.3-2.3,2-3.3v-0.3c-0.7-1-1.3-2.3-2-3.3c0-0.3-0.3-0.3-0.7-0.3c-1.3,0-2.3,0-3.7,0
                c-0.3,0-0.7,0-0.7,0.3s-0.3,0.7-0.7,1c-0.3-0.3-0.3-0.7,0-1s0.3-0.7,0-1.3c-0.3-0.3-0.7-1-1-1.7c0.3,0,0.7,0,1,0.7
                c-0.3,0-0.3,0.7,0.3,1c0.3,0.3,1,0,1.7,0s1.7,0,2.3,0c0.3,0,0.3,0,0.3-0.3c0.7-1,1.3-2.3,2-3.3c0,0,0.3-0.3,0-0.3
                c0,0-0.3-0.3,0-0.3c0,0,0.3-0.3,0.3,0s0.3,0.3,0.3,0.3c1.3,0,2.3,0,3.7,0c0.3,0,0.3,0,0.3-0.3s0.3-0.3,0.3-0.7
                c0.7-0.7,1-0.7,1.7-0.7c-0.3,0.7-0.7,1-1,1.7c0,0.3,0,0.3,0,0.7c0.7,1,1.3,2,2,3.3c0,0.3,0.3,0.3,0.7,0.3c1.3,0,2.3,0,3.7,0
                c0.3,0,0.3,0,0.7-0.3c0.7-1,1.3-2.3,2-3.3c0-0.3,0-0.3,0-0.7c-0.7-1-1-1.7-1.7-2.7c0,0-0.3-0.3,0-0.3s0.3-0.3,0.7,0
                c0.3,0.7,1,1.3,1.3,2s0.7,0.7,1.3,0.7c1,0,2,0,3.3,0c0.3,0,0.3,0,0.7-0.3c0.7-1,1.3-2,1.7-3c0,0,0-0.3,0.3-0.3s0.3,0.3,0,0.7
                c-0.3,0.3-0.3,0.7-0.7,1c-1,0.7-1.7,1.3-2,2c0,0.3,0,0.3,0,0.7c0.7,1,1.3,2,1.7,3c0,0.3,0.3,0.3,0.7,0.3c1,0,2.3,0,3.3,0
                c-0.3,0.3-0.7,0.7-1,0.7c-0.7,0-1.7,0-2.3,0c-0.3,0-0.3,0-0.3,0.3c-0.7,1-1.3,2.3-2,3.3v0.3c0.7,1,1.3,2.3,2,3.3
                c0,0.3,0.3,0.3,0.7,0.3C268.7,361.8,268.4,362.2,268,362.2L268,362.2z M264,357.5c0.7,0,1.3,0,2,0c0.3,0,0.3,0,0.3-0.3
                c0.7-1,1.3-2.3,2-3.3c0-0.3,0-0.3,0-0.7c-0.7-1-1.3-2.3-2-3.3l-0.3-0.3c-1.3,0-2.7,0-3.7,0c-0.3,0-0.3,0-0.3,0.3
                c-0.7,1-1.3,2.3-2,3.3c0,0.3,0,0.3,0,0.3c0.7,1,1.3,2.3,2,3.3c0,0.3,0.3,0.3,0.7,0.3C262.7,357.5,263.4,357.5,264,357.5z
                 M249.7,374.2c0.7,0,1.3,0,2,0c0.3,0,0.3,0,0.7-0.3c0.7-1,1.3-2,2-3.3c0-0.3,0-0.3,0-0.7c-0.7-1-1.3-2.3-2-3.3
                c0-0.3-0.3-0.3-0.3-0.3c-1.3,0-2.7,0-3.7,0c-0.3,0-0.3,0-0.3,0.3c-0.7,1-1.3,2.3-2,3.3c0,0.3,0,0.3,0,0.7c0.7,1,1.3,2,2,3.3
                c0,0.3,0.3,0.3,0.7,0.3C248.4,374.2,249,374.2,249.7,374.2z M249.7,365.8c0.7,0,1.3,0,2,0c0.3,0,0.3,0,0.3-0.3
                c0.7-1,1.3-2.3,2-3.3v-0.3c-0.7-1-1.3-2.3-2-3.3l-0.3-0.3c-1.3,0-2.7,0-4,0c-0.3,0-0.3,0-0.3,0.3c-0.7,1-1.3,2.3-2,3.3
                c0,0.3,0,0.3,0,0.7c0.7,1,1.3,2.3,2,3.3c0,0.3,0.3,0.3,0.7,0.3C248.7,365.8,249,365.8,249.7,365.8z M256.7,361.8c0.7,0,1.3,0,2,0
                c0.3,0,0.3,0,0.3-0.3c0.7-1,1.3-2.3,2-3.3c0-0.3,0-0.3,0-0.7c-0.7-1-1.3-2.3-2-3.3c0-0.3-0.3-0.3-0.3-0.3c-1.3,0-2.7,0-3.7,0
                c-0.3,0-0.3,0-0.3,0.3c-0.7,1-1.3,2-2,3.3c0,0.3,0,0.3,0,0.7c0.7,1,1.3,2,2,3.3c0,0.3,0.3,0.3,0.3,0.3
                C255.7,361.8,256,361.8,256.7,361.8z M249.7,374.8L249.7,374.8c-0.7,0-1.3,0-2,0c-0.3,0-0.3,0-0.3,0.3c-0.7,1-1.3,2-2,3.3
                c0,0.3,0,0.3,0,0.7c0.7,1,1.3,2.3,2,3.3c0,0.3,0.3,0.3,0.3,0.3c1.3,0,2.7,0,3.7,0c0.3,0,0.3,0,0.3-0.3c0.7-1,1.3-2.3,2-3.3
                c0-0.3,0-0.3,0-0.7c-0.7-1-1-2-1.7-3c-0.3-0.3-0.3-0.7-1-0.7C250.7,374.8,250.4,374.8,249.7,374.8z M249.7,350.2L249.7,350.2
                c-0.7,0-1.3,0-2,0c-0.3,0-0.3,0-0.3,0.3c-0.7,1-1.3,2-1.7,3c0,0.3,0,0.3,0,0.7c0.7,1,1.3,2,2,3.3c0,0.3,0.3,0.3,0.3,0.3
                c1.3,0,2.7,0,3.7,0c0.3,0,0.3,0,0.3-0.3c0.7-1,1.3-2.3,2-3.3c0-0.3,0-0.3,0-0.7c-0.7-1-1.3-2-2-3.3c0-0.3-0.3-0.3-0.3-0.3
                C251,350.2,250.4,350.2,249.7,350.2z M257,362.5L257,362.5c-0.7,0-1.3,0-2,0c-0.3,0-0.3,0-0.3,0.3c-0.7,1-1.3,2.3-2,3.3v0.3
                c0.7,1,1.3,2.3,2,3.3c0,0.3,0.3,0.3,0.3,0.3c1.3,0,2.7,0,3.7,0c0.3,0,0.3,0,0.3-0.3c0.7-1,1.3-2.3,2-3.3c0-0.3,0-0.3,0-0.3
                c-0.7-1-1.3-2-1.7-3c0-0.3-0.3-0.3-0.7-0.3C258,362.5,257.4,362.5,257,362.5z"/>
            <path class="st3" d="M203,435.2c0-0.7,0.7-1.3,1-1.7c0.7-1,0.7-2,0-2.7c-0.3-0.7-1-1.3-1.3-2c0-0.3-0.3-0.3-0.3-0.3
                c-1.3,0-2.7,0-3.7,0c-0.3,0-0.3,0-0.3,0.3c-0.7,1-1.3,2.3-2,3.3c0,0.3,0,0.3,0,0.3c0.7,1,1.3,2.3,2,3.3c0,0.3,0.3,0.3,0.7,0.3
                c1,0,2,0,3.3,0c-0.3,0.3-0.7,0.7-1,0.7c-0.7,0-1.3,0-2.3,0c-0.3,0-0.3,0-0.3,0.3c-0.7,1-1.3,2.3-2,3.3c0,0.3,0,0.3,0,0.3
                c0.7,1,1.3,2.3,2,3.3c0,0.3,0.3,0.3,0.7,0.3c0.7,0,1.3,0,1.7,0h0.3c-0.7,0-1,0-1,0c-0.7,0-1.7,0-2.3,0c-0.3,0-0.3,0-0.3-0.3
                c-0.7-1-1.3-2.3-2-3.3c0-0.3-0.3-0.3-0.3-0.3c-1.3,0-2.7,0-3.7,0c-0.3,0-0.3,0-0.3,0.3c-0.3,0.3-0.3,1-0.7,1.3c0,0,0,0.7-0.3,0.3
                c-0.3-0.3,0-0.3,0-0.7c-0.3-0.3-0.3-0.7,0-1s0-0.7,0-0.7c-0.7-1-1.3-2-1.7-3c0-0.3-0.3-0.3-0.7-0.3c-1.3,0-2.7,0-3.7,0
                c-0.7,0-0.7,0-1-0.7c0,0,0,0,0-0.3s0-0.7,0-0.7c0.3,0,0.3,0.3,0.3,0.3c0.3,0.3,0.3,0.7,1,0.3c1,0,2.3,0,3.3,0c0.3,0,0.3,0,0.7-0.3
                c0.7-1,1.3-2.3,2-3.3c0-0.3,0-0.3,0-0.7c-0.7-0.3-1-0.7-1.3-1.3c-0.3-0.3-0.3-0.7,0-1c0.3,0.7,1,1.3,1.3,2.3
                c0,0.3,0.3,0.3,0.7,0.3c1.3,0,2.3,0,3.7,0c0.3,0,0.3,0,0.3-0.3c0.7-1,1.3-2,1.7-3c0-0.3,0.3-0.3,0-0.7c-0.3-1.3-1-2.3-1.3-3.3
                c0-0.3-0.3-0.3-0.7-0.3c-1,0-2.3,0-3.3,0c-0.3,0-0.3,0-0.3-0.3s0.3-0.3,0.3-0.3c1,0,2.3,0,3.3,0c0.3,0,0.3,0,0.3-0.3
                c0.7-1,1.3-2.3,2-3.3c0-0.3,0-0.3,0-0.7c-0.7-1-1.3-2.3-2-3.3c0-0.3-0.3-0.3-0.3-0.3c-1.3,0-2.7,0-4,0c-0.3,0-0.3,0-0.3,0.3
                c-0.7,1-1.3,2.3-2,3.3c0,0,0,0.3-0.3,0.3s-0.3-0.3,0-0.3c0.7-1,1.3-2.3,2-3.3c0-0.3,0-0.3,0-0.7c-0.3-0.3-0.3-0.7,0-1
                c0.3,1,0.7,1,1.3,1c1,0,2,0,3,0c0.3,0,0.3,0,0.3-0.3c0.7-1,1.3-2.3,2-3.3c0.3-0.3,0-0.7,0-0.7c-0.3-0.7-1-1.7-1.3-2.3
                c0,0-0.3-0.3,0-0.3c0-0.3,0.3-0.3,0.3,0c0.7,1,1,1.7,1.7,2.7c0.3,0.3,0.3,0.3,0.7,0.3c1.3,0,2.3,0,3.7,0c0.3,0,0.3,0,0.7-0.3
                c0.7-1,1-2,1.7-3c0-0.3,0.3-0.3,0-0.7c-0.7-1-1.3-2-1.7-3c-0.3-0.3-0.3-0.3-0.7-0.3c-1.3,0-2.3,0-3.7,0c0-0.3,0.3-0.7,0.7-0.7
                c1,0,2,0,3,0c0.3,0,0.3,0,0.7-0.3c0.7-1,1.3-2,2-3.3c0-0.3,0.3-0.3,0-0.7c-0.7-1-1.3-2.3-2-3.3c0-0.3-0.3-0.3-0.3-0.3
                c-0.7,0-1,0-1.7,0c-0.7,0.3-0.7,0-0.7-0.3s0,0,0.3,0c0.7,0,1.3,0,2,0c0.3,0,0.3,0,0.3-0.3c0.7-1,1.3-2.3,2-3.3c0-0.3,0-0.3,0-0.7
                c-0.7-1-1.3-2-2-3.3c0-0.3-0.3-0.3-0.7-0.3c-1,0-2.3,0-3.3,0c-0.3,0-0.7,0-0.7-0.7c1.3,0,2.7,0,4,0c0.3,0,0.3,0,0.7-0.3
                c0.7-1,1.3-2,2-3.3c0-0.3,0-0.3,0-0.7c-0.7-0.7-1.3-1.7-2-2.7c0-0.3-0.3-0.3-0.7-0.3c-1.3,0-2.3,0-3.7,0c-0.3,0-0.3,0-0.3,0.3
                c-0.7,1-1,2-1.7,2.7c0,0,0,0.3-0.3,0.3s-0.3-0.3,0-0.7c0.7-1,1-1.7,1.7-2.7c0.3-0.3,0.3-0.7,0-1c-1-0.7-1.7-1.7-2-3
                c-0.3,0-0.3-0.3-0.7-0.3c-0.7,0-1.7,0-2.3,0c-0.7,0-1,0-1.3-0.7h0.3c1,0,2,0,3,0c0.3,0,0.7,0,0.7-0.3c0.3-0.7,0.7-1.7,1.7-2
                c0,0,0,0,0.3,0l0,0c-0.3,0.7-0.7,1.7-1.3,2.3c0,0.3-0.3,0.3,0,0.7c0.7,1.3,1.3,2.3,2,3.3c0,0.3,0.3,0.3,0.7,0.3c1.3,0,2.3,0,3.7,0
                c0.3,0,0.3,0,0.7-0.3c0.3-1,0.7-2,1.3-3.3c0-0.3,0-0.3,0-0.7c-0.3-1-1-2-1.7-3c0-0.3-0.3-0.3-0.7-0.3c-1,0-2.3,0-3.3,0h-0.3
                c0-0.3,0-0.7,0.3-0.3c0.7,0,1.7,0,2.3,0c1,0,1.7-0.3,2-1c0-0.3,0-0.7,0.7-0.7c0.3,0,0.3,0,0.3,0.3c-0.3,0-0.7,0.7-1,1
                c0,0.3,0,0.3,0,0.7c0.7,1,1.3,2.3,2,3.3c0,0.3,0.3,0.3,0.3,0.3c1.3,0,2.3,0,3.7,0c0.3,0,0.3,0,0.7-0.3c0.7-1,1.3-2,1.7-3
                c0,0,0-0.3,0.3-0.3s0.3,0.3,0,0.3c-0.3,1-1,2.3-1.7,3.3v0.3c0,0.3,0.3,0.3,0.3,0.7c0.3,0.3,0.3,0.7,0,1c0-0.3-0.3-0.7-0.7-1.3
                l-0.3-0.3c-1.3,0-2.7,0-3.7,0c-0.3,0-0.3,0-0.3,0.3c-0.7,1-1.3,2.3-2,3.3c0,0.3,0,0.3,0,0.7c0.7,1,1.3,2,2,3.3
                c0,0.3,0.3,0.3,0.7,0.3c1,0,2,0,3,0c0.3,0,0.3,0,0.3,0.3s0,0.3-0.3,0.3c-1,0-2.3,0-3.3,0c-0.3,0-0.3,0-0.3,0.3
                c-0.7,1-1.3,2.3-2,3.3c0,0.3,0,0.3,0,0.3c0.7,1,1.3,2.3,2,3.3c0,0.3,0.3,0.3,0.3,0.3c1.3,0,2.7,0,4,0c0.3,0,0.3-0.3,0.7-0.7
                c0.3,0.3,0.3,0.3,0,0.7v0.3c0.7,1,1.3,2.3,2,3.3c0,0,0,0.3,0.3,0.3s0.7,0.3,0.7,0.7l0,0c-0.7,0-1,0.3-1.3,0.7
                c-0.7,0.7-1.3,1.7-2,2.7c0,0.3,0,0.3,0,0.7c0.7,1,1.3,2,2,3.3c0,0.3,0.3,0.3,0.7,0.3c0.3,0,0.3,0,0.7,0c0,0.3-0.3,0.7-0.7,0.7
                c-0.3,0-0.3,0-0.3,0.3s-0.3,0.7-0.3,1c-0.3,0.7-0.7,0.7-1.3,1l0,0c0.3-0.7,0.7-1.3,1.3-2c0-0.3,0.3-0.3,0-0.7c-0.7-1-1.3-2-1.7-3
                c0-0.3-0.3-0.3-0.7-0.3c-1.3,0-2.7,0-3.7,0c-0.3,0-0.3,0-0.3,0.3c-0.7,1-1.3,2-2,3.3c0,0.3,0,0.3,0,0.7c0.7,1,1.3,2,1.7,3
                c0,0.3,0.3,0.3,0.7,0.3c1.3,0,2.3,0,3.7,0c0,0.3-0.3,0.7-1,0.7c-1,0-2,0-3,0c-0.3,0-0.3,0-0.3,0.3c-0.7,1-1.3,2.3-2,3.3
                c0,0.3,0,0.3,0,0.7c0.7,1,1.3,2.3,2,3.3c0,0.3,0,0.3,0,0.7c-0.3,1.3-1.3,2.7-2,3.7c0,0.3,0,0.3,0,0.7c0-0.7,0-0.3,0.3,0
                s0.7,1,0.3,1.7c-0.3-0.7-0.7-1-0.7-1.7c-0.3-1-1-1.3-2-1.3s-2,0-3,0c-0.3,0-0.3,0-0.3,0.3c-0.7,1-1.3,2.3-2,3.3c0,0.3,0,0.3,0,0.7
                c0.7,1,1.3,2.3,2,3.3c0,0.3,0.3,0.3,0.7,0.3c1.3,0,2.3,0,3.7,0c0.3,0,0.3,0,0.7-0.3c0.7-1,1-1.7,1.7-2.7c0,1-0.3,2-1,2.7
                c-0.3,0.3-0.3,0.7,0,1c0.7,1,1,2,1.7,2.7c0.3,0.3,0.3,0.7,1,0.7c0,0,0.3,0,0.7,0c-0.3,0.3-0.3,0.7-1,0.7c-0.3,0-0.3,0-0.3,0.3
                c-0.3,0.7-0.7,1.3-1,1.7C203.7,434.8,203.4,435.2,203,435.2L203,435.2z M207.4,398.8c0.7,0,1.3,0,2,0c0.3,0,0.3,0,0.3-0.3
                c0.7-1,1.3-2.3,2-3.3v-0.3c-0.7-1-1.3-2.3-2-3.3c0-0.3-0.3-0.3-0.3-0.3c-1.3,0-2.7,0-3.7,0c-0.3,0-0.3,0-0.3,0.3
                c-0.7,1-1.3,2.3-2,3.3c0,0.3,0,0.3,0,0.3c0.7,1,1.3,2.3,2,3.3c0,0.3,0.3,0.3,0.3,0.3C206,398.8,206.7,398.8,207.4,398.8z
                 M200.4,419.5c0.7,0,1.3,0,1.7,0c0.3,0,0.3,0,0.7-0.3c0.7-1,1.3-2.3,2-3.3c0-0.3,0-0.3,0-0.7c-0.7-1-1.3-2.3-2-3.3
                c0-0.3-0.3-0.3-0.3-0.3c-1.3,0-2.7,0-3.7,0c-0.3,0-0.3,0-0.3,0.3c-0.7,1-1.3,2.3-2,3.3v0.3c0.7,1,1.3,2.3,2,3.3
                c0,0.3,0.3,0.3,0.7,0.3C199,419.5,199.7,419.5,200.4,419.5z M193.4,432.5c-0.7,0-1.3,0-2,0c-0.3,0-0.3,0-0.3,0.3
                c-0.7,1-1.3,2.3-2,3.3v0.3c0.7,1,1.3,2.3,2,3.3c0,0.3,0.3,0.3,0.3,0.3c1.3,0,2.7,0,3.7,0c0.3,0,0.3,0,0.3-0.3c0.7-1,1.3-2.3,2-3.3
                c0-0.3,0-0.3,0-0.7c-0.7-1-1.3-2-1.7-3c0-0.3-0.3-0.3-0.7-0.3C194.4,432.5,193.7,432.5,193.4,432.5z"/>
            <path class="st3" d="M222.7,375.8c0.7,0,1.3,0,2,0.3l0.3,0.3c0,0,0,0,0.3,0.3c1,0.3,1.7,1.3,2,2.3s0.3,1.7,0.3,2.7
                c0,1.7-0.7,3-2.3,4c-1.7,1.3-3.3,1.3-5.3,0.7c-1.3-0.3-2.3-1.3-3-2.7c-0.3-0.7-0.3-1.7-0.7-2.3c0-0.3,0-0.7,0-1s0-0.3,0-0.7
                c0-1,0.7-2,1.3-2.7C219.4,376.5,221,375.5,222.7,375.8z M220.4,379.8c0,1.7,1.7,3.3,3,3c1.7,0,3-1.3,3-3s-1.7-3.3-3.3-3.3
                C222,376.8,220.4,378.5,220.4,379.8z"/>
            <path class="st3" d="M209.7,357.5c0.3-1,0.7-1.7,1.3-2.7c0.7-1,0.7-1.7,0-2.3c-0.3-0.7-0.7-1.3-1.3-2c0-0.3-0.3-0.3-0.7-0.3
                c-0.3,0-1,0-1.3,0c0.3-0.7,0.3-0.7,1-0.7c0.3,0,0.7,0,1-0.7c0.7-1,1.3-2,1.7-3c0.3-0.3,0.3-0.3,0.7-0.3c0.3,0,1,0,1.3,0
                c1,0,2.3,0,3.3,0c0.3,0,0.3,0.3,0.3,0.3c0.7,1,1,2,1.7,3c0.3,0.3,0.3,0.7,0.7,0.3c1,0,2,0,2.7,0c1,0,1.7,0.3,2,1.3
                c0.7,0.7,1,1.7,1.3,2.7c0.3,0.3,0.3,0.3,0.7,0.3h0.3c0.3,0,0.3,0.3,0.3,0.3c0,0.3-0.3,0-0.3,0c-0.7,0-1,0.3-1.3,0.7
                c-0.3,1-1,1.7-1.7,2.7c0,0.3,0,0.3,0,0.7c0.7,1,1,1.7,1.7,2.7c0.3,0.3,0.3,0.7,0,1c-0.3-0.7-0.7-1-1-1.7c-0.3-0.3-0.3-0.7-0.7-1
                c-0.3-0.7-0.7-0.7-1.3-0.7c-1,0-2,0-3.3,0c-0.3,0-0.3,0-0.7,0.3c-0.3,0.7-1,1.3-1.3,2.3c0,0,0,0.3-0.3,0.3s-0.3-0.3,0-0.7
                c0.3-0.7,1-1.7,1.3-2.3c0-0.3,0-0.3,0-0.7c-0.7-1-1.3-2-2-3.3c0-0.3-0.3-0.3-0.7-0.3c-1.3,0-2.3,0-3.7,0c-0.3,0-0.3,0-0.3,0.3
                c0.3,1,0,2-0.7,3C210.4,357.5,210,357.5,209.7,357.5z M221.4,349.8L221.4,349.8c-0.7,0-1.3,0-1.7,0c-0.3,0-0.3,0-0.7,0.3
                c-0.7,1-1.3,2-2,3.3c0,0.3,0,0.3,0,0.7c0.7,1,1.3,2.3,2,3.3c0,0.3,0.3,0.3,0.7,0.3c1.3,0,2.3,0,3.7,0c0.3,0,0.3,0,0.7-0.3
                c0.7-1,1.3-2.3,2-3.3c0-0.3,0-0.3,0-0.7c-0.7-1-1.3-2-2-3.3c0-0.3-0.3-0.3-0.7-0.3C222.7,349.8,222,349.8,221.4,349.8z
                 M214.4,345.8c-0.7,0-1.3,0-2,0c-0.3,0-0.3,0-0.3,0.3c-0.7,1-1.3,2-2,3c0,0.3,0,0.3,0,0.7c0.7,1,1.3,2.3,2,3.3
                c0,0.3,0.3,0.3,0.3,0.3c1.3,0,2.3,0,3.7,0c0.3,0,0.3,0,0.3-0.3c0.7-1,1.3-2.3,2-3.3c0-0.3,0-0.3,0-0.3c-0.7-1-1.3-2-2-3.3
                c0-0.3-0.3-0.3-0.7-0.3C215.7,345.8,215,345.8,214.4,345.8z"/>
            <path class="st3" d="M231.4,387.8c0.3,0.3,0.7,0.7,1,1c0.3,0.7,0.3,1,0.3,1.7c-0.3,0.7-0.7,1-1,1.7c-1,1-2,1.7-3,2.3
                c-1,0.3-2,1-3.3,1c-0.7,0-1.7,0.3-2.3,0.3c0,0,0,0-0.3,0c0.3-0.3,0.7-0.3,1-0.7c0.7,0,1-0.3,1.7-0.7c0.3-0.3,1-0.3,1.3-0.3
                c1.3-0.3,2.3-1,3-1.7c1.3-1,1.7-2.3,1.7-3.7C231.4,388.5,231.4,388.2,231.4,387.8z"/>
            <path class="st3" d="M225.7,442.5c0.3,1.3,1.3,1.7,2.3,1.7c0.7,0,1.7,0,2.3,0c0.3,0,0.3,0,0.3-0.3c0.7-1,1.3-2,2-3.3
                c0-0.3,0-0.3,0-0.7c-0.3-0.3-0.3-1-0.7-1.3c0,0-0.3-0.3,0-0.3c0,0,0.3,0,0.7,0c0.3,0.3,0.7,1,0.7,1.3s0.3,0.3,0.3,0.3
                c1.3,0,2.7,0,3.7,0c0.3,0,0.3,0,0.3-0.3c0.3-0.3,0.7-1,0.7-1.3c0,0,0-0.3,0.3-0.3h0.3c0.3,0,0,0.3,0,0.3c-0.3,0.7-0.7,1-1,1.7
                c0,0.3,0,0.3,0,0.3s0.3,0.3,0,0.7c0,0-0.3,0.3-0.3,0s-0.3-0.3-0.7-0.3c-1.3,0-2.3,0-3.7,0c-0.3,0-0.3,0-0.7,0.3
                c-0.7,1-1.3,2.3-2,3.3c0,0.3-0.3,0.3-0.3,0.3c-1.7,0-3,0-4.7,0c-0.3,0-0.3,0-0.3-0.3s-0.3-0.7-0.3-0.7
                C225,443.2,225,442.8,225.7,442.5z"/>
            <path class="st0" d="M197.4,371.5L197.4,371.5L197.4,371.5L197.4,371.5L197.4,371.5z"/>
            <path class="st0" d="M210.4,405.8L210.4,405.8L210.4,405.8L210.4,405.8L210.4,405.8z"/>
            <path class="st0" d="M203,435.2L203,435.2L203,435.2L203,435.2L203,435.2z"/>
            <path class="st3" d="M223.4,379.2c0.7,0,1.3,0.7,1.3,1.3c0,0.7-0.7,1.3-1.3,1.3c-0.7,0-1.3-0.7-1.3-1.3S222.7,379.2,223.4,379.2z"
                />
        </g>
    </g>
    <g id="hexagon_x5F_lgzpp" class="hexagon">
        <path class="st5" d="M262.7,357.2c0,0.3,0.7,0.3,1.3,0.3c0.7,0,1.3,0,2,0c0.3,0,0.3,0,0.3-0.3c0.7-1,1.3-2.3,2-3.3
            c0-0.3,0-0.3,0-0.7c-0.7-1-1.3-2.3-2-3.3l-0.3-0.3c-1.3,0-2.7,0-3.7,0c-0.3,0-0.3,0-0.3,0.3c-0.7,1-1.3,2.3-2,3.3
            c0,0.3,0,0.3,0,0.3c0.7,1,1.3,2.3,2,3.3C262,357.2,262.4,357.2,262.7,357.2z"/>
        <path class="st5" d="M254,353.5c-0.7-1-1.3-2-2-3.3c0-0.3-0.3-0.3-0.3-0.3c-0.7,0.3-1.3,0.3-2,0.3s-1.3,0-2,0c-0.3,0-0.3,0-0.3,0.3
            c-0.7,1-1.3,2-1.7,3c0,0.3,0,0.3,0,0.7c0.7,1,1.3,2,2,3.3c0,0.3,0.3,0.3,0.3,0.3c1.3,0,2.7,0,3.7,0c0.3,0,0.3,0,0.3-0.3
            c0.7-1,1.3-2.3,2-3.3C254,353.8,254,353.8,254,353.5z"/>
        <path class="st5" d="M199,419.2c0,0.3,0.7,0.3,1.3,0.3s1.3,0,1.7,0c0.3,0,0.3,0,0.7-0.3c0.7-1,1.3-2.3,2-3.3c0-0.3,0-0.3,0-0.7
            c-0.7-1-1.3-2.3-2-3.3c0-0.3-0.3-0.3-0.3-0.3c-1.3,0-2.7,0-3.7,0c-0.3,0-0.3,0-0.3,0.3c-0.7,1-1.3,2.3-2,3.3v0.3
            c0.7,1,1.3,2.3,2,3.3C198.4,419.2,198.7,419.2,199,419.2z"/>
        <path class="st5" d="M255,370.2c1.3,0,2.7,0,3.7,0c0.3,0,0.3,0,0.3-0.3c0.7-1,1.3-2.3,2-3.3c0-0.3,0-0.3,0-0.3c-0.7-1-1.3-2-1.7-3
            c0-0.3-0.3-0.3-0.7-0.3c-0.7-0.3-1.3-0.3-1.7-0.3c-0.7,0-1.3,0-2,0c-0.3,0-0.3,0-0.3,0.3c-0.7,1-1.3,2.3-2,3.3v0.3
            c0.7,1,1.3,2.3,2,3.3C254.7,370.2,255,370.2,255,370.2z"/>
        <path class="st5" d="M226.7,402.2c-0.3,0-0.3,0.7-0.3,1s0.3,0.3,0.3,0.3c0.7,0.3,1.7,0.3,2.3,0.7c0,0,0,0,0.3,0c0.7,0,1.3,0,2,0.3
            c0.3,0.3,1,0.3,1.7,0.3c0.3,0,0.3,0,0.7,0c0.7,0.3,1.3,0.3,2,0.3c0.3,0,0.7,0,0.7,0c0.7,0,1-0.3,1-1c0-0.3,0-0.7,0-1
            c0-1.3,0-2.7,0-3.7c0.3-1.3,0.3-2.7,0.3-4c0-0.2,0-0.4-0.1-0.5c-1,1.3-2.3,1.9-3.6,2.9c-0.6,0.4-1.2,0.7-1.8,1
            c-0.2,0.2-0.5,0.5-0.8,0.7C229.7,400.2,228.4,401.5,226.7,402.2z"/>
        <path class="st5" d="M212.4,353.5c1.3,0,2.3,0,3.7,0c0.3,0,0.3,0,0.3-0.3c0.7-1,1.3-2.3,2-3.3c0-0.3,0-0.3,0-0.3
            c-0.7-1-1.3-2-2-3.3c0-0.3-0.3-0.3-0.7-0.3c0,0-0.7,0-1.3,0s-1.3,0-2,0c-0.3,0-0.3,0-0.3,0.3c-0.7,1-1.3,2-2,3c0,0.3,0,0.3,0,0.7
            c0.7,1,1.3,2.3,2,3.3C212,353.5,212.4,353.5,212.4,353.5z"/>
        <path class="st5" d="M195,432.5c-0.7,0-1.3,0-1.7,0c-0.7,0-1.3,0-2,0c-0.3,0-0.3,0-0.3,0.3c-0.7,1-1.3,2.3-2,3.3v0.3
            c0.7,1,1.3,2.3,2,3.3c0,0.3,0.3,0.3,0.3,0.3c1.3,0,2.7,0,3.7,0c0.3,0,0.3,0,0.3-0.3c0.7-1,1.3-2.3,2-3.3c0-0.3,0-0.3,0-0.7
            c-0.7-1-1.3-2-1.7-3C195.7,432.5,195.4,432.5,195,432.5z"/>
        <path class="st5" d="M254.4,369.8c-0.7-1-1.3-2.3-2-3.3c0-0.3-0.3-0.3-0.3-0.3c-1.3,0-2.7,0-3.7,0c-0.3,0-0.3,0-0.3,0.3
            c-0.7,1-1.3,2.3-2,3.3c0,0.3,0,0.3,0,0.7c0.7,1,1.3,2,2,3.3c0,0.3,0.3,0.3,0.7,0.3c0.2,0,0.6,0,1,0c0.7,0,1.3,0,2,0
            c0.3,0,0.3,0,0.7-0.3c0-0.1,0.1-0.1,0.1-0.2c0.5-0.9,1-1.6,1.5-2.4c0.1-0.3,0.3-0.5,0.4-0.8C254.4,370.2,254.4,370.2,254.4,369.8z"
            />
        <path class="st5" d="M247.4,365.8c0,0.3,0.3,0.3,0.7,0.3c0.7-0.3,1-0.3,1.7-0.3s1.3,0,2,0c0.3,0,0.3,0,0.3-0.3c0.7-1,1.3-2.3,2-3.3
            v-0.3c-0.7-1-1.3-2.3-2-3.3l-0.3-0.3c-1.2,0-2.4,0-3.7,0v0.3c-0.7,1-1.3,2.3-2,3.3c-0.3,0.3-0.3,0.3-0.7,0.3c0,0.1,0,0.2,0,0.3
            C246,363.5,246.7,364.8,247.4,365.8z"/>
        <path class="st5" d="M236.7,406.2h-0.3c-1,0.7-2,0.7-3.3,0.7c-1,0-2.3,0-3.3,0.7c-0.3,0.3-0.7,0-1-0.3c0-0.3-0.3-0.3-0.7-0.3
            c-1.3,0.3-2.7,0.3-4.3,0.3c-0.3,0-0.7,0-0.7-0.7c0-0.3-0.3-0.7-0.7-0.7s-0.7-0.3-1-0.3c-0.7-0.3-1.7-0.3-2.3,0
            c-0.7,0.3-1.7,1-2.3,1.7c-0.7,0.7-1.7,1-2.3,1.7s-0.3,2,0.3,2c0.7,0,1,0.3,1.7,0.3s1.3,0.7,1.3,1.3s0.3,0.7,0.7,0.7s0.7,0,1,0
            c0.7,0,1.3,0.3,1.7,0.3c0.7,0,1.7,0,2.3-0.3c0,0,0.3,0,0.7,0c0.7,0,1.3,0,2,0c0.3,0,0.3,0,0.7,0c0.7,0.3,1.7,0.3,2.3,0.3h0.3
            c0.3,0.3,0.7,0.3,1,0.3s0.7,0,1,0.3c0.7,0.7,1.3,0.3,2,0.3c0.3,0,0.3,0,0.7,0c1,0.3,2,0.3,2.7-0.3c0.3-0.3,0.7-0.7,0.7-1.3
            c0.3-2,0.3-3.3,0.3-5c0-0.3,0-0.7,0-1C237.7,406.2,237.7,406.2,236.7,406.2z"/>
        <path class="st5" d="M273.4,316h-90.9L137,394.8l45.5,78.8h90.9l45.5-78.8L273.4,316z M208.7,349.5c0.3,0,0.7,0,1-0.7
            c0.7-1,1.3-2,1.7-3c0.3-0.3,0.3-0.3,0.7-0.3c0.3,0,1,0,1.3,0c1,0,2.3,0,3.3,0c0.3,0,0.3,0.3,0.3,0.3c0.7,1,1,2,1.7,3
            c0.3,0.3,0.3,0.7,0.7,0.3c1,0,2,0,2.7,0s1.3,0.2,1.7,0.7c0.2,0,0.3,0.1,0.3,0.3c0.7,1.3,1.3,2.3,2,3.3h0.3c0.3,0,0.3,0.3,0.3,0.3
            c0,0.3-0.3,0-0.3,0c-0.1,0-0.2,0-0.3,0c0,0.1,0,0.2,0,0.3c-0.7,1-1.3,2.3-2,3.3c-0.3,0.3-0.3,0.3-0.7,0.3c0.7,1,1,1.7,1.7,2.7
            c0.3,0.3,0.3,0.7,0,1c-0.3-0.7-0.7-1-1-1.7c-0.3-0.3-0.3-0.7-0.7-1c-0.3-0.7-0.7-0.7-1.3-0.7c-1,0-2,0-3.3,0c-0.3,0-0.3,0-0.7,0.3
            c-0.3,0.7-1,1.3-1.3,2.3c0,0,0,0.3-0.3,0.3s-0.3-0.3,0-0.7c0.3-0.7,1-1.7,1.3-2.3c0-0.3,0-0.3,0-0.7c-0.7-1-1.3-2-2-3.3
            c0-0.3-0.3-0.3-0.7-0.3c-1.3,0-2.3,0-3.5,0c-0.1,0.3-0.2,0.5-0.4,0.8c0.1,0.8-0.2,1.7-0.8,2.5c0,0.3-0.3,0.3-0.7,0.3
            c0.3-1,0.7-1.7,1.3-2.7c0-0.1,0.1-0.1,0.1-0.2c0-0.2-0.1-0.3-0.1-0.5c0-0.3,0-0.3,0.3-0.3h0.1c0.1-0.5-0.1-0.9-0.5-1.3
            c-0.3-0.7-0.7-1.3-1.3-2c0-0.3-0.3-0.3-0.7-0.3c-0.3,0-1,0-1.3,0C208,349.5,208,349.5,208.7,349.5z M206,432.5
            c-0.3,0-0.3,0-0.3,0.3c-0.3,0.7-0.7,1.3-1,1.7c-1,0.3-1.3,0.7-1.7,0.7c0-0.7,0.7-1.3,1-1.7c0.7-1,0.7-2,0-2.7c-0.3-0.7-1-1.3-1.3-2
            c0-0.3-0.3-0.3-0.3-0.3c-1.3,0-2.7,0-3.7,0c-0.3,0-0.3,0-0.3,0.3c-0.7,1-1.3,2.3-2,3.3c0,0.3,0,0.3,0,0.3c0.7,1,1.3,2.3,2,3.3
            c0,0.3,0.3,0.3,0.7,0.3c1,0,2,0,3.3,0c-0.3,0.3-0.7,0.7-1,0.7c-0.7,0-1.3,0-2.3,0c-0.3,0-0.3,0-0.3,0.3c-0.7,1-1.3,2.3-2,3.3
            c0,0.3,0,0.3,0,0.3c0.7,1,1.3,2.3,2,3.3c0,0.3,0.3,0.3,0.7,0.3c-0.5,0-1,0-1.3,0s-0.3,0-0.3-0.3c-0.7-1-1.3-2.3-2-3.3
            c0-0.3-0.3-0.3-0.3-0.3c-1.3,0-2.7,0-3.7,0c-0.3,0-0.3,0-0.3,0.3c-0.3,0.3-0.3,1-0.7,1.3c0,0,0,0.7-0.3,0.3c-0.3-0.3,0-0.3,0-0.7
            c-0.3-0.3-0.3-0.7,0-1s0-0.7,0-0.7c-0.7-1-1.3-2-1.7-3c0-0.3-0.3-0.3-0.7-0.3c-1.3,0-2.7,0-3.7,0c-0.7,0-0.7,0-1-0.7c0,0,0,0,0-0.3
            s0-0.7,0-0.7c0.3,0,0.3,0.3,0.3,0.3c0.3,0.3,0.3,0.7,1,0.3c1,0,2.3,0,3.3,0c0.3,0,0.3,0,0.7-0.3c0.7-1,1.3-2.3,2-3.3
            c0-0.3,0-0.3,0-0.7c-0.7-0.3-1-0.7-1.3-1.3c-0.3-0.3-0.3-0.7,0-1c0.3,0.7,1,1.3,1.3,2.3c0,0.3,0.3,0.3,0.7,0.3c1.3,0,2.3,0,3.7,0
            c0.3,0,0.3,0,0.3-0.3c0.7-1,1.3-2,1.7-3c0-0.3,0.3-0.3,0-0.7c-0.3-1.3-1-2.3-1.3-3.3c0-0.3-0.3-0.3-0.7-0.3c-1,0-2.3,0-3.3,0
            c-0.3,0-0.3,0-0.3-0.3s0.3-0.3,0.3-0.3c1,0,2.3,0,3.3,0c0.3,0,0.3,0,0.3-0.3c0.7-1,1.3-2.3,2-3.3c0-0.3,0-0.3,0-0.7
            c-0.7-1-1.3-2.3-2-3.3c0-0.3-0.3-0.3-0.3-0.3c-1.3,0-2.7,0-4,0c-0.3,0-0.3,0-0.3,0.3c-0.7,1-1.3,2.3-2,3.3c0,0,0,0.3-0.3,0.3
            s-0.3-0.3,0-0.3c0.7-1,1.3-2.3,2-3.3c0-0.3,0-0.3,0-0.7c-0.3-0.3-0.3-0.7,0-1c0.3,1,0.7,1,1.3,1c1,0,2,0,3,0c0.3,0,0.3,0,0.3-0.3
            c0.7-1,1.3-2.3,2-3.3c0.3-0.3,0-0.7,0-0.7c-0.3-0.7-1-1.7-1.3-2.3c0,0-0.3-0.3,0-0.3c0-0.3,0.3-0.3,0.3,0c0.7,1,1,1.7,1.7,2.7
            c0.3,0.3,0.3,0.3,0.7,0.3c1.3,0,2.3,0,3.7,0c0.3,0,0.3,0,0.7-0.3c0.7-1,1-2,1.7-3c0-0.3,0.3-0.3,0-0.7c-0.7-1-1.3-2-1.7-3
            c-0.3-0.3-0.3-0.3-0.7-0.3c-1.3,0-2.3,0-3.7,0c0-0.3,0.3-0.7,0.7-0.7c1,0,2,0,3,0c0.3,0,0.3,0,0.7-0.3c0.7-1,1.3-2,2-3.3
            c0-0.3,0.3-0.3,0-0.7c-0.7-1-1.3-2.3-2-3.3c0-0.3-0.3-0.3-0.3-0.3c-0.7,0-1,0-1.7,0c-0.7,0.3-0.7,0-0.7-0.3s0,0,0.3,0
            c0.7,0,1.3,0,2,0c0.3,0,0.3,0,0.3-0.3c0.7-1,1.3-2.3,2-3.3c0-0.3,0-0.3,0-0.7c-0.7-1-1.3-2-2-3.3c0-0.3-0.3-0.3-0.7-0.3
            c-1,0-2.3,0-3.3,0c-0.3,0-0.7,0-0.7-0.7c1.3,0,2.7,0,4,0c0.3,0,0.3,0,0.7-0.3c0.7-1,1.3-2,2-3.3c0-0.3,0-0.3,0-0.7
            c-0.7-0.7-1.3-1.7-2-2.7c0-0.3-0.3-0.3-0.7-0.3c-1.3,0-2.3,0-3.7,0c-0.3,0-0.3,0-0.3,0.3c-0.7,1-1,2-1.7,2.7c0,0,0,0.3-0.3,0.3
            s-0.3-0.3,0-0.7c0.7-1,1-1.7,1.7-2.7c0.3-0.3,0.3-0.7,0-1c-1-0.7-1.7-1.7-2-3c-0.3,0-0.3-0.3-0.7-0.3c-0.7,0-1.7,0-2.3,0
            c-0.7,0-1,0-1.3-0.7h0.3c1,0,2,0,3,0c0.3,0,0.7,0,0.7-0.3c0.3-0.7,0.7-1.7,1.7-2c0,0,0,0,0.3,0c-0.3,0.7-0.7,1.7-1.3,2.3
            c0,0.3-0.3,0.3,0,0.7c0.7,1.3,1.3,2.3,2,3.3c0,0.3,0.3,0.3,0.7,0.3c1.3,0,2.3,0,3.7,0c0.3,0,0.3,0,0.7-0.3c0.3-1,0.7-2,1.3-3.3
            c0-0.3,0-0.3,0-0.7c-0.3-1-1-2-1.7-3c0-0.3-0.3-0.3-0.7-0.3c-1,0-2.3,0-3.3,0h-0.3c0-0.3,0-0.7,0.3-0.3c0.7,0,1.7,0,2.3,0
            c1,0,1.7-0.3,2-1c0-0.3,0-0.7,0.7-0.7c0.3,0,0.3,0,0.3,0.3c-0.3,0-0.7,0.7-1,1c0,0.3,0,0.3,0,0.7c0.7,1,1.3,2.3,2,3.3
            c0,0.3,0.3,0.3,0.3,0.3c1.3,0,2.3,0,3.7,0c0.3,0,0.3,0,0.7-0.3c0.7-1,1.3-2,1.7-3c0,0,0-0.3,0.3-0.3s0.3,0.3,0,0.3
            c-0.3,1-1,2.3-1.7,3.3v0.3c0,0.3,0.3,0.3,0.3,0.7c0.3,0.3,0.3,0.7,0,1c0-0.3-0.3-0.7-0.7-1.3l-0.3-0.3c-1.3,0-2.7,0-3.7,0
            c-0.3,0-0.3,0-0.3,0.3c-0.7,1-1.3,2.3-2,3.3c0,0.3,0,0.3,0,0.7c0.7,1,1.3,2,2,3.3c0,0.3,0.3,0.3,0.7,0.3c1,0,2,0,3,0
            c0.3,0,0.3,0,0.3,0.3s0,0.3-0.3,0.3c-1,0-2.3,0-3.3,0c-0.3,0-0.3,0-0.3,0.3c-0.7,1-1.3,2.3-2,3.3c0,0.3,0,0.3,0,0.3
            c0.7,1,1.3,2.3,2,3.3c0,0.3,0.3,0.3,0.3,0.3c1.3,0,2.7,0,4,0c0.3,0,0.3-0.3,0.7-0.7c0.3,0.3,0.3,0.3,0,0.7v0.3c0.7,1,1.3,2.3,2,3.3
            c0,0,0,0.3,0.3,0.3s0.7,0.3,0.7,0.7c-0.7,0-1,0.3-1.3,0.7c-0.7,0.7-1.3,1.7-2,2.7c0,0.3,0,0.3,0,0.7c0.7,1,1.3,2,2,3.3
            c0,0.3,0.3,0.3,0.7,0.3c0.3,0,0.3,0,0.7,0c0,0.3-0.3,0.7-0.7,0.7c-0.3,0-0.3,0-0.3,0.3s-0.3,0.7-0.3,1c-0.3,0.7-0.7,0.7-1.3,1
            c0.3-0.7,0.7-1.3,1.3-2c0-0.3,0.3-0.3,0-0.7c-0.7-1-1.3-2-1.7-3c0-0.3-0.3-0.3-0.7-0.3c-1.3,0-2.7,0-3.7,0c-0.3,0-0.3,0-0.3,0.3
            c-0.7,1-1.3,2-2,3.3c0,0.3,0,0.3,0,0.7c0.7,1,1.3,2,1.7,3c0,0.3,0.3,0.3,0.7,0.3c1.3,0,2.3,0,3.7,0c0,0.3-0.3,0.7-1,0.7
            c-1,0-2,0-3,0c-0.3,0-0.3,0-0.3,0.3c-0.7,1-1.3,2.3-2,3.3c0,0.3,0,0.3,0,0.7c0.7,1,1.3,2.3,2,3.3c0,0.3,0,0.3,0,0.7
            c-0.3,1.3-1.3,2.7-2,3.7c0,0.3,0,0.3,0,0.7c0-0.7,0-0.3,0.3,0s0.7,1,0.3,1.7c-0.3-0.7-0.7-1-0.7-1.7c-0.3-1-1-1.3-2-1.3s-2,0-3,0
            c-0.3,0-0.3,0-0.3,0.3c-0.7,1-1.3,2.3-2,3.3c0,0.3,0,0.3,0,0.7c0.7,1,1.3,2.3,2,3.3c0,0.3,0.3,0.3,0.7,0.3c1.3,0,2.3,0,3.7,0
            c0.3,0,0.3,0,0.7-0.3c0.7-1,1-1.7,1.7-2.7c0,1-0.3,2-1,2.7c-0.3,0.3-0.3,0.7,0,1c0.7,1,1,2,1.7,2.7c0.3,0.3,0.3,0.7,1,0.7
            c0,0,0.3,0,0.7,0C206.7,432.2,206.7,432.5,206,432.5z M239,438.2c-0.3,0.7-0.7,1-1,1.7c0,0.3,0,0.3,0,0.3s0.3,0.3,0,0.7
            c0,0-0.3,0.3-0.3,0s-0.3-0.3-0.7-0.3c-1.3,0-2.3,0-3.7,0c-0.3,0-0.3,0-0.7,0.3c-0.7,1-1.3,2.3-2,3.3c0,0.3-0.3,0.3-0.3,0.3
            c-1.7,0-3,0-4.7,0c-0.3,0-0.3,0-0.3-0.3s-0.3-0.7-0.3-0.7c0-0.3,0-0.7,0.7-1c0.3,1.3,1.3,1.7,2.3,1.7c0.7,0,1.7,0,2.3,0
            c0.3,0,0.3,0,0.3-0.3c0.7-1,1.3-2,2-3.3c0-0.3,0-0.3,0-0.7c-0.3-0.3-0.3-1-0.7-1.3c0,0-0.3-0.3,0-0.3c0,0,0.3,0,0.7,0
            c0.3,0.3,0.7,1,0.7,1.3s0.3,0.3,0.3,0.3c1.3,0,2.7,0,3.7,0c0.3,0,0.3,0,0.3-0.3c0.3-0.3,0.7-1,0.7-1.3c0,0,0-0.3,0.3-0.3h0.3
            C239.4,437.8,239,438.2,239,438.2z M276,383.5c0,0-0.3,0-0.3,0.3c-0.7,1-1.3,2.3-2,3.3c0,0.3,0,0.3,0,0.7c0.3,0.3,0.3,0.7,0,1
            c-0.3-1-1-1-1.7-1c-1,0-2,0-3,0c-0.3,0-0.3,0-0.3,0.3c-0.7,1-1.3,2-1.7,3c0,0.3,0,0.3,0,0.7c0.7,1,1,2,1.7,2.7
            c0.3,0.3,0.3,0.8,0.7,0.7c0.1,0,0.2-0.1,0.3-0.1c-0.1,0.1-0.2,0.1-0.3,0.1c-0.2,0.1-0.4,0.3-0.4,0.3c-0.3,0-0.3-0.3-0.3-0.7
            c-0.7-1-1.3-2-1.7-3c-0.7-0.7-1-0.7-1.3-0.7h-0.3c-0.3,0-0.3-0.3-0.3-0.3c0-0.3,0.3-0.3,0.3-0.3c0.7,0,1-0.3,1.3-0.7
            c0.3-1,1-2,1.7-2.7c0-0.3,0-0.3,0-0.7c-0.7-1-1.3-2-1.7-3c0-0.3-0.3-0.3-0.7-0.3c-1.3,0-2.3,0-3.7,0c-0.3,0-0.3,0-0.7,0.3
            c-0.3,0.7-0.7,1.3-1.3,2c0,0.3-0.3,0.3-0.7,0c-0.3,0,0-0.3,0-0.3c0.3-0.7,1-1.3,1.3-2.3c0-0.3,0-0.3,0-0.7c-0.7-1-1.3-2-2-3.3
            c0-0.1,0-0.2-0.1-0.2c-0.2,0.2-0.3,0.2-0.6,0.2c-1.3,0-2.3,0-3.7,0c-0.7,1-1.3,2.3-2,3.3c0,0.3,0,0.3,0,0.7c0.3,0.7,0.7,1.3,1,2
            c-0.3,0-0.7,0-1-0.3c-0.3-1-1-1.7-2.3-1.3c-1,0-1.7,0-2.7,0c-0.3,0-0.3,0-0.3,0.3c-0.3,0.3-0.3,0.7-0.7,1c0,0.3-0.3,0.3-0.7,0.3
            c0.3-0.7,0.7-1.3,1-1.7c0-0.3,0-0.3,0-0.3c-0.7-1-1.3-2.3-2-3.3c0-0.3-0.3-0.3-0.7-0.3c-1.3,0-2.3,0-3.7,0c-0.1,0-0.2,0-0.2,0
            c0.1,0.2,0.2,0.5,0.2,0.7c0,0.3,0,0.3,0.3,0.7c0,0.3,0.3,0.7,0.3,1c0,1.3,0,2.7,0.3,4c0,0.3,0,0.7,0,1c-0.3,1.7-0.3,3.3-0.3,5
            c0,0.3,0.3,0.7,0.7,0.3c0,0,0.3,0,0.3-0.3c1-1,2-1.7,3-2.3c1-1,2.3-1.3,3.7-2c1-0.3,1.7-0.3,2.7-1c0.3-0.3,0.7,0,1.3,0
            c1.3,0,3-0.3,4.3,0c1,0.3,2,0.7,3,1.3s2,1.3,2.7,2c0.3,0.3,0.7,1,1,1.3c0.7,1,0.7,2,0.7,3c0.3,1.3-0.3,2.7,0,4c0,0.3,0,0.3,0,0.7
            c-0.3,0.7-0.7,1.3-0.7,2.3c-0.3,0.7-0.3,1.3-1,1.7c-1.3,1-2.7,2-4,3c-0.7,0.3-1.3,0.3-2,0c-0.3,0-0.7-0.3-1-0.3
            c-0.3-0.3-0.7-0.3-1.3-0.3c-0.3,0-0.3,0-0.3,0c-1-0.7-2-0.7-2.7-1c-1-0.7-1.3-0.7-1.3-0.7c0.3,0.7,1,0.7,1.3,1c0.3,0,0.7,0,1,0.3
            s1,0.3,1.3,0.7c0.7,0,1,0.3,1.3,1l0.3,0.3c0.7,0.3,1,0.7,1.3,1c0,0.3,0.3,0.3,0.7,0.3c0.7,0.3,1,0.7,1.7,0.7c0.7,0.3,1,0.3,1.7,0.7
            c0.7,0.3,1.3,1,1.7,1.3c1,0.7,1.7,1.7,2.3,2.7c0.3,0.3,0.3,0.7,0.7,1c0.3,0.7,0.7,1.3,1,2.3c0,0.3,0.3,0.7,0.3,1.3
            c0,0.7,0,1.3,0,2.3s0,2,0,3c-0.7,2.3-1.7,4.3-3.3,6c-0.7,0.7-1.3,1.3-2.3,1.7s-2,1-3,1c-2,0-4,0-6,0c-1-0.3-2-0.3-3-1
            c-0.3-0.3-1-0.3-1.7-0.7c-2.3-1.3-4.3-2.7-5.7-5c-1-1.3-1.7-2.7-2-4.3c-0.3-1-1-1.7-0.7-2.7c0-0.3,0-0.3-0.3-0.7
            c-0.3-0.3-0.3-1-0.3-1.3s0-0.3-0.3-0.3c-0.7,0.3-1,0.3-1.7,0.3c0.1,0,0.2,0,0.3,0h0.3v0.3c-0.7,1-1.3,1.7-2.3,2.7
            c-0.3,0-0.3,0.3-0.7,0c-0.3-0.3-0.7-0.3-1-0.7c-0.3-0.3-0.3-0.3-0.3,0s-0.3,0.3-0.7,0.3c-0.3,0-0.7,0-1,0.3c-1,0.3-1.7,0.7-2.7,1
            c-0.3,0-0.3,0-0.7,0.3c-0.7,0.3-1.3,0.3-2,0.3c-0.3,0-0.7,0-1-0.3s-0.3-0.3-0.7-0.3c-1.3,0-2.7-0.3-4-0.3s-2.3-1-3-1.7s-1-1-2-1
            c-0.7,0-1,0-1.7,0.3c-0.7,0-1.7,0-2.3,0.3c-0.3,0-0.7,0.3-0.7,0.3c0,1-0.3,1.7-0.3,2.7s0.3,2,0.3,3.3c0,0.3,0.3,1,1,1
            s1,0.3,1.7,0.7c0,0,0,0,0.3,0c1,0.3,1.7,0.3,2.3,1c0.3,0.3,0.7,0,1,0c0.7-0.3,1-0.3,1.7,0s1.3,0.3,1.7,0c0.3,0,0.3-0.3,0.7-0.3
            c0.7,0,1-0.3,1.7-0.7c1,0,1.7,0,2.3,0.3c0.3,0.3,1,0.3,1.7,0c0.3-0.3,0.7-0.3,1,0c0.7,0.3,1.3,0.3,2,0s1.3-0.3,2-0.3
            c0.3,0,0.7,0,1-0.3s0.3,0,0.7,0c0.3,0.3,1,0.3,1.3,0c0.7-0.3,1.3-0.7,1.7-1.3c0.3-0.3,1-0.3,1.3-0.3c0,0,0,0,0,0.3
            c-0.3,0.7-0.7,1.3-1,2c-0.3,0.3-0.3,0.7-1,1c-0.3,0-0.7,0.3-0.7,0.3c-0.7,1-1.7,1.3-2.7,1.7c-0.3,0-0.3,0-0.3,0.3
            c-1,1.3-2,1.7-3.7,2c-0.7,0-1.3,0.3-2,0.7c-0.7,0.3-1.3,0.3-2,0.3c-0.3,0-0.3,0-0.7,0.3c-0.7,0.3-1,0.3-1.7,0.3c-0.3,0-1,0-1.3,0.3
            s-0.3,0.3-0.7,0h-0.3c-0.3,0-0.7,0-0.7,0.3s0,1,0.3,1c0.7,0.3,1.3,0.7,2,0.7c1.7,0.7,3,0.7,4.7,1c1,0.3,2.3,0.3,3.3-0.3
            c0.3,0,0.3-0.3,0.7,0c1,0,2-0.3,3-0.7c0.3,0,0.3-0.3,0.7-0.3c0,0,0.3-0.3,0.3,0v0.3c-0.7,0.3-1.7,1-2.3,1.3s-1.3,0.3-2,1
            c-1,0-2,1-3.3,0.7c-0.7,0-1.3,0-2,0.3c-1.3,0.7-3,0.3-4.3,0c-0.7-0.3-1-0.7-1.7-1s-1.3-0.7-2-1c-2-1-3.7-2.3-5-4
            c-1-1.3-2-2.3-2.3-4c-0.3-1-1-2.3-1-3.7c0,0,0,0,0-0.3c-0.7-1.7-0.3-3.7-0.3-5.3V419c0.3-0.7,0.3-1.7,0.7-2.3c0-0.7,0.3-1.3,0.7-2
            c0.7-1.3,1.3-3,2-4s1.7-2,2.7-2.7c1-1,2-1.7,3-2.3c1.3-1,2.7-1.7,4-2.3c1-0.7,2.3-1,3.3-1.3s1.7-0.3,2.7-1c1,0,1.7-0.7,2.3-0.7
            c0.7-0.3,1.3-0.7,2-1c0.4-0.3,0.8-0.5,1.2-0.7c0.3-0.3,0.5-0.5,0.8-0.7c1-0.7,2-1.3,3-2.3c0.3,0,0.3-0.3,0.7-0.7
            c0-0.3,0.3-0.3,0.7-0.3c0.1,0,0.2,0.1,0.2,0.1l0.1-0.1c0.7-0.7,1-1.3,1.3-2.3c0.7-0.7,0.7-1.7,1-2.7c0-0.3,0-0.3,0-0.7
            c0-0.3,0-0.7,0-1c0.7-1.7,0.7-3,0-4.7V383c-0.3-2-1-3.7-2.3-5.7c-1-1.3-2-2.7-3.3-3.3c-0.7-0.3-1.3-0.7-2-1c-1.7-0.7-3.3-0.7-5-1
            c-0.3,0-0.3,0-0.7,0c-1,0.3-1.7,0.3-2.7,0.7s-2,0.7-3,1.3c-1,0.7-1.7,1-2.3,2c-0.3,0.3-0.6,0.6-0.9,1c1.6-0.7,3.3-1.6,4.9-1.3
            c0.7,0,1.3,0,2,0.3l0.3,0.3c0,0,0,0,0.3,0.3c1,0.3,1.7,1.3,2,2.3s0.3,1.7,0.3,2.7c0,1.7-0.7,3-2.3,4c-1.7,1.3-3.3,1.3-5.3,0.7
            c-1.3-0.3-2.3-1.3-3-2.7c-0.3-0.7-0.3-1.7-0.7-2.3c0-0.3,0-0.7,0-1s0-0.3,0-0.7c0-0.1,0-0.3,0-0.4c-0.2,0.5-0.5,0.9-0.7,1.1
            c0,0,0,0.3-0.3,0.3c0,0.3-0.3,1-0.3,1.3s-0.3,0.7-0.3,1c0,1.3,0,3,0,4.3v0.3c0.7,1.7,1,3.3,2,4.7c0,0,0.3,0.3,0,0.3s-0.3,0-0.3,0
            c-1-1-1.7-2-2.3-3.3c-0.3-1-1-1.7-1-3c0-0.3,0-0.7-0.3-1c-0.3-1.3-0.3-2.3,0-3.7c0.3-0.7,0.3-1,0.3-1.7c0-0.3,0-0.3,0-0.7
            c0.7-2.3,2-4.3,4-6c-0.3-0.7,0-1.7-0.3-2.3c-1-1.7-2-3.7-3.3-5s-3-2.7-4.7-3.7c-0.7-0.3-1.3-0.3-2-0.7c0,0-0.3,0-0.7,0
            c-0.7,0-1,0-1.7-0.3c0-0.3-0.3-0.3-0.7-0.3c-1.3,0-2.7-0.3-4,0.3c-0.3,0-1,0.3-1.3,0.3s-0.7,0.3-0.7,0.3c0,0.3-0.3,0.7-0.7,1.3
            c-0.3,0.3-1.7,0.7-2.3,0.3c-0.3,0-0.3-0.3-0.3-0.7c0-0.3-0.7-0.3-0.7-0.7s0.3-0.3,0.7-0.7c0.3-0.7,1-1,1.7-1c1-0.3,2-0.3,3-1h0.3
            c1.7,0,3.7,0,5.3,0c0.7,0,1,0.3,1.7,0.7c1.3,0,2.3,1,3.3,1.3c1.7,0.7,3,1.3,4,2.7c1,1,1.7,2.3,2.7,3.3c0.7,0.7,1,1.7,1.3,2.3
            l0.3,0.3c0.3,0.7,0.7,1,1.3,0.7c0.7-0.3,1.7-1,2.7-1c0.7,0,1-0.3,1.7-0.7c1.7,0,3.7,0,5.3,0c0.3,0,0.3,0,0.7,0.3
            c0.7,0.3,1.3,0.3,2.3,0.3c0.3,0,0.3-0.3,0.7-0.3c0.3-1,0.7-2,1-3c0,0,0-0.3,0-0.7c0.7-2.7,0.7-5.7,0.7-8.3c0-0.3,0-0.3-0.3-0.7
            c0-0.3-0.3-0.7-0.3-0.7c0-1-0.3-2-0.7-3c-0.3-1-0.7-2-1.3-3c-0.3-0.7-1-1.3-1.3-2.3c-0.7-0.3-0.7-0.7-1.3-0.3c-0.7,0-1,0-1.3-0.3
            l-0.3-0.3c0-0.3-0.3-0.7-0.3-0.7c0-1,0.7-1.7,1.7-2h0.3c1,1,2,2.3,3,3.3c0.7,1,1.3,2.3,2,3.7c0.3,1,1,2,1,3s0.7,1.7,0.7,2.7
            c0,1.7,0.3,3.3,0,5.3c0,0.7,0,1.7,0,2.3c-0.3,1-0.7,2.3-1,3.3c-0.3,0.7-0.7,1.7-0.7,2.3s0,1,0.7,1.3c0.3,0.3,0.7,0.3,1,0.7
            c1.3,1,2.3,2,3.3,3.7c0.5,0.7,1,1.7,1.3,2.6c0-0.3,0.3-0.3,0.3-0.3c1.3,0,2.3,0,3.7,0c0.3,0,0.3,0,0.7-0.3c0.7-1,1.3-2.3,2-3.3
            c0-0.3,0-0.3,0-0.7c-0.7-1-1.3-2-1.7-3c0-0.3-0.3-0.3-0.3-0.3c-1.3,0-2.7,0-3.7,0c-0.3,0-0.3,0-0.3,0.3c-0.7,1-1,2-1.7,3
            c-0.3-0.3-0.3-0.7,0-1c0.3-0.7,1-1.7,1.3-2.3c0-0.3,0-0.3,0-0.7c-0.3-0.3-0.3-0.7-0.3-0.7c-0.3-0.3-0.3-0.3,0-1
            c0.3,0.7,0.7,1,1,1.7c0,0.3,0.3,0.3,0.3,0.3c1.3,0,2.7,0,3.7,0c0.3,0,0.3,0,0.3-0.3c0.7-1,1.3-2.3,2-3.3c0-0.3,0-0.3,0-0.3
            c-0.7-1-1.3-2.3-2-3.3c0-0.3-0.3-0.3-0.3-0.3c-1.3,0-2.7,0-4,0c-0.3,0-0.3,0.3-0.3,0.3c0-0.3-0.3-1,0-1.3c0,0.3,0.3,0.3,1,0.3
            c1,0,2.3,0,3.3,0l0,0c0-0.1,0-0.2,0-0.3c0.7-1,1.3-2.3,2-3.3c0-0.3,0-0.3,0.3-0.3c0.1,0,0.2,0,0.3,0c-0.7-1-1.3-2.3-2-3.3
            c0-0.3-0.3-0.3-0.7-0.3c-1.3,0-2.3,0-3.7,0c-0.3,0-0.7,0-0.7,0.3s-0.3,0.7-0.7,1c-0.3-0.3-0.3-0.7,0-1s0.3-0.7,0-1.3
            c-0.3-0.3-0.7-1-1-1.7c0.3,0,0.7,0,1,0.7c-0.3,0-0.3,0.7,0.3,1c0.3,0.3,1,0,1.7,0s1.7,0,2.3,0c0.3,0,0.3,0,0.3-0.3
            c0.7-1,1.3-2.3,2-3.3c0,0,0.3-0.3,0-0.3c0,0-0.3-0.3,0-0.3c0,0,0.3-0.3,0.3,0s0.3,0.3,0.3,0.3c1.3,0,2.3,0,3.7,0
            c0.3,0,0.3,0,0.3-0.3s0.3-0.3,0.3-0.7c0.7-0.7,1-0.7,1.7-0.7c-0.3,0.7-0.7,1-1,1.7c0,0.3,0,0.3,0,0.7c0.7,1,1.3,2,2,3.3
            c0,0.3,0.3,0.3,0.7,0.3c-0.1,0-0.2,0-0.3,0c-0.3,0-0.3,0-0.3,0.3c-0.7,1-1.3,2-2,3.3c0,0.3,0,0.3,0,0.7c0.7,1,1.3,2,2,3.3
            c0,0.3,0.3,0.3,0.3,0.3c0.7,0,1,0,1.7,0s1.3,0,2,0c0.3,0,0.3,0,0.3-0.3c0.7-1,1.3-2.3,2-3.3c0-0.3,0-0.3,0-0.7
            c-0.7-1-1.3-2.3-2-3.3c0-0.3-0.3-0.3-0.3-0.3c0.1,0,0.2,0,0.3,0c0.3,0,0.3,0,0.7-0.3c0.7-1,1.3-2.3,2-3.3c0-0.3,0-0.3,0-0.7
            c-0.7-1-1-1.7-1.7-2.7c0,0-0.3-0.3,0-0.3s0.3-0.3,0.7,0c0.3,0.7,1,1.3,1.3,2s0.7,0.7,1.3,0.7c1,0,2,0,3.3,0
            c0.3-0.5,0.8-1.1,1.5-1.6c0.3-0.6,0.6-1.1,0.8-1.7c0,0,0-0.3,0.3-0.3s0.3,0.3,0,0.7c-0.3,0.3-0.3,0.7-0.7,1
            c-0.2,0.1-0.3,0.2-0.5,0.4c-0.3,0.4-0.5,0.9-0.8,1.3c-0.3,0.3-0.3,0.3-0.7,0.3c0,0.3,0,0.3,0,0.7c0.7,1,1.3,2,1.7,3
            c0,0.3,0.3,0.3,0.7,0.3c1,0,2.3,0,3.3,0c-0.3,0.3-0.7,0.7-1,0.7c-0.7,0-1.7,0-2.3,0c-0.3,0-0.3,0-0.3,0.3c-0.7,1-1.3,2.3-2,3.3v0.3
            c0.7,1,1.3,2.3,2,3.3c0,0.3,0.3,0.3,0.7,0.3c-0.7,0.3-1,0.7-1.3,0.7c0-0.3,0-0.3,0-0.7c-0.7-1-1.3-2-1.7-3c0-0.3-0.3-0.3-0.7-0.3
            c-1.3,0-2.3,0-3.7,0c-0.3,0-0.3,0-0.7,0.3c-0.7,1-1.3,2-2,3.3c0,0.3,0,0.3,0,0.7c0.7,1,1.3,2.3,2,3.3c0,0.3,0.3,0.3,0.3,0.3
            c1.3,0,2.7,0,3.7,0c0.3,0,0.3-0.3,0.7-0.7c0,0.7,0,1,0,1.3c-0.3-0.3-0.3-0.3-0.7-0.3c-1,0-2.3,0-3.3,0c-0.3,0-0.3,0-0.7,0.3
            c-0.7,1-1.3,2-1.7,3c0,0.3,0,0.3,0,0.7c0.3,0.3,0.3,0.7,0.3,1c0.3,0.3,0.3,0.7,0,1.3c-0.3-0.7-0.7-1-1-1.7c0-0.3-0.3-0.3-0.7-0.3
            c-1.3,0-2.3,0-3.7,0c-0.3,0-0.3,0-0.7,0.3c0,0.1-0.1,0.1-0.1,0.2c-0.5,0.9-1,1.6-1.5,2.4c-0.1,0.3-0.3,0.5-0.4,0.8
            c0,0.3,0,0.3,0,0.7c0.7,1,1.3,2.3,2,3.3c0,0.3,0.3,0.3,0.7,0.3c0-0.3,0-0.3,0.3-0.3c1,0,2.3,0,3.7,0c0,0,0.1,0,0.2,0.1l0.1-0.1
            c0.3-0.7,0.7-1,1-1.7c0.3,0.3,0.3,0.7,0,1c-0.7,0.7-0.7,1.3,0,2.3c0.7,0.7,1,1.7,1.3,2.3c0,0.3,0.3,0.3,0.7,0.3c1.3,0,2.3,0,3.7,0
            c0.3,0,0.3,0,0.7-0.3c0.3-0.7,0.7-1,1-1.7c0.3-0.3,0.3-0.3,1-0.3c-0.3,0.7-1,1.7-1.3,2.3c0,0.3,0,0.3,0,0.7c0.7,1,1.3,2,2,3.3
            c0,0.3,0.3,0.3,0.3,0.3c1.3,0,2.3,0,3.7,0c0.3,0,0.3,0,0.3-0.3c0.7-1,1.3-2.3,2-3.3c0-0.3,0-0.3,0-0.7c-0.3-0.3-0.3-0.7-0.7-1.3
            c0.7-0.3,0.7-0.3,0.7,0.3c0.3,0.7,0.7,1.3,1.7,1C276.7,383.2,276.7,383.5,276,383.5z M222.7,395.8c0.3-0.3,0.7-0.3,1-0.7
            c0.7,0,1-0.3,1.7-0.7c0.3-0.3,1-0.3,1.3-0.3c1.3-0.3,2.3-1,3-1.7c1.3-1,1.7-2.3,1.7-3.7c0-0.3,0-0.7,0-1c0.3,0.3,0.7,0.7,1,1
            c0.3,0.7,0.3,1,0.3,1.7c-0.3,0.7-0.7,1-1,1.7c-1,1-2,1.7-3,2.3c-1,0.3-2,1-3.3,1c-0.7,0-1.7,0.3-2.3,0.3
            C223,395.8,223,395.8,222.7,395.8z"/>
        <path class="st5" d="M223.4,382.8c1.7,0,3-1.3,3-3s-1.7-3.3-3.3-3.3c-1,0.3-2.7,2-2.7,3.3C220.4,381.5,222,383.2,223.4,382.8z
             M223.4,379.2c0.7,0,1.3,0.7,1.3,1.3s-0.7,1.3-1.3,1.3s-1.3-0.7-1.3-1.3S222.7,379.2,223.4,379.2z"/>
        <path class="st5" d="M251,374.8c-0.3,0-0.7,0-1.3,0c-0.7,0-1.3,0-2,0c-0.3,0-0.3,0-0.3,0.3c-0.7,1-1.3,2-2,3.3c0,0.3,0,0.3,0,0.7
            c0.7,1,1.3,2.3,2,3.3c0,0.3,0.3,0.3,0.3,0.3c1.3,0,2.7,0,3.7,0c0.3,0,0.3,0,0.3-0.3c0.7-1,1.3-2.3,2-3.3c0-0.3,0-0.3,0-0.7
            c-0.7-1-1-2-1.7-3C251.7,375.2,251.7,374.8,251,374.8z"/>
        <path class="st5" d="M221.4,349.8c-0.7,0-1.3,0-1.7,0c-0.3,0-0.3,0-0.7,0.3c-0.7,1-1.3,2-2,3.3c0,0.3,0,0.3,0,0.7
            c0.7,1,1.3,2.3,2,3.3c0,0.3,0.3,0.3,0.7,0.3c1.3,0,2.3,0,3.7,0c0-0.3,0-0.3,0-0.7c0.7-1,1.3-1.7,1.7-2.7c0.3-0.3,0.6-0.5,1-0.6
            c0-0.1,0-0.2,0-0.4c-0.3,0-0.3,0-0.7-0.3c-0.3-1-0.7-2-1.3-2.7c-0.1-0.3-0.2-0.5-0.3-0.6c-0.1,0-0.2,0-0.3,0
            C222.7,349.8,222,349.8,221.4,349.8z"/>
        <path class="st5" d="M243.4,401.2c0.3,0,0.7,0,1,0.3c0,0,0,0,0.3,0c0.7,0,1.3,0.3,1.7,0c0.3,0,0.3,0,0.7,0.3c0.7,0.3,1.3,1,2.3,1
            c0-0.3-0.3-0.3-0.3-0.3c-0.7-0.3-1-0.3-1.3-1c-0.7-0.7-1.3-1-2.3-1s-2-0.3-3-0.3c-0.3,0-0.7,0-0.7,0.3l0.3,0.3
            C242.4,400.8,243,401.2,243.4,401.2z"/>
        <path class="st5" d="M205.7,398.8c0.3,0,1,0,1.7,0s1.3,0,2,0c0.3,0,0.3,0,0.3-0.3c0.7-1,1.3-2.3,2-3.3v-0.3c-0.7-1-1.3-2.3-2-3.3
            c0-0.3-0.3-0.3-0.3-0.3c-1.3,0-2.7,0-3.7,0c-0.3,0-0.3,0-0.3,0.3c-0.7,1-1.3,2.3-2,3.3c0,0.3,0,0.3,0,0.3c0.7,1,1.3,2.3,2,3.3
            C205.4,398.8,205.7,398.8,205.7,398.8z"/>
    </g>
    <g id="_x32_2ldh-ek_x5F_logo">
        <path class="st3" d="M50.6,172.9c0-2.4,0.4-4.5,1.2-6.5c0.8-1.9,1.9-3.5,3.2-4.8s2.8-2.5,4.4-3.5c1.6-1.1,3.2-2,4.8-2.9
            c1.6-0.8,3.1-1.7,4.4-2.6c1.3-0.9,2.4-1.9,3.2-3c0.8-1.1,1.2-2.3,1.2-3.7c0-1.3-0.5-2.3-1.4-3.1c-0.9-0.7-2.1-1.1-3.5-1.1
            s-2.5,0.3-3.4,0.9c-0.8,0.6-1.2,1.2-1.2,1.9v2h-11v-5.8c0-3.2,1.7-5.7,5-7.5s7-2.7,11.1-2.7c2.8,0,5.4,0.5,7.9,1.6s4.6,2.8,6.3,5.1
            c1.7,2.3,2.6,5.1,2.6,8.4c0,2.5-0.5,4.8-1.6,6.9c-1.1,2.1-2.4,3.8-4.1,5.2c-1.7,1.3-3.4,2.6-5.3,3.7c-1.9,1.1-3.6,2.1-5.3,2.9
            c-1.7,0.8-3,1.6-4.1,2.4c-1.1,0.8-1.6,1.7-1.6,2.5c0,0.7,0.7,1,2.1,1h9.6c1,0,1.5-0.5,1.5-1.5V166h11v9.5c0,1.7-0.4,3-1.2,3.8
            c-0.8,0.8-2.1,1.2-3.8,1.2H56.2c-2.4,0-3.9-0.6-4.6-1.7C50.9,177.9,50.6,175.9,50.6,172.9z"/>
        <path class="st3" d="M91.4,172.9c0-2.4,0.4-4.5,1.2-6.5c0.8-1.9,1.9-3.5,3.2-4.8c1.3-1.3,2.8-2.5,4.4-3.5c1.6-1.1,3.2-2,4.8-2.9
            c1.6-0.8,3.1-1.7,4.4-2.6c1.3-0.9,2.4-1.9,3.2-3c0.8-1.1,1.2-2.3,1.2-3.7c0-1.3-0.5-2.3-1.4-3.1c-0.9-0.7-2.1-1.1-3.5-1.1
            s-2.5,0.3-3.4,0.9c-0.8,0.6-1.2,1.2-1.2,1.9v2h-11v-5.8c0-3.2,1.7-5.7,5-7.5s7-2.7,11.1-2.7c2.8,0,5.4,0.5,7.9,1.6s4.6,2.8,6.3,5.1
            s2.6,5.1,2.6,8.4c0,2.5-0.5,4.8-1.6,6.9c-1.1,2.1-2.4,3.8-4.1,5.2c-1.7,1.3-3.4,2.6-5.3,3.7c-1.9,1.1-3.6,2.1-5.3,2.9
            c-1.7,0.8-3,1.6-4.1,2.4c-1.1,0.8-1.6,1.7-1.6,2.5c0,0.7,0.7,1,2.1,1h9.6c1,0,1.5-0.5,1.5-1.5V166h11v9.5c0,1.7-0.4,3-1.2,3.8
            c-0.8,0.8-2.1,1.2-3.8,1.2H97c-2.4,0-3.9-0.6-4.6-1.7C91.8,177.9,91.4,175.9,91.4,172.9z"/>
    </g>
    <path id="hexagon_x5F_22ldh" class="st5 hexagon" d="M136.4,79H45.5L0,157.8l45.5,78.8h90.9l45.5-78.8L136.4,79z M87.6,175.6
	c0,1.7-0.4,3-1.2,3.8c-0.8,0.8-2.1,1.2-3.8,1.2H56.2c-2.4,0-3.9-0.6-4.6-1.7c-0.7-1.1-1-3.1-1-6.1c0-2.4,0.4-4.5,1.2-6.5
	c0.8-1.9,1.9-3.5,3.2-4.8s2.8-2.5,4.4-3.5c1.6-1.1,3.2-2,4.8-2.9c1.6-0.8,3.1-1.7,4.4-2.6c1.3-0.9,2.4-1.9,3.2-3
	c0.8-1.1,1.2-2.3,1.2-3.7c0-1.3-0.5-2.3-1.4-3.1c-0.9-0.7-2.1-1.1-3.5-1.1s-2.5,0.3-3.4,0.9c-0.8,0.6-1.2,1.2-1.2,1.9v2h-11v-5.8
	c0-3.2,1.7-5.7,5-7.5s7-2.7,11.1-2.7c2.8,0,5.4,0.5,7.9,1.6s4.6,2.8,6.3,5.1c1.7,2.3,2.6,5.1,2.6,8.4c0,2.5-0.5,4.8-1.6,6.9
	c-1.1,2.1-2.4,3.8-4.1,5.2c-1.7,1.3-3.4,2.6-5.3,3.7c-1.9,1.1-3.6,2.1-5.3,2.9c-1.7,0.8-3,1.6-4.1,2.4c-1.1,0.8-1.6,1.7-1.6,2.5
	c0,0.7,0.7,1,2.1,1h9.6c1,0,1.5-0.5,1.5-1.5v-2.7h11V175.6z M128.4,175.6c0,1.7-0.4,3-1.2,3.8c-0.8,0.8-2.1,1.2-3.8,1.2H97
	c-2.4,0-3.9-0.6-4.6-1.7c-0.7-1.1-1-3.1-1-6.1c0-2.4,0.4-4.5,1.2-6.5c0.8-1.9,1.9-3.5,3.2-4.8c1.3-1.3,2.8-2.5,4.4-3.5
	c1.6-1.1,3.2-2,4.8-2.9c1.6-0.8,3.1-1.7,4.4-2.6c1.3-0.9,2.4-1.9,3.2-3c0.8-1.1,1.2-2.3,1.2-3.7c0-1.3-0.5-2.3-1.4-3.1
	c-0.9-0.7-2.1-1.1-3.5-1.1s-2.5,0.3-3.4,0.9c-0.8,0.6-1.2,1.2-1.2,1.9v2h-11v-5.8c0-3.2,1.7-5.7,5-7.5s7-2.7,11.1-2.7
	c2.8,0,5.4,0.5,7.9,1.6s4.6,2.8,6.3,5.1c1.7,2.3,2.6,5.1,2.6,8.4c0,2.5-0.5,4.8-1.6,6.9c-1.1,2.1-2.4,3.8-4.1,5.2
	c-1.7,1.3-3.4,2.6-5.3,3.7c-1.9,1.1-3.6,2.1-5.3,2.9c-1.7,0.8-3,1.6-4.1,2.4c-1.1,0.8-1.6,1.7-1.6,2.5c0,0.7,0.7,1,2.1,1h9.6
	c1,0,1.5-0.5,1.5-1.5v-2.7h11V175.6z"/>
    <g id="pldw_x5F_logo-watra">
        <path class="st6" d="M49.1,314.2c0-21.1,0-42.2,0-63.3c0-1.5,0.4-1.7,1.8-1.7c27.1,0,54.2,0,81.3,0c1.4,0,1.8,0.3,1.8,1.7
            c0,42.2-0.1,84.4,0,126.6c0,1.4-0.4,1.6-1.7,1.6c-27.2,0-54.3-0.1-81.5,0c-1.7,0-1.7-0.6-1.7-1.9C49.1,356.3,49.1,335.2,49.1,314.2
            z M88.1,338.7c0.6,0.2,1.2,0.4,2,0.8c-1-5-1.8-9.7-5.3-13.4c-0.4-0.7-0.8-1.5-1.3-2.1c-5.5-7.1-11.2-14.1-13.2-23.7
            c-2.9,8.2-2.7,15.8,1.5,23.1c3.8,6.5,9.2,11.4,14.9,16.1C88.1,340.6,88,339.6,88.1,338.7z M90.4,328.9c0.7,2.9,1.3,5.8,2.1,9
            c0.5-0.6,0.8-0.8,1-1.1c0.5-0.7,0.9-1.4,1.3-2.2c2.9-6.3,2.8-12.4-0.6-18.5c0.1-1.5-0.6-2.8-1.4-4.1c-3.3-5.7-6.8-11.3-9.9-17.1
            c-2.8-5.3-5.2-10.9-3.4-17.1c0.1-0.4,0.6-0.9,0-1.5c-3,2.7-4.7,6-5.6,9.8c-1.5,6.5,0.5,12.5,3,18.3C80.7,313,85.9,320.8,90.4,328.9
            z M110.3,320.7c0.4-0.2,0.5-0.5,0.6-0.9c1.1-6.7,0.9-13.3-2.4-19.5c-4-7.5-8.1-15-11.7-22.7c-2.5-5.4-3.3-11.1-2.3-17.1
            c0.2-1.4,0.4-2.9,0.7-4.8c-2.7,2.3-4.7,4.5-6.6,6.9c-3.2,4.1-4.9,8.6-4.4,13.9c0.5,5.1,1.8,10,4.2,14.5c2.5,4.7,5,9.3,7.4,14
            c2.9,5.8,5.2,11.8,5.3,18.4c-0.7,4.1-1.3,8.2-2.9,12.2c-0.2,0.4-0.5,0.9-0.2,1.2c0.5,0.6,1-0.1,1.3-0.3c3.8-2.8,7.1-6,9.1-10.4
            C109.3,324.4,110.3,322.7,110.3,320.7z M95.2,359.7C95.2,359.7,95.3,359.7,95.2,359.7c0-2.6,0.1-5.2,0-7.8
            c-0.1-5.6,1.1-4.9-5.2-4.9c-1.7,0-2.4,0.7-2.4,2.5c0.1,5.7,0.2,11.5-0.1,17.2c-0.1,2.7,0.9,4.4,3,5.7c1,0.7,2,1.6,3.3,0.9
            c1.2-0.7,1.3-2,1.3-3.2C95.3,366.6,95.2,363.2,95.2,359.7z M82.6,346.7c-0.1-1.4-1.8-1.9-2.1-3.3c-0.3-1-0.7-1-1.5-0.5
            c-5.8,3.6-11.7,7-17.3,11c-2,1.4-2,2.3-0.4,4.1c0.7,0.7,1.1,1.6,1.6,2.5c1.1,1.9,2.2,2.1,3.9,0.7c4.9-4.2,9.8-8.4,14.7-12.6
            C82.1,348.1,82.6,347.6,82.6,346.7z M121.9,358.2c0-0.8-0.2-1.5-0.8-2c-5-4.2-9.9-8.4-14.9-12.7c-0.4-0.3-0.8-0.8-1.4-0.6
            c-1.1,0.4-2.3,4.6-1.6,5.5c4.3,5.1,8.7,10.1,13,15.2c0.8,1,1.8,1.1,2.8,0.2C120.6,362.3,121.6,360.4,121.9,358.2z"/>
        <path id="plomien_x5F_duzy_x5F_prawy" class="st3" d="M101.1,323.4c-0.1-6.6-2.4-12.6-5.3-18.4c-2.4-4.7-5-9.3-7.4-14
            c-2.4-4.5-3.7-9.4-4.2-14.5c-0.5-5.3,1.2-9.8,4.4-13.9c1.8-2.4,3.9-4.5,6.6-6.9c-0.3,1.9-0.4,3.4-0.7,4.8c-1,5.9-0.2,11.6,2.3,17.1
            c3.6,7.7,7.7,15.2,11.7,22.7c3.3,6.2,3.5,12.8,2.4,19.5c-0.1,0.4-0.1,0.8-0.6,0.9c-0.5-0.3-0.5-0.7-0.5-1.2c0-7.1-3.8-12-9.2-16
            c-0.1-0.3-0.4-0.5-0.7-0.3c-0.3,0.3,0.2,0.4,0.3,0.6c0.3,0.7,0.7,1.4,0.9,2.1C103.3,311.8,103,317.6,101.1,323.4z"/>
        <path id="plomien_x5F_duzy_x5F_srodek" class="st3" d="M90.4,328.9c-4.5-8.2-9.7-15.9-13.5-24.5c-2.5-5.8-4.5-11.8-3-18.3
            c0.9-3.8,2.6-7.1,5.6-9.8c0.6,0.6,0.1,1.1,0,1.5c-1.7,6.3,0.6,11.8,3.4,17.1c3.1,5.8,6.6,11.4,9.9,17.1c0.7,1.3,1.5,2.5,1.4,4.1
            c-1.6-1.9-3.5-3.3-6.3-3.3C91,317.9,90,323.5,90.4,328.9z"/>
        <path id="plomien_x5F_duzy_x5F_lewy" class="st3" d="M88.1,338.7c-0.1,0.9,0,1.9-1.3,0.8c-5.7-4.7-11.1-9.7-14.9-16.1
            c-4.2-7.3-4.4-14.9-1.5-23.1c1.9,9.6,7.7,16.6,13.2,23.7c0.5,0.7,0.9,1.4,1.3,2.1c-2-1-3.5-3.2-6.3-3.1c1.1,1.7,1.8,3.5,1.7,5.4
            c-0.2,3.4,1.6,5.6,4,7.6C85.5,336.9,86.8,337.8,88.1,338.7z"/>
        <path id="polano_x5F_srodek" class="st3" d="M95.2,359.7c0,3.4,0,6.9,0,10.3c0,1.2-0.1,2.5-1.3,3.2c-1.3,0.7-2.3-0.2-3.3-0.9
            c-2-1.3-3.1-3-3-5.7c0.2-5.7,0.2-11.5,0.1-17.2c0-1.8,0.6-2.5,2.4-2.5c6.3,0,5.1-0.7,5.2,4.9C95.3,354.5,95.3,357.1,95.2,359.7
            C95.3,359.7,95.2,359.7,95.2,359.7z"/>
        <path id="polano_x5F_lewe" class="st3" d="M82.6,346.7c0,0.9-0.5,1.4-1.1,1.8c-4.9,4.2-9.8,8.4-14.7,12.6c-1.6,1.4-2.8,1.2-3.9-0.7
            c-0.5-0.9-0.9-1.7-1.6-2.5c-1.6-1.7-1.6-2.6,0.4-4.1c5.6-4,11.5-7.4,17.3-11c0.8-0.5,1.2-0.5,1.5,0.5
            C80.8,344.7,82.5,345.3,82.6,346.7z"/>
        <path id="polano_x5F_prawe" class="st3" d="M121.9,358.2c-0.3,2.2-1.3,4.1-2.9,5.6c-1,0.9-2,0.8-2.8-0.2c-4.4-5.1-8.7-10.1-13-15.2
            c-0.7-0.9,0.6-5.1,1.6-5.5c0.6-0.2,1,0.3,1.4,0.6c5,4.2,9.9,8.4,14.9,12.7C121.7,356.7,121.9,357.4,121.9,358.2z"/>
        <path id="plomien_x5F_maly_x5F_srodek" class="st3" d="M90.4,328.9c-0.5-5.4,0.6-11-2.5-16.1c2.8,0,4.6,1.4,6.3,3.3
            c3.4,6.1,3.5,12.3,0.6,18.5c-0.4,0.8-0.8,1.5-1.3,2.2c-0.2,0.3-0.5,0.5-1,1.1C91.8,334.7,91.1,331.8,90.4,328.9z"/>
        <path id="plomien_x5F_maly_x5F_lewy" class="st3" d="M88.1,338.7c-1.3-0.9-2.6-1.8-3.9-2.9c-2.4-1.9-4.2-4.2-4-7.6
            c0.1-1.8-0.5-3.6-1.7-5.4c2.7,0,4.2,2.1,6.3,3.1c3.5,3.7,4.3,8.4,5.3,13.4C89.3,339.2,88.7,339,88.1,338.7z"/>
        <path id="plomien_x5F_maly_x5F_prawy" class="st3" d="M109.9,319.5c0-7.1-3.8-12-9.2-16c-0.1-0.3-0.4-0.5-0.7-0.3
            c-0.3,0.3,0.2,0.4,0.3,0.6c0.3,0.7,0.7,1.4,0.9,2.1c2,5.8,1.7,11.7-0.2,17.5c-0.7,4.1-1.3,8.2-2.9,12.2c-0.2,0.4-0.5,0.9-0.2,1.2
            c0.5,0.6,1-0.1,1.3-0.3c3.8-2.8,7.1-6,9.1-10.4c0.8-1.7,1.8-3.4,1.8-5.5C109.8,320.4,109.9,319.9,109.9,319.5z"/>
    </g>
    <path id="hexagon_x5F_pldw" class="st5 hexagon" d="M136.4,237H45.5L0,315.8l45.5,78.8h90.9l45.5-78.8L136.4,237z M81.5,348.5
	c-4.9,4.2-9.8,8.4-14.7,12.6c-1.6,1.4-2.8,1.2-3.9-0.7c-0.5-0.9-0.9-1.7-1.6-2.5c-1.6-1.7-1.6-2.6,0.4-4.1c5.6-4,11.5-7.4,17.3-11
	c0.8-0.5,1.2-0.5,1.5,0.5c0.4,1.3,2.1,1.9,2.1,3.3C82.6,347.6,82.1,348.1,81.5,348.5z M86.8,339.5c-5.7-4.7-11.1-9.7-14.9-16.1
	c-4.2-7.3-4.4-14.9-1.5-23.1c1.9,9.6,7.7,16.6,13.2,23.7c0.5,0.7,0.9,1.4,1.3,2.1c3.5,3.7,4.3,8.4,5.3,13.4c-0.9-0.3-1.5-0.5-2-0.8
	C88,339.6,88.1,340.6,86.8,339.5z M95.2,351.9c0.1,2.6,0,5.2,0,7.8l0,0c0,3.4,0,6.9,0,10.3c0,1.2-0.1,2.5-1.3,3.2
	c-1.3,0.7-2.3-0.2-3.3-0.9c-2-1.3-3.1-3-3-5.7c0.2-5.7,0.2-11.5,0.1-17.2c0-1.8,0.6-2.5,2.4-2.5C96.4,347,95.1,346.3,95.2,351.9z
	 M94.8,334.6c-0.4,0.8-0.8,1.5-1.3,2.2c-0.2,0.3-0.5,0.5-1,1.1c-0.7-3.2-1.4-6.1-2.1-9c-4.5-8.2-9.7-15.9-13.5-24.5
	c-2.5-5.8-4.5-11.8-3-18.3c0.9-3.8,2.6-7.1,5.6-9.8c0.6,0.6,0.1,1.1,0,1.5c-1.7,6.3,0.6,11.8,3.4,17.1c3.1,5.8,6.6,11.4,9.9,17.1
	c0.7,1.3,1.5,2.5,1.4,4.1C97.6,322.2,97.7,328.4,94.8,334.6z M98,336.8c-0.3-0.4,0-0.8,0.2-1.2c1.6-3.9,2.2-8,2.9-12.2
	c-0.1-6.6-2.4-12.6-5.3-18.4c-2.4-4.7-5-9.3-7.4-14c-2.4-4.5-3.7-9.4-4.2-14.5c-0.5-5.3,1.2-9.8,4.4-13.9c1.8-2.4,3.9-4.5,6.6-6.9
	c-0.3,1.9-0.4,3.4-0.7,4.8c-1,5.9-0.2,11.6,2.3,17.1c3.6,7.7,7.7,15.2,11.7,22.7c3.3,6.2,3.5,12.8,2.4,19.5
	c-0.1,0.4-0.1,0.8-0.6,0.9c0,2-1,3.7-1.8,5.5c-2,4.4-5.3,7.6-9.1,10.4C99,336.8,98.6,337.4,98,336.8z M119,363.8
	c-1,0.9-2,0.8-2.8-0.2c-4.4-5.1-8.7-10.1-13-15.2c-0.7-0.9,0.6-5.1,1.6-5.5c0.6-0.2,1,0.3,1.4,0.6c5,4.2,9.9,8.4,14.9,12.7
	c0.7,0.6,0.9,1.2,0.8,2C121.6,360.4,120.6,362.3,119,363.8z"/>
    <line id="line_x5F_pasieka-lgzpp" class="st1" x1="273.6" y1="315.8" x2="182.1" y2="315.8"/>
    <line id="line_x5F_22ldh-pldw" class="st1" x1="136.8" y1="236.7" x2="45.3" y2="236.7"/>
    <line id="line_x5F_pasieka-2ldh" class="st1" x1="182.1" y1="157.8" x2="273.5" y2="157.8"/>
    <line id="line_x5F_2ldh-22ldh" class="st1" x1="182.3" y1="157.8" x2="136.7" y2="78.8"/>
    <line id="line_x5F_pasieka-pldw" class="st1" x1="182.3" y1="315.7" x2="136.6" y2="236.7"/>
    <line id="line_x5F_pasieka-22ldh" class="st1" x1="136.7" y1="236.5" x2="182.2" y2="157.8"/>
    <line id="line_x5F_lgzpp-pldw" class="st1" x1="136.7" y1="394.8" x2="182.2" y2="316"/>
</svg>
