<?xml version="1.0" encoding="utf-8"?>
<!-- Generator: Adobe Illustrator 21.0.2, SVG Export Plug-In . SVG Version: 6.00 Build 0)  -->
<svg version="1.1" xmlns="http://www.w3.org/2000/svg" xmlns:xlink="http://www.w3.org/1999/xlink" x="0px" y="0px"
	 viewBox="0 0 613 398" style="enable-background:new 0 0 613 398;" xml:space="preserve">
<style type="text/css">
	
		.st0{fill:none;stroke:#999999;stroke-width:2;stroke-linecap:round;stroke-linejoin:round;stroke-miterlimit:10;stroke-dasharray:8,4;}
	
		.st1{fill:none;stroke:#084CA1;stroke-width:3;stroke-linecap:round;stroke-linejoin:round;stroke-miterlimit:10;stroke-dasharray:8,4;}
	.st2{fill:#084CA1;}
	.st3{fill:#EFAC1F;}
</style>
<g id="Basic">
	<polyline class="st0" points="-495.1,317.2 -449.6,396 -358.7,396 -313.2,317.2 -358.7,238.5 	"/>
	<polyline class="st0" points="-449.2,80.2 -494.7,1.5 -585.6,1.5 -631.1,80.2 -585.6,159 -494.7,159 	"/>
	<polyline class="st0" points="-585.6,159.5 -631.1,238.2 -585.6,317 -494.7,317 -449.2,238.2 	"/>
	<path class="st0" d="M-494.7,159.5"/>
	<polygon class="st1" points="-358.7,80.5 -449.6,80.5 -495.1,159.2 -449.6,238 -358.7,238 -313.2,159.2 	"/>
	<path class="st0" d="M-448.6,237.5"/>
	<polyline class="st0" points="137.9,317.2 183.4,396 274.3,396 319.8,317.2 274.3,238.5 	"/>
	<polyline class="st0" points="183.8,80.2 138.3,1.5 47.4,1.5 1.9,80.2 47.4,159 138.3,159 	"/>
	<polyline class="st0" points="47.4,159.5 1.9,238.2 47.4,317 138.3,317 183.8,238.2 	"/>
	<path class="st0" d="M138.3,159.5"/>
	<polygon class="st1" points="274.3,80.5 183.4,80.5 137.9,159.2 183.4,238 274.3,238 319.8,159.2 	"/>
	<path class="st0" d="M184.4,237.5"/>
	<polyline class="st0" points="770.9,317.2 816.4,396 907.3,396 952.8,317.2 907.3,238.5 	"/>
	<polyline class="st0" points="816.8,80.2 771.3,1.5 680.4,1.5 634.9,80.2 680.4,159 771.3,159 	"/>
	<polyline class="st0" points="680.4,159.5 634.9,238.2 680.4,317 771.3,317 816.8,238.2 	"/>
	<path class="st0" d="M771.3,159.5"/>
	<polygon class="st1" points="907.3,80.5 816.4,80.5 770.9,159.2 816.4,238 907.3,238 952.8,159.2 	"/>
	<path class="st0" d="M817.4,237.5"/>
</g>
<g id="_x32_ldh-rzy">
	<g>
		<path class="st2" d="M-299.4,126.4v-14.5l-4.5,2.6v-9.1l4.5-2.6V89.1c0-1.1-0.5-1.6-1.6-1.6h-3.1v-8.1h9.4c1.8,0,3,0.4,3.8,1.2
			c0.8,0.8,1.2,2.1,1.2,3.8v13l7.2-4.2v9.1l-7.2,4.2v15.2c0,1.1,0.5,1.6,1.6,1.6h11.4c1.1,0,1.6-0.5,1.6-1.6v-3.1h8.7v7.9
			c0,1.8-0.4,3-1.2,3.8c-0.8,0.8-2.1,1.2-3.8,1.2h-22.9c-1.8,0-3-0.4-3.8-1.2C-299,129.4-299.4,128.2-299.4,126.4z"/>
		<path class="st2" d="M-265.8,105c0-7.5,2.6-13.8,7.7-18.9c5.1-5.1,11.5-7.7,19.1-7.7c7.6,0,14,2.6,19.1,7.7
			c5.1,5.1,7.7,11.4,7.7,18.9c0,7.7-2.6,14.1-7.7,19.4c-5.2,5.2-11.5,7.9-19.1,7.9c-7.6,0-14-2.6-19.1-7.9
			C-263.2,119.1-265.8,112.7-265.8,105z M-255.9,105c0,5.2,1.6,9.5,4.9,13c3.3,3.5,7.3,5.3,12,5.3c4.7,0,8.7-1.8,12-5.3
			c3.3-3.5,4.9-7.9,4.9-13c0-4.9-1.6-9.1-4.9-12.5c-3.3-3.4-7.3-5.1-12-5.1c-4.7,0-8.7,1.7-12,5.1
			C-254.2,95.9-255.9,100.1-255.9,105z M-242.7,75.9l5.6-10h8.9l-7.7,10H-242.7z"/>
		<path class="st2" d="M-203.4,126.4V87.5h-4.8v-8.1h21.2c8.1,0,14.5,2.3,19.3,6.9c4.8,4.6,7.2,10.9,7.2,19c0,8.1-2.4,14.5-7.2,19.1
			c-4.8,4.6-11.2,7-19.3,7h-11.4c-1.8,0-3-0.4-3.8-1.2C-203,129.4-203.4,128.2-203.4,126.4z M-193.8,121.6c0,1.1,0.5,1.6,1.6,1.6
			h4.7c5.3,0,9.4-1.5,12.5-4.6c3.1-3.1,4.6-7.5,4.6-13.3c0-5.7-1.5-10-4.6-13.1c-3.1-3.1-7.2-4.6-12.4-4.6h-6.3V121.6z"/>
		<path class="st2" d="M-157.7,131.4v-6.1l23.4-33.1c0.6-0.9,1.3-1.7,1.9-2.5c0.7-0.8,1.2-1.3,1.5-1.7l0.5-0.5v-0.1
			c-1,0.1-2.3,0.1-4,0.1H-147c-1.1,0-1.6,0.5-1.6,1.6v3.1h-8.7v-7.9c0-1.7,0.4-3,1.2-3.8c0.8-0.8,2.1-1.2,3.8-1.2h33.8v6l-23.4,33.2
			c-0.6,0.9-1.3,1.7-1.9,2.5c-0.7,0.8-1.2,1.3-1.5,1.7l-0.5,0.5v0.1c1-0.1,2.3-0.1,4-0.1h14.2c1.1,0,1.6-0.5,1.6-1.6v-3.1h8.6v7.9
			c0,1.8-0.4,3-1.2,3.8c-0.8,0.8-2.1,1.2-3.8,1.2H-157.7z"/>
		<path class="st2" d="M-109.4,131.4V89.1c0-1.1-0.5-1.6-1.6-1.6h-3.1v-8.1h9.4c1.8,0,3,0.4,3.8,1.2c0.8,0.8,1.2,2.1,1.2,3.8v16.2
			h3.7c2.1,0,3.5-0.6,4.2-1.7l10.5-19.5H-71l-11.7,21.4c-0.5,0.9-1,1.6-1.5,2.3c-0.5,0.6-1,1.1-1.2,1.2l-0.5,0.3v0.1
			c1.2,0.3,2.3,1.5,3.4,3.6l6.6,13.3c0.5,1.1,1.8,1.7,3.7,1.7h1.4v8.1h-5.5c-2.1,0-3.6-0.2-4.5-0.7c-1-0.5-1.9-1.5-2.7-3.1
			l-8.5-17.1c-0.4-0.8-0.9-1.3-1.6-1.5c-0.7-0.2-1.7-0.3-2.9-0.3h-3.1v22.7H-109.4z"/>
		<path class="st2" d="M-69.4,131.4v-8.1h1.2c1.2,0,1.9-0.5,2.3-1.6l15.5-42.3h10l15.4,42.3c0.3,1.1,1.1,1.6,2.3,1.6h1.2v8.1h-5.7
			c-1.8,0-3.1-0.3-4-0.9c-0.9-0.6-1.6-1.7-2.2-3.4l-3.2-9.1h-17.6l-3.2,9.1c-0.6,1.7-1.3,2.8-2.1,3.4c-0.8,0.6-2.1,0.9-4,0.9H-69.4z
			 M-52.2,110.1H-39l-4.5-13l-2.1-7.8h-0.1c-0.7,3.3-1.4,5.9-2,7.8L-52.2,110.1z"/>
		<path class="st2" d="M-300.7,184.8v-31.9h-3.9v-6.7h17.4c6.7,0,11.9,1.9,15.9,5.7c3.9,3.8,5.9,9,5.9,15.6c0,6.7-2,11.9-5.9,15.7
			c-3.9,3.8-9.2,5.7-15.9,5.7h-9.4c-1.4,0-2.5-0.3-3.1-1C-300.4,187.3-300.7,186.3-300.7,184.8z M-292.8,180.9
			c0,0.9,0.4,1.3,1.3,1.3h3.8c4.3,0,7.7-1.3,10.3-3.8c2.5-2.5,3.8-6.2,3.8-10.9c0-4.7-1.3-8.2-3.8-10.8c-2.5-2.5-5.9-3.8-10.2-3.8
			h-5.2V180.9z"/>
		<path class="st2" d="M-257.5,188.9v-36h-3.9v-6.7h19.1c4,0,7.2,1.2,9.6,3.5c2.4,2.3,3.7,5.4,3.7,9.4c0,1.8-0.3,3.4-0.8,4.9
			c-0.6,1.5-1.3,2.6-2.1,3.5c-0.8,0.8-1.6,1.5-2.3,2c-0.7,0.5-1.3,0.8-1.9,0.9v0.1c0.9,0.4,1.6,1.1,2.1,2.2l4.2,8.2
			c0.5,0.9,1.5,1.4,3,1.4h0.8v6.7h-4.2c-1.6,0-2.9-0.2-3.7-0.6c-0.8-0.4-1.6-1.3-2.3-2.6l-5.5-10.8c-0.4-0.8-0.9-1.3-1.5-1.6
			c-0.5-0.3-1.4-0.4-2.6-0.4h-4v15.9H-257.5z M-249.6,166.2h6.3c2,0,3.6-0.6,4.7-1.8c1.1-1.2,1.7-2.8,1.7-5c0-2.1-0.6-3.7-1.7-4.9
			c-1.1-1.2-2.6-1.7-4.5-1.7h-6.4V166.2z"/>
		<path class="st2" d="M-219.7,173.7v-19.5c0-0.9-0.4-1.3-1.3-1.3h-2.6v-6.7h7.7c1.4,0,2.5,0.3,3.1,1c0.6,0.7,1,1.7,1,3.1v23.2
			c0,2.8,0.8,4.9,2.4,6.5c1.6,1.6,3.8,2.3,6.5,2.3c2.7,0,4.9-0.8,6.5-2.3c1.6-1.6,2.4-3.7,2.4-6.6v-23.1c0-1.4,0.3-2.4,1-3.1
			c0.6-0.7,1.7-1,3.1-1h7.7v6.7h-2.6c-0.9,0-1.3,0.4-1.3,1.3v19.5c0,4.7-1.5,8.6-4.6,11.5c-3.1,2.9-7.1,4.4-12.1,4.4
			c-5.1,0-9.1-1.5-12.2-4.4C-218.2,182.3-219.7,178.4-219.7,173.7z"/>
		<path class="st2" d="M-179.4,188.9v-5l19.2-27.2c0.5-0.7,1.1-1.4,1.6-2c0.5-0.6,1-1.1,1.2-1.4l0.4-0.4v-0.1
			c-0.8,0.1-1.9,0.1-3.2,0.1h-10.3c-0.9,0-1.3,0.4-1.3,1.3v2.6h-7.2v-6.5c0-1.4,0.3-2.4,1-3.1c0.6-0.7,1.7-1,3.1-1h27.7v4.9
			l-19.2,27.2c-0.5,0.7-1.1,1.4-1.6,2c-0.5,0.6-1,1.1-1.2,1.4l-0.4,0.4v0.1c0.8-0.1,1.9-0.1,3.2-0.1h11.7c0.9,0,1.3-0.4,1.3-1.3
			v-2.6h7.1v6.5c0,1.4-0.3,2.5-1,3.1c-0.6,0.6-1.7,1-3.1,1H-179.4z M-165.7,142.2v-7h6.6v7H-165.7z"/>
		<path class="st2" d="M-130.3,188.9v-18.6l-10.1-15.9c-0.4-0.6-0.8-1-1.1-1.2c-0.3-0.2-0.8-0.3-1.4-0.3h-1.4v-6.7h4
			c1.4,0,2.5,0.2,3.3,0.6c0.8,0.4,1.5,1.2,2.3,2.5l5.7,9.4l2.6,4.8h0.1c0.7-1.5,1.6-3.1,2.6-4.8l5.6-9.4c0.8-1.3,1.5-2.1,2.3-2.5
			c0.8-0.4,1.9-0.6,3.3-0.6h4v6.7h-1.4c-0.6,0-1.1,0.1-1.4,0.3c-0.3,0.2-0.7,0.6-1.1,1.2l-10.1,15.9v18.6H-130.3z"/>
		<path class="st2" d="M-106.6,188.9v-6.7h2.6c0.9,0,1.3-0.4,1.3-1.3v-34.7h7.1l16.2,23.6c0.5,0.7,1,1.6,1.6,2.6
			c0.6,1,1.1,1.8,1.4,2.5l0.5,1h0.1c-0.3-2.4-0.4-4.4-0.4-6v-19.5c0-1.4,0.3-2.4,1-3.1c0.6-0.7,1.7-1,3.1-1h7.7v6.7h-2.6
			c-0.9,0-1.3,0.4-1.3,1.3v34.7h-7l-16.2-23.6c-0.5-0.7-1-1.6-1.6-2.6c-0.6-1-1.1-1.8-1.4-2.5l-0.5-1h-0.1c0.3,2.4,0.4,4.4,0.4,6
			v19.5c0,1.4-0.3,2.5-1,3.1c-0.6,0.6-1.7,1-3.1,1H-106.6z"/>
		<path class="st2" d="M-61.4,188.9v-6.7h1c1,0,1.6-0.4,1.9-1.3l12.7-34.7h8.2l12.6,34.7c0.3,0.9,0.9,1.3,1.9,1.3h1v6.7h-4.7
			c-1.5,0-2.6-0.2-3.3-0.7c-0.7-0.5-1.3-1.4-1.8-2.8l-2.6-7.5H-49l-2.6,7.5c-0.5,1.4-1.1,2.3-1.7,2.8c-0.7,0.5-1.8,0.7-3.2,0.7
			H-61.4z M-47.2,171.5h10.8l-3.7-10.7l-1.7-6.4h-0.1c-0.6,2.7-1.2,4.8-1.7,6.4L-47.2,171.5z"/>
		<path class="st2" d="M-301.2,236v-31.7c0-0.8-0.4-1.2-1.2-1.2h-2.4V197h7c1.3,0,2.3,0.3,2.9,0.9c0.6,0.6,0.9,1.5,0.9,2.8v12.8
			h17.2v-12.8c0-2.5,1.2-3.7,3.7-3.7h7v6.1h-2.4c-0.8,0-1.2,0.4-1.2,1.2V236h-7.2v-16.4h-17.2V236H-301.2z"/>
		<path class="st2" d="M-263.6,236v-6.1h0.9c0.9,0,1.4-0.4,1.7-1.2l11.6-31.7h7.5l11.5,31.7c0.3,0.8,0.8,1.2,1.7,1.2h0.9v6.1h-4.3
			c-1.4,0-2.4-0.2-3-0.7c-0.6-0.4-1.2-1.3-1.6-2.5l-2.4-6.8h-13.2l-2.4,6.8c-0.4,1.2-1,2.1-1.6,2.5c-0.6,0.4-1.6,0.7-3,0.7H-263.6z
			 M-250.7,220.1h9.9l-3.4-9.8l-1.5-5.8h-0.1c-0.5,2.5-1.1,4.4-1.5,5.8L-250.7,220.1z"/>
		<path class="st2" d="M-221.8,236v-32.9h-3.6V197h17.5c3.6,0,6.6,1.1,8.8,3.2c2.2,2.1,3.4,5,3.4,8.6c0,1.6-0.3,3.1-0.8,4.5
			c-0.5,1.4-1.1,2.4-1.9,3.2c-0.8,0.8-1.5,1.4-2.1,1.8c-0.7,0.4-1.2,0.7-1.7,0.8v0.1c0.8,0.4,1.4,1,1.9,2l3.8,7.5
			c0.4,0.8,1.4,1.3,2.7,1.3h0.7v6.1h-3.8c-1.5,0-2.6-0.2-3.4-0.5c-0.8-0.4-1.4-1.2-2.1-2.4l-5-9.8c-0.4-0.7-0.9-1.2-1.3-1.5
			c-0.5-0.2-1.3-0.4-2.3-0.4h-3.6V236H-221.8z M-214.6,215.3h5.7c1.8,0,3.2-0.5,4.3-1.6c1-1.1,1.5-2.6,1.5-4.5
			c0-1.9-0.5-3.4-1.5-4.4c-1-1.1-2.4-1.6-4.1-1.6h-5.8V215.3z"/>
		<path class="st2" d="M-191,216.2c0-5.6,1.9-10.4,5.7-14.1c3.8-3.8,8.5-5.7,14.1-5.7c1.4,0,2.9,0.2,4.4,0.5
			c1.6,0.3,3.2,0.8,4.8,1.4c1.6,0.6,2.9,1.5,4,2.7c1,1.2,1.6,2.6,1.6,4.1v4.3h-6.5v-2.2c0-1.3-0.9-2.3-2.6-3.1
			c-1.7-0.7-3.5-1.1-5.5-1.1c-3.6,0-6.6,1.2-8.9,3.6c-2.4,2.4-3.5,5.6-3.5,9.6c0,3.8,1.2,7.1,3.7,9.7c2.5,2.7,5.5,4,9,4
			c1.4,0,2.7-0.2,4-0.5c1.3-0.3,2.4-0.8,3.3-1.3c0.9-0.5,1.7-1,2.4-1.5c0.7-0.5,1.2-0.9,1.6-1.3l0.5-0.5l3.8,5.2
			c-0.1,0.2-0.4,0.4-0.7,0.7c-0.3,0.3-1,0.8-2,1.6c-1,0.8-2.1,1.5-3.2,2.1c-1.1,0.6-2.6,1.1-4.4,1.6c-1.8,0.5-3.6,0.7-5.5,0.7
			c-5.9,0-10.7-1.9-14.4-5.8C-189.2,226.9-191,222-191,216.2z"/>
		<path class="st2" d="M-148.3,232.2v-29.2h-3.6V197h23.6c2.5,0,3.7,1.2,3.7,3.7v5.9h-6.5v-2.4c0-0.8-0.4-1.2-1.2-1.2h-8.8v10.2
			h12.6v6.1h-12.6v9.3c0,0.8,0.4,1.2,1.2,1.2h9c0.8,0,1.2-0.4,1.2-1.2v-2.4h6.5v5.9c0,1.3-0.3,2.3-0.9,2.9c-0.6,0.6-1.5,0.9-2.8,0.9
			h-17.7c-1.3,0-2.3-0.3-2.9-0.9C-148,234.5-148.3,233.6-148.3,232.2z"/>
		<path class="st2" d="M-116.6,236v-32.9h-3.6V197h17.5c3.6,0,6.6,1.1,8.8,3.2c2.2,2.1,3.4,5,3.4,8.6c0,1.6-0.3,3.1-0.8,4.5
			c-0.5,1.4-1.1,2.4-1.9,3.2s-1.5,1.4-2.1,1.8s-1.2,0.7-1.7,0.8v0.1c0.8,0.4,1.4,1,1.9,2l3.8,7.5c0.4,0.8,1.4,1.3,2.7,1.3h0.7v6.1
			h-3.8c-1.5,0-2.6-0.2-3.4-0.5c-0.8-0.4-1.4-1.2-2.1-2.4l-5-9.8c-0.4-0.7-0.9-1.2-1.3-1.5c-0.5-0.2-1.3-0.4-2.3-0.4h-3.6V236
			H-116.6z M-109.4,215.3h5.7c1.8,0,3.2-0.5,4.3-1.6c1-1.1,1.5-2.6,1.5-4.5c0-1.9-0.5-3.4-1.5-4.4c-1-1.1-2.4-1.6-4.1-1.6h-5.8
			V215.3z"/>
		<path class="st2" d="M-86.4,236v-4.6l17.5-24.8c0.5-0.7,1-1.3,1.5-1.9c0.5-0.6,0.9-1,1.1-1.3l0.4-0.4V203c-0.8,0.1-1.8,0.1-3,0.1
			h-9.4c-0.8,0-1.2,0.4-1.2,1.2v2.4H-86v-5.9c0-1.3,0.3-2.2,0.9-2.8s1.5-0.9,2.9-0.9H-57v4.5l-17.5,24.9c-0.5,0.7-1,1.3-1.5,1.9
			c-0.5,0.6-0.9,1-1.1,1.3l-0.4,0.4v0.1c0.8-0.1,1.8-0.1,3-0.1h10.7c0.8,0,1.2-0.4,1.2-1.2v-2.4h6.5v5.9c0,1.3-0.3,2.3-0.9,2.9
			c-0.6,0.6-1.5,0.9-2.9,0.9H-86.4z"/>
		<path class="st2" d="M-41.7,236v-17l-9.2-14.6c-0.4-0.5-0.7-0.9-1-1.1c-0.3-0.2-0.7-0.2-1.3-0.2h-1.3V197h3.7c1.3,0,2.3,0.2,3,0.5
			c0.7,0.4,1.4,1.1,2.1,2.3l5.2,8.6l2.4,4.4h0.1c0.7-1.4,1.4-2.9,2.4-4.4l5.1-8.6c0.7-1.2,1.4-1.9,2.1-2.3c0.7-0.4,1.7-0.5,3-0.5
			h3.7v6.1H-23c-0.6,0-1,0.1-1.3,0.2c-0.3,0.2-0.6,0.5-1,1.1l-9.2,14.6v17H-41.7z"/>
	</g>
	<g>
		<path class="st2" d="M-443.7,197v-15.8h7.9v-43.6h-7.9v-15.8h33.5v15.8h-7.9v43.6h7.9V197H-443.7z"/>
		<path class="st2" d="M-398.5,197v-15.8h7.9v-43.6h-7.9v-15.8h33.5v15.8h-7.9v43.6h7.9V197H-398.5z"/>
	</g>
</g>
<g id="_x32_2ldh-ek">
	<g>
		<path class="st2" d="M333.6,126.4v-14.5l-4.5,2.6v-9.1l4.5-2.6V89.1c0-1.1-0.5-1.6-1.6-1.6h-3.1v-8.1h9.4c1.8,0,3,0.4,3.8,1.2
			c0.8,0.8,1.2,2.1,1.2,3.8v13l7.2-4.2v9.1l-7.2,4.2v15.2c0,1.1,0.5,1.6,1.6,1.6h11.4c1.1,0,1.6-0.5,1.6-1.6v-3.1h8.7v7.9
			c0,1.8-0.4,3-1.2,3.8c-0.8,0.8-2,1.2-3.8,1.2h-22.9c-1.8,0-3-0.4-3.8-1.2C334,129.4,333.6,128.2,333.6,126.4z"/>
		<path class="st2" d="M367.2,105c0-7.5,2.6-13.8,7.7-18.9c5.1-5.1,11.5-7.7,19.1-7.7c7.6,0,14,2.6,19.1,7.7
			c5.1,5.1,7.7,11.4,7.7,18.9c0,7.7-2.6,14.1-7.7,19.4c-5.2,5.2-11.5,7.9-19.1,7.9c-7.6,0-14-2.6-19.1-7.9
			C369.8,119.1,367.2,112.7,367.2,105z M377.1,105c0,5.2,1.6,9.5,4.9,13c3.3,3.5,7.3,5.3,12,5.3s8.7-1.8,12-5.3
			c3.3-3.5,4.9-7.9,4.9-13c0-4.9-1.6-9.1-4.9-12.5c-3.3-3.4-7.3-5.1-12-5.1s-8.7,1.7-12,5.1C378.8,95.9,377.1,100.1,377.1,105z
			 M390.3,75.9l5.6-10h8.9l-7.7,10H390.3z"/>
		<path class="st2" d="M429.6,126.4V87.5h-4.8v-8.1H446c8.1,0,14.5,2.3,19.3,6.9c4.8,4.6,7.2,10.9,7.2,19c0,8.1-2.4,14.5-7.2,19.1
			c-4.8,4.6-11.2,7-19.3,7h-11.4c-1.8,0-3-0.4-3.8-1.2C430,129.4,429.6,128.2,429.6,126.4z M439.2,121.6c0,1.1,0.5,1.6,1.6,1.6h4.7
			c5.3,0,9.4-1.5,12.5-4.6c3.1-3.1,4.6-7.5,4.6-13.3c0-5.7-1.5-10-4.6-13.1c-3.1-3.1-7.2-4.6-12.4-4.6h-6.3V121.6z"/>
		<path class="st2" d="M475.3,131.4v-6.1l23.4-33.1c0.6-0.9,1.3-1.7,1.9-2.5c0.7-0.8,1.2-1.3,1.5-1.7l0.5-0.5v-0.1
			c-1,0.1-2.3,0.1-4,0.1H486c-1.1,0-1.6,0.5-1.6,1.6v3.1h-8.7v-7.9c0-1.7,0.4-3,1.2-3.8c0.8-0.8,2.1-1.2,3.8-1.2h33.8v6l-23.4,33.2
			c-0.6,0.9-1.3,1.7-1.9,2.5c-0.7,0.8-1.2,1.3-1.5,1.7l-0.5,0.5v0.1c1-0.1,2.3-0.1,4-0.1h14.2c1.1,0,1.6-0.5,1.6-1.6v-3.1h8.6v7.9
			c0,1.8-0.4,3-1.2,3.8c-0.8,0.8-2.1,1.2-3.8,1.2H475.3z"/>
		<path class="st2" d="M523.6,131.4V89.1c0-1.1-0.5-1.6-1.6-1.6h-3.1v-8.1h9.4c1.8,0,3,0.4,3.8,1.2c0.8,0.8,1.2,2.1,1.2,3.8v16.2
			h3.7c2.1,0,3.5-0.6,4.2-1.7l10.5-19.5H562l-11.7,21.4c-0.5,0.9-1,1.6-1.5,2.3c-0.5,0.6-1,1.1-1.2,1.2l-0.5,0.3v0.1
			c1.2,0.3,2.3,1.5,3.4,3.6l6.6,13.3c0.5,1.1,1.8,1.7,3.7,1.7h1.4v8.1h-5.5c-2.1,0-3.6-0.2-4.5-0.7c-1-0.5-1.9-1.5-2.7-3.1
			l-8.5-17.1c-0.4-0.8-0.9-1.3-1.6-1.5c-0.7-0.2-1.7-0.3-2.9-0.3h-3.1v22.7H523.6z"/>
		<path class="st2" d="M563.6,131.4v-8.1h1.2c1.2,0,1.9-0.5,2.3-1.6l15.5-42.3h10l15.4,42.3c0.3,1.1,1.1,1.6,2.3,1.6h1.2v8.1h-5.7
			c-1.8,0-3.1-0.3-4-0.9c-0.9-0.6-1.6-1.7-2.2-3.4l-3.2-9.1h-17.6l-3.2,9.1c-0.6,1.7-1.3,2.8-2.1,3.4c-0.8,0.6-2.1,0.9-4,0.9H563.6z
			 M580.8,110.1H594l-4.5-13l-2.1-7.8h-0.1c-0.7,3.3-1.4,5.9-2,7.8L580.8,110.1z"/>
		<path class="st2" d="M332.3,184.8v-31.9h-3.9v-6.7h17.4c6.7,0,11.9,1.9,15.9,5.7c3.9,3.8,5.9,9,5.9,15.6c0,6.7-2,11.9-5.9,15.7
			c-3.9,3.8-9.2,5.7-15.9,5.7h-9.4c-1.4,0-2.5-0.3-3.1-1C332.6,187.3,332.3,186.3,332.3,184.8z M340.2,180.9c0,0.9,0.4,1.3,1.3,1.3
			h3.8c4.3,0,7.7-1.3,10.3-3.8c2.5-2.5,3.8-6.2,3.8-10.9c0-4.7-1.3-8.2-3.8-10.8c-2.5-2.5-5.9-3.8-10.2-3.8h-5.2V180.9z"/>
		<path class="st2" d="M375.5,188.9v-36h-3.9v-6.7h19.1c4,0,7.2,1.2,9.6,3.5c2.4,2.3,3.7,5.4,3.7,9.4c0,1.8-0.3,3.4-0.8,4.9
			c-0.6,1.5-1.3,2.6-2.1,3.5c-0.8,0.8-1.6,1.5-2.3,2c-0.7,0.5-1.3,0.8-1.9,0.9v0.1c0.9,0.4,1.6,1.1,2.1,2.2l4.2,8.2
			c0.5,0.9,1.5,1.4,3,1.4h0.8v6.7h-4.2c-1.6,0-2.9-0.2-3.7-0.6c-0.8-0.4-1.6-1.3-2.3-2.6l-5.5-10.8c-0.4-0.8-0.9-1.3-1.5-1.6
			c-0.5-0.3-1.4-0.4-2.6-0.4h-4v15.9H375.5z M383.4,166.2h6.3c2,0,3.6-0.6,4.7-1.8c1.1-1.2,1.7-2.8,1.7-5c0-2.1-0.6-3.7-1.7-4.9
			c-1.1-1.2-2.6-1.7-4.5-1.7h-6.4V166.2z"/>
		<path class="st2" d="M413.3,173.7v-19.5c0-0.9-0.4-1.3-1.3-1.3h-2.6v-6.7h7.7c1.4,0,2.5,0.3,3.1,1s1,1.7,1,3.1v23.2
			c0,2.8,0.8,4.9,2.4,6.5s3.8,2.3,6.5,2.3s4.9-0.8,6.5-2.3s2.4-3.7,2.4-6.6v-23.1c0-1.4,0.3-2.4,1-3.1c0.6-0.7,1.7-1,3.1-1h7.7v6.7
			h-2.6c-0.9,0-1.3,0.4-1.3,1.3v19.5c0,4.7-1.5,8.6-4.6,11.5s-7.1,4.4-12.1,4.4c-5.1,0-9.1-1.5-12.2-4.4S413.3,178.4,413.3,173.7z"
			/>
		<path class="st2" d="M453.6,188.9v-5l19.2-27.2c0.5-0.7,1.1-1.4,1.6-2c0.5-0.6,1-1.1,1.2-1.4l0.4-0.4v-0.1
			c-0.8,0.1-1.9,0.1-3.2,0.1h-10.3c-0.9,0-1.3,0.4-1.3,1.3v2.6H454v-6.5c0-1.4,0.3-2.4,1-3.1c0.6-0.7,1.7-1,3.1-1h27.7v4.9
			l-19.2,27.2c-0.5,0.7-1.1,1.4-1.6,2c-0.5,0.6-1,1.1-1.2,1.4l-0.4,0.4v0.1c0.8-0.1,1.9-0.1,3.2-0.1h11.7c0.9,0,1.3-0.4,1.3-1.3
			v-2.6h7.1v6.5c0,1.4-0.3,2.5-1,3.1c-0.6,0.6-1.7,1-3.1,1H453.6z M467.3,142.2v-7h6.6v7H467.3z"/>
		<path class="st2" d="M502.7,188.9v-18.6l-10.1-15.9c-0.4-0.6-0.8-1-1.1-1.2c-0.3-0.2-0.8-0.3-1.4-0.3h-1.4v-6.7h4
			c1.4,0,2.5,0.2,3.3,0.6c0.8,0.4,1.5,1.2,2.3,2.5l5.7,9.4l2.6,4.8h0.1c0.7-1.5,1.6-3.1,2.6-4.8l5.6-9.4c0.8-1.3,1.5-2.1,2.3-2.5
			c0.8-0.4,1.9-0.6,3.3-0.6h4v6.7h-1.4c-0.6,0-1.1,0.1-1.4,0.3c-0.3,0.2-0.7,0.6-1.1,1.2l-10.1,15.9v18.6H502.7z"/>
		<path class="st2" d="M526.4,188.9v-6.7h2.6c0.9,0,1.3-0.4,1.3-1.3v-34.7h7.1l16.2,23.6c0.5,0.7,1,1.6,1.6,2.6
			c0.6,1,1.1,1.8,1.4,2.5l0.5,1h0.1c-0.3-2.4-0.4-4.4-0.4-6v-19.5c0-1.4,0.3-2.4,1-3.1c0.6-0.7,1.7-1,3.1-1h7.7v6.7h-2.6
			c-0.9,0-1.3,0.4-1.3,1.3v34.7h-7l-16.2-23.6c-0.5-0.7-1-1.6-1.6-2.6c-0.6-1-1.1-1.8-1.4-2.5l-0.5-1h-0.1c0.3,2.4,0.4,4.4,0.4,6
			v19.5c0,1.4-0.3,2.5-1,3.1c-0.6,0.6-1.7,1-3.1,1H526.4z"/>
		<path class="st2" d="M571.6,188.9v-6.7h1c1,0,1.6-0.4,1.9-1.3l12.7-34.7h8.2l12.6,34.7c0.3,0.9,0.9,1.3,1.9,1.3h1v6.7h-4.7
			c-1.5,0-2.6-0.2-3.3-0.7c-0.7-0.5-1.3-1.4-1.8-2.8l-2.6-7.5H584l-2.6,7.5c-0.5,1.4-1.1,2.3-1.7,2.8c-0.7,0.5-1.8,0.7-3.2,0.7
			H571.6z M585.8,171.5h10.8l-3.7-10.7l-1.7-6.4h-0.1c-0.6,2.7-1.2,4.8-1.7,6.4L585.8,171.5z"/>
		<path class="st2" d="M331.8,235.9v-31.7c0-0.8-0.4-1.2-1.2-1.2h-2.4v-6.1h7c1.3,0,2.3,0.3,2.9,0.9s0.9,1.5,0.9,2.8v12.8h17.2
			v-12.8c0-2.5,1.2-3.7,3.7-3.7h7v6.1h-2.4c-0.8,0-1.2,0.4-1.2,1.2v31.7h-7.2v-16.4h-17.2v16.4H331.8z"/>
		<path class="st2" d="M369.3,235.9v-6.1h0.9c0.9,0,1.4-0.4,1.7-1.2l11.6-31.7h7.5l11.5,31.7c0.3,0.8,0.8,1.2,1.7,1.2h0.9v6.1h-4.3
			c-1.4,0-2.4-0.2-3-0.7c-0.6-0.4-1.2-1.3-1.6-2.5l-2.4-6.8h-13.2l-2.4,6.8c-0.4,1.2-1,2.1-1.6,2.5c-0.6,0.4-1.6,0.7-3,0.7H369.3z
			 M382.2,220h9.9l-3.4-9.8l-1.5-5.8h-0.1c-0.5,2.5-1.1,4.4-1.5,5.8L382.2,220z"/>
		<path class="st2" d="M411,235.9V203h-3.6v-6.1h17.5c3.6,0,6.6,1.1,8.8,3.2c2.2,2.1,3.4,5,3.4,8.6c0,1.6-0.3,3.1-0.8,4.5
			c-0.5,1.4-1.1,2.4-1.9,3.2c-0.8,0.8-1.5,1.4-2.1,1.8c-0.7,0.4-1.2,0.7-1.7,0.8v0.1c0.8,0.4,1.4,1,1.9,2l3.8,7.5
			c0.4,0.8,1.4,1.3,2.7,1.3h0.7v6.1h-3.8c-1.5,0-2.6-0.2-3.4-0.5c-0.8-0.4-1.4-1.2-2.1-2.4l-5-9.8c-0.4-0.7-0.9-1.2-1.3-1.5
			c-0.5-0.2-1.3-0.4-2.3-0.4h-3.6v14.6H411z M418.2,215.2h5.7c1.8,0,3.2-0.5,4.3-1.6c1-1.1,1.5-2.6,1.5-4.5c0-1.9-0.5-3.4-1.5-4.4
			c-1-1.1-2.4-1.6-4.1-1.6h-5.8V215.2z"/>
		<path class="st2" d="M441.6,216.1c0-5.6,1.9-10.4,5.7-14.1c3.8-3.8,8.5-5.7,14.1-5.7c1.4,0,2.9,0.2,4.4,0.5
			c1.6,0.3,3.2,0.8,4.8,1.4c1.6,0.6,2.9,1.5,4,2.7c1,1.2,1.6,2.6,1.6,4.1v4.3h-6.5v-2.2c0-1.3-0.9-2.3-2.6-3.1
			c-1.7-0.7-3.5-1.1-5.5-1.1c-3.6,0-6.6,1.2-8.9,3.6c-2.4,2.4-3.5,5.6-3.5,9.6c0,3.8,1.2,7.1,3.7,9.7c2.5,2.7,5.5,4,9,4
			c1.4,0,2.7-0.2,4-0.5c1.3-0.3,2.4-0.8,3.3-1.3c0.9-0.5,1.7-1,2.4-1.5c0.7-0.5,1.2-0.9,1.6-1.3l0.5-0.5l3.8,5.2
			c-0.1,0.2-0.4,0.4-0.7,0.7c-0.3,0.3-1,0.8-2,1.6c-1,0.8-2.1,1.5-3.2,2.1c-1.1,0.6-2.6,1.1-4.4,1.6c-1.8,0.5-3.6,0.7-5.5,0.7
			c-5.9,0-10.7-1.9-14.4-5.8C443.5,226.8,441.6,221.9,441.6,216.1z"/>
		<path class="st2" d="M484.3,232.2V203h-3.6v-6.1h23.6c2.5,0,3.7,1.2,3.7,3.7v5.9h-6.5v-2.4c0-0.8-0.4-1.2-1.2-1.2h-8.8v10.2h12.6
			v6.1h-12.6v9.3c0,0.8,0.4,1.2,1.2,1.2h9c0.8,0,1.2-0.4,1.2-1.2v-2.4h6.5v5.9c0,1.3-0.3,2.3-0.9,2.9c-0.6,0.6-1.5,0.9-2.8,0.9H488
			c-1.3,0-2.3-0.3-2.9-0.9C484.6,234.4,484.3,233.5,484.3,232.2z"/>
		<path class="st2" d="M515.9,235.9V203h-3.6v-6.1h17.5c3.6,0,6.6,1.1,8.8,3.2c2.2,2.1,3.4,5,3.4,8.6c0,1.6-0.3,3.1-0.8,4.5
			c-0.5,1.4-1.1,2.4-1.9,3.2s-1.5,1.4-2.1,1.8s-1.2,0.7-1.7,0.8v0.1c0.8,0.4,1.4,1,1.9,2l3.8,7.5c0.4,0.8,1.4,1.3,2.7,1.3h0.7v6.1
			h-3.8c-1.5,0-2.6-0.2-3.4-0.5c-0.8-0.4-1.4-1.2-2.1-2.4l-5-9.8c-0.4-0.7-0.9-1.2-1.3-1.5c-0.5-0.2-1.3-0.4-2.3-0.4h-3.6v14.6
			H515.9z M523.1,215.2h5.7c1.8,0,3.2-0.5,4.3-1.6c1-1.1,1.5-2.6,1.5-4.5c0-1.9-0.5-3.4-1.5-4.4c-1-1.1-2.4-1.6-4.1-1.6h-5.8V215.2z
			"/>
		<path class="st2" d="M550.5,232.2V203h-3.6v-6.1h23.6c2.5,0,3.7,1.2,3.7,3.7v5.9h-6.5v-2.4c0-0.8-0.4-1.2-1.2-1.2h-8.8v10.2h12.6
			v6.1h-12.6v9.3c0,0.8,0.4,1.2,1.2,1.2h9c0.8,0,1.2-0.4,1.2-1.2v-2.4h6.5v5.9c0,1.3-0.3,2.3-0.9,2.9c-0.6,0.6-1.5,0.9-2.8,0.9
			h-17.7c-1.3,0-2.3-0.3-2.9-0.9C550.8,234.4,550.5,233.5,550.5,232.2z"/>
		<path class="st2" d="M582.1,235.9v-31.7c0-0.8-0.4-1.2-1.2-1.2h-2.4v-6.1h7c1.3,0,2.3,0.3,2.9,0.9c0.6,0.6,0.9,1.5,0.9,2.8v12.1
			h2.7c1.6,0,2.7-0.4,3.1-1.3l7.9-14.6h7.9l-8.8,16c-0.4,0.7-0.8,1.2-1.2,1.7c-0.4,0.5-0.7,0.8-0.9,0.9l-0.4,0.2v0.1
			c0.9,0.2,1.7,1.1,2.5,2.7l4.9,9.9c0.4,0.8,1.3,1.3,2.7,1.3h1v6.1h-4.1c-1.5,0-2.7-0.2-3.4-0.5c-0.7-0.4-1.4-1.2-2-2.4l-6.4-12.8
			c-0.3-0.6-0.7-1-1.2-1.1c-0.5-0.1-1.2-0.2-2.2-0.2h-2.3v17H582.1z"/>
		<path class="st2" d="M343.4,298.9l-11.8-46.2c-0.3-1.2-1.1-1.8-2.6-1.8h-1.5v-8.9h6.8c2.1,0,3.7,0.3,4.8,1
			c1.1,0.7,1.9,1.9,2.3,3.6l7.8,33.8l1,6h0.2c0.2-1.8,0.6-3.8,1.2-6l10.3-38.3h8.9l9.8,38.3l1.1,6h0.2c0.2-1.9,0.5-3.9,1-6l7.8-33.8
			c0.4-1.8,1.1-3,2.2-3.6c1.1-0.7,2.7-1,4.8-1h6.9v8.9h-1.5c-1.4,0-2.3,0.6-2.6,1.8l-11.8,46.2h-12.1l-8.6-32.2l-1.4-7h-0.2
			c-0.3,2.2-0.8,4.6-1.5,7l-9,32.2H343.4z"/>
		<path class="st2" d="M405,298.9V290h1.3c1.3,0,2.1-0.6,2.5-1.8l16.9-46.2h11l16.8,46.2c0.4,1.2,1.2,1.8,2.5,1.8h1.3v8.9h-6.2
			c-2,0-3.4-0.3-4.4-1c-0.9-0.6-1.7-1.9-2.4-3.7l-3.5-9.9h-19.2l-3.5,9.9c-0.6,1.8-1.4,3-2.3,3.7c-0.9,0.6-2.3,1-4.3,1H405z
			 M423.8,275.7h14.4l-4.9-14.2l-2.2-8.5H431c-0.8,3.6-1.5,6.4-2.2,8.5L423.8,275.7z"/>
		<path class="st2" d="M472.9,298.9V251h-8.7c-1.2,0-1.8,0.6-1.8,1.8v3.4h-9.2v-9c0-1.9,0.4-3.2,1.1-4c0.7-0.8,2.1-1.2,4-1.2h39.6
			c1.9,0,3.3,0.4,4,1.2c0.7,0.8,1.1,2.1,1.1,4v9h-9.2v-3.4c0-1.2-0.6-1.8-1.8-1.8h-8.7v47.9H472.9z"/>
		<path class="st2" d="M513,298.9V251h-5.2v-8.9h25.4c5.3,0,9.5,1.5,12.8,4.6c3.3,3.1,4.9,7.2,4.9,12.5c0,2.4-0.4,4.6-1.1,6.6
			c-0.7,2-1.7,3.5-2.8,4.6c-1.1,1.1-2.1,2-3.1,2.6c-1,0.6-1.8,1-2.5,1.2v0.2c1.2,0.5,2.1,1.5,2.8,2.9l5.5,11c0.6,1.2,2,1.8,4,1.8h1
			v8.9h-5.5c-2.2,0-3.8-0.3-4.9-0.8c-1.1-0.5-2.1-1.7-3-3.4l-7.3-14.3c-0.6-1.1-1.2-1.8-2-2.1c-0.7-0.3-1.9-0.5-3.4-0.5h-5.3v21.2
			H513z M523.5,268.8h8.3c2.7,0,4.7-0.8,6.2-2.4c1.5-1.6,2.2-3.8,2.2-6.6c0-2.8-0.7-4.9-2.2-6.5c-1.5-1.5-3.5-2.3-6-2.3h-8.5V268.8z
			"/>
		<path class="st2" d="M558.2,298.9V290h1.3c1.3,0,2.1-0.6,2.5-1.8l16.9-46.2h11l16.8,46.2c0.4,1.2,1.2,1.8,2.5,1.8h1.3v8.9h-6.2
			c-2,0-3.4-0.3-4.4-1c-0.9-0.6-1.7-1.9-2.4-3.7l-3.5-9.9h-19.2l-3.5,9.9c-0.6,1.8-1.4,3-2.3,3.7c-0.9,0.6-2.3,1-4.3,1H558.2z
			 M577.1,275.7h14.4l-4.9-14.2l-2.2-8.5h-0.2c-0.8,3.6-1.5,6.4-2.2,8.5L577.1,275.7z"/>
	</g>
	<g>
		<path class="st2" d="M172.6,179.2c0-3.5,0.6-6.6,1.8-9.4c1.2-2.8,2.8-5.1,4.7-7c1.9-1.9,4.1-3.6,6.4-5.1c2.3-1.6,4.6-3,7-4.2
			c2.3-1.2,4.5-2.5,6.4-3.8c1.9-1.3,3.5-2.7,4.7-4.4c1.2-1.6,1.8-3.4,1.8-5.4c0-1.9-0.7-3.4-2-4.5c-1.3-1-3-1.5-5.1-1.5
			c-2.1,0-3.7,0.4-4.9,1.3c-1.2,0.9-1.8,1.8-1.8,2.8v2.9h-16v-8.4c0-4.6,2.4-8.2,7.2-10.9c4.8-2.6,10.2-4,16.2-4
			c4.1,0,7.9,0.8,11.5,2.3c3.6,1.5,6.6,4,9.1,7.4s3.8,7.5,3.8,12.2c0,3.7-0.8,7-2.3,10.1c-1.6,3.1-3.5,5.6-6,7.5
			c-2.4,1.9-5,3.7-7.7,5.4c-2.7,1.7-5.3,3-7.7,4.1c-2.4,1.1-4.4,2.3-5.9,3.5c-1.6,1.2-2.4,2.4-2.4,3.6c0,1,1,1.5,3,1.5h13.9
			c1.5,0,2.2-0.7,2.2-2.2v-3.9h16v13.8c0,2.5-0.6,4.4-1.8,5.5c-1.2,1.2-3,1.8-5.6,1.8h-38.4c-3.5,0-5.7-0.8-6.7-2.4
			C173,186.5,172.6,183.5,172.6,179.2z"/>
		<path class="st2" d="M232.9,179.2c0-3.5,0.6-6.6,1.8-9.4c1.2-2.8,2.8-5.1,4.7-7c1.9-1.9,4-3.6,6.4-5.1c2.3-1.6,4.6-3,6.9-4.2
			c2.3-1.2,4.5-2.5,6.4-3.8c1.9-1.3,3.5-2.7,4.7-4.4c1.2-1.6,1.8-3.4,1.8-5.4c0-1.9-0.7-3.4-2-4.5c-1.3-1-3-1.5-5.1-1.5
			c-2.1,0-3.7,0.4-4.9,1.3c-1.2,0.9-1.8,1.8-1.8,2.8v2.9h-16v-8.4c0-4.6,2.4-8.2,7.2-10.9c4.8-2.6,10.2-4,16.2-4
			c4.1,0,7.9,0.8,11.5,2.3c3.6,1.5,6.7,4,9.2,7.4s3.8,7.5,3.8,12.2c0,3.7-0.8,7-2.3,10.1c-1.6,3.1-3.6,5.6-6,7.5
			c-2.4,1.9-5,3.7-7.7,5.4c-2.7,1.7-5.3,3-7.7,4.1s-4.4,2.3-6,3.5c-1.6,1.2-2.3,2.4-2.3,3.6c0,1,1,1.5,3,1.5h13.9
			c1.5,0,2.2-0.7,2.2-2.2v-3.9h16v13.8c0,2.5-0.6,4.4-1.8,5.5c-1.2,1.2-3,1.8-5.5,1.8H241c-3.5,0-5.7-0.8-6.7-2.4
			C233.3,186.5,232.9,183.5,232.9,179.2z"/>
	</g>
	<g>
		<path class="st2" d="M333.6,126.4v-14.5l-4.5,2.6v-9.1l4.5-2.6V89.1c0-1.1-0.5-1.6-1.6-1.6h-3.1v-8.1h9.4c1.8,0,3,0.4,3.8,1.2
			c0.8,0.8,1.2,2.1,1.2,3.8v13l7.2-4.2v9.1l-7.2,4.2v15.2c0,1.1,0.5,1.6,1.6,1.6h11.4c1.1,0,1.6-0.5,1.6-1.6v-3.1h8.7v7.9
			c0,1.8-0.4,3-1.2,3.8c-0.8,0.8-2,1.2-3.8,1.2h-22.9c-1.8,0-3-0.4-3.8-1.2C334,129.4,333.6,128.2,333.6,126.4z"/>
		<path class="st2" d="M367.2,105c0-7.5,2.6-13.8,7.7-18.9c5.1-5.1,11.5-7.7,19.1-7.7c7.6,0,14,2.6,19.1,7.7
			c5.1,5.1,7.7,11.4,7.7,18.9c0,7.7-2.6,14.1-7.7,19.4c-5.2,5.2-11.5,7.9-19.1,7.9c-7.6,0-14-2.6-19.1-7.9
			C369.8,119.1,367.2,112.7,367.2,105z M377.1,105c0,5.2,1.6,9.5,4.9,13c3.3,3.5,7.3,5.3,12,5.3s8.7-1.8,12-5.3
			c3.3-3.5,4.9-7.9,4.9-13c0-4.9-1.6-9.1-4.9-12.5c-3.3-3.4-7.3-5.1-12-5.1s-8.7,1.7-12,5.1C378.8,95.9,377.1,100.1,377.1,105z
			 M390.3,75.9l5.6-10h8.9l-7.7,10H390.3z"/>
		<path class="st2" d="M429.6,126.4V87.5h-4.8v-8.1H446c8.1,0,14.5,2.3,19.3,6.9c4.8,4.6,7.2,10.9,7.2,19c0,8.1-2.4,14.5-7.2,19.1
			c-4.8,4.6-11.2,7-19.3,7h-11.4c-1.8,0-3-0.4-3.8-1.2C430,129.4,429.6,128.2,429.6,126.4z M439.2,121.6c0,1.1,0.5,1.6,1.6,1.6h4.7
			c5.3,0,9.4-1.5,12.5-4.6c3.1-3.1,4.6-7.5,4.6-13.3c0-5.7-1.5-10-4.6-13.1c-3.1-3.1-7.2-4.6-12.4-4.6h-6.3V121.6z"/>
		<path class="st2" d="M475.3,131.4v-6.1l23.4-33.1c0.6-0.9,1.3-1.7,1.9-2.5c0.7-0.8,1.2-1.3,1.5-1.7l0.5-0.5v-0.1
			c-1,0.1-2.3,0.1-4,0.1H486c-1.1,0-1.6,0.5-1.6,1.6v3.1h-8.7v-7.9c0-1.7,0.4-3,1.2-3.8c0.8-0.8,2.1-1.2,3.8-1.2h33.8v6l-23.4,33.2
			c-0.6,0.9-1.3,1.7-1.9,2.5c-0.7,0.8-1.2,1.3-1.5,1.7l-0.5,0.5v0.1c1-0.1,2.3-0.1,4-0.1h14.2c1.1,0,1.6-0.5,1.6-1.6v-3.1h8.6v7.9
			c0,1.8-0.4,3-1.2,3.8c-0.8,0.8-2.1,1.2-3.8,1.2H475.3z"/>
		<path class="st2" d="M523.6,131.4V89.1c0-1.1-0.5-1.6-1.6-1.6h-3.1v-8.1h9.4c1.8,0,3,0.4,3.8,1.2c0.8,0.8,1.2,2.1,1.2,3.8v16.2
			h3.7c2.1,0,3.5-0.6,4.2-1.7l10.5-19.5H562l-11.7,21.4c-0.5,0.9-1,1.6-1.5,2.3c-0.5,0.6-1,1.1-1.2,1.2l-0.5,0.3v0.1
			c1.2,0.3,2.3,1.5,3.4,3.6l6.6,13.3c0.5,1.1,1.8,1.7,3.7,1.7h1.4v8.1h-5.5c-2.1,0-3.6-0.2-4.5-0.7c-1-0.5-1.9-1.5-2.7-3.1
			l-8.5-17.1c-0.4-0.8-0.9-1.3-1.6-1.5c-0.7-0.2-1.7-0.3-2.9-0.3h-3.1v22.7H523.6z"/>
		<path class="st2" d="M563.6,131.4v-8.1h1.2c1.2,0,1.9-0.5,2.3-1.6l15.5-42.3h10l15.4,42.3c0.3,1.1,1.1,1.6,2.3,1.6h1.2v8.1h-5.7
			c-1.8,0-3.1-0.3-4-0.9c-0.9-0.6-1.6-1.7-2.2-3.4l-3.2-9.1h-17.6l-3.2,9.1c-0.6,1.7-1.3,2.8-2.1,3.4c-0.8,0.6-2.1,0.9-4,0.9H563.6z
			 M580.8,110.1H594l-4.5-13l-2.1-7.8h-0.1c-0.7,3.3-1.4,5.9-2,7.8L580.8,110.1z"/>
		<path class="st2" d="M332.3,184.8v-31.9h-3.9v-6.7h17.4c6.7,0,11.9,1.9,15.9,5.7c3.9,3.8,5.9,9,5.9,15.6c0,6.7-2,11.9-5.9,15.7
			c-3.9,3.8-9.2,5.7-15.9,5.7h-9.4c-1.4,0-2.5-0.3-3.1-1C332.6,187.3,332.3,186.3,332.3,184.8z M340.2,180.9c0,0.9,0.4,1.3,1.3,1.3
			h3.8c4.3,0,7.7-1.3,10.3-3.8c2.5-2.5,3.8-6.2,3.8-10.9c0-4.7-1.3-8.2-3.8-10.8c-2.5-2.5-5.9-3.8-10.2-3.8h-5.2V180.9z"/>
		<path class="st2" d="M375.5,188.9v-36h-3.9v-6.7h19.1c4,0,7.2,1.2,9.6,3.5c2.4,2.3,3.7,5.4,3.7,9.4c0,1.8-0.3,3.4-0.8,4.9
			c-0.6,1.5-1.3,2.6-2.1,3.5c-0.8,0.8-1.6,1.5-2.3,2c-0.7,0.5-1.3,0.8-1.9,0.9v0.1c0.9,0.4,1.6,1.1,2.1,2.2l4.2,8.2
			c0.5,0.9,1.5,1.4,3,1.4h0.8v6.7h-4.2c-1.6,0-2.9-0.2-3.7-0.6c-0.8-0.4-1.6-1.3-2.3-2.6l-5.5-10.8c-0.4-0.8-0.9-1.3-1.5-1.6
			c-0.5-0.3-1.4-0.4-2.6-0.4h-4v15.9H375.5z M383.4,166.2h6.3c2,0,3.6-0.6,4.7-1.8c1.1-1.2,1.7-2.8,1.7-5c0-2.1-0.6-3.7-1.7-4.9
			c-1.1-1.2-2.6-1.7-4.5-1.7h-6.4V166.2z"/>
		<path class="st2" d="M413.3,173.7v-19.5c0-0.9-0.4-1.3-1.3-1.3h-2.6v-6.7h7.7c1.4,0,2.5,0.3,3.1,1s1,1.7,1,3.1v23.2
			c0,2.8,0.8,4.9,2.4,6.5s3.8,2.3,6.5,2.3s4.9-0.8,6.5-2.3s2.4-3.7,2.4-6.6v-23.1c0-1.4,0.3-2.4,1-3.1c0.6-0.7,1.7-1,3.1-1h7.7v6.7
			h-2.6c-0.9,0-1.3,0.4-1.3,1.3v19.5c0,4.7-1.5,8.6-4.6,11.5s-7.1,4.4-12.1,4.4c-5.1,0-9.1-1.5-12.2-4.4S413.3,178.4,413.3,173.7z"
			/>
		<path class="st2" d="M453.6,188.9v-5l19.2-27.2c0.5-0.7,1.1-1.4,1.6-2c0.5-0.6,1-1.1,1.2-1.4l0.4-0.4v-0.1
			c-0.8,0.1-1.9,0.1-3.2,0.1h-10.3c-0.9,0-1.3,0.4-1.3,1.3v2.6H454v-6.5c0-1.4,0.3-2.4,1-3.1c0.6-0.7,1.7-1,3.1-1h27.7v4.9
			l-19.2,27.2c-0.5,0.7-1.1,1.4-1.6,2c-0.5,0.6-1,1.1-1.2,1.4l-0.4,0.4v0.1c0.8-0.1,1.9-0.1,3.2-0.1h11.7c0.9,0,1.3-0.4,1.3-1.3
			v-2.6h7.1v6.5c0,1.4-0.3,2.5-1,3.1c-0.6,0.6-1.7,1-3.1,1H453.6z M467.3,142.2v-7h6.6v7H467.3z"/>
		<path class="st2" d="M502.7,188.9v-18.6l-10.1-15.9c-0.4-0.6-0.8-1-1.1-1.2c-0.3-0.2-0.8-0.3-1.4-0.3h-1.4v-6.7h4
			c1.4,0,2.5,0.2,3.3,0.6c0.8,0.4,1.5,1.2,2.3,2.5l5.7,9.4l2.6,4.8h0.1c0.7-1.5,1.6-3.1,2.6-4.8l5.6-9.4c0.8-1.3,1.5-2.1,2.3-2.5
			c0.8-0.4,1.9-0.6,3.3-0.6h4v6.7h-1.4c-0.6,0-1.1,0.1-1.4,0.3c-0.3,0.2-0.7,0.6-1.1,1.2l-10.1,15.9v18.6H502.7z"/>
		<path class="st2" d="M526.4,188.9v-6.7h2.6c0.9,0,1.3-0.4,1.3-1.3v-34.7h7.1l16.2,23.6c0.5,0.7,1,1.6,1.6,2.6
			c0.6,1,1.1,1.8,1.4,2.5l0.5,1h0.1c-0.3-2.4-0.4-4.4-0.4-6v-19.5c0-1.4,0.3-2.4,1-3.1c0.6-0.7,1.7-1,3.1-1h7.7v6.7h-2.6
			c-0.9,0-1.3,0.4-1.3,1.3v34.7h-7l-16.2-23.6c-0.5-0.7-1-1.6-1.6-2.6c-0.6-1-1.1-1.8-1.4-2.5l-0.5-1h-0.1c0.3,2.4,0.4,4.4,0.4,6
			v19.5c0,1.4-0.3,2.5-1,3.1c-0.6,0.6-1.7,1-3.1,1H526.4z"/>
		<path class="st2" d="M571.6,188.9v-6.7h1c1,0,1.6-0.4,1.9-1.3l12.7-34.7h8.2l12.6,34.7c0.3,0.9,0.9,1.3,1.9,1.3h1v6.7h-4.7
			c-1.5,0-2.6-0.2-3.3-0.7c-0.7-0.5-1.3-1.4-1.8-2.8l-2.6-7.5H584l-2.6,7.5c-0.5,1.4-1.1,2.3-1.7,2.8c-0.7,0.5-1.8,0.7-3.2,0.7
			H571.6z M585.8,171.5h10.8l-3.7-10.7l-1.7-6.4h-0.1c-0.6,2.7-1.2,4.8-1.7,6.4L585.8,171.5z"/>
		<path class="st2" d="M331.8,235.9v-31.7c0-0.8-0.4-1.2-1.2-1.2h-2.4v-6.1h7c1.3,0,2.3,0.3,2.9,0.9s0.9,1.5,0.9,2.8v12.8h17.2
			v-12.8c0-2.5,1.2-3.7,3.7-3.7h7v6.1h-2.4c-0.8,0-1.2,0.4-1.2,1.2v31.7h-7.2v-16.4h-17.2v16.4H331.8z"/>
		<path class="st2" d="M369.3,235.9v-6.1h0.9c0.9,0,1.4-0.4,1.7-1.2l11.6-31.7h7.5l11.5,31.7c0.3,0.8,0.8,1.2,1.7,1.2h0.9v6.1h-4.3
			c-1.4,0-2.4-0.2-3-0.7c-0.6-0.4-1.2-1.3-1.6-2.5l-2.4-6.8h-13.2l-2.4,6.8c-0.4,1.2-1,2.1-1.6,2.5c-0.6,0.4-1.6,0.7-3,0.7H369.3z
			 M382.2,220h9.9l-3.4-9.8l-1.5-5.8h-0.1c-0.5,2.5-1.1,4.4-1.5,5.8L382.2,220z"/>
		<path class="st2" d="M411,235.9V203h-3.6v-6.1h17.5c3.6,0,6.6,1.1,8.8,3.2c2.2,2.1,3.4,5,3.4,8.6c0,1.6-0.3,3.1-0.8,4.5
			c-0.5,1.4-1.1,2.4-1.9,3.2c-0.8,0.8-1.5,1.4-2.1,1.8c-0.7,0.4-1.2,0.7-1.7,0.8v0.1c0.8,0.4,1.4,1,1.9,2l3.8,7.5
			c0.4,0.8,1.4,1.3,2.7,1.3h0.7v6.1h-3.8c-1.5,0-2.6-0.2-3.4-0.5c-0.8-0.4-1.4-1.2-2.1-2.4l-5-9.8c-0.4-0.7-0.9-1.2-1.3-1.5
			c-0.5-0.2-1.3-0.4-2.3-0.4h-3.6v14.6H411z M418.2,215.2h5.7c1.8,0,3.2-0.5,4.3-1.6c1-1.1,1.5-2.6,1.5-4.5c0-1.9-0.5-3.4-1.5-4.4
			c-1-1.1-2.4-1.6-4.1-1.6h-5.8V215.2z"/>
		<path class="st2" d="M441.6,216.1c0-5.6,1.9-10.4,5.7-14.1c3.8-3.8,8.5-5.7,14.1-5.7c1.4,0,2.9,0.2,4.4,0.5
			c1.6,0.3,3.2,0.8,4.8,1.4c1.6,0.6,2.9,1.5,4,2.7c1,1.2,1.6,2.6,1.6,4.1v4.3h-6.5v-2.2c0-1.3-0.9-2.3-2.6-3.1
			c-1.7-0.7-3.5-1.1-5.5-1.1c-3.6,0-6.6,1.2-8.9,3.6c-2.4,2.4-3.5,5.6-3.5,9.6c0,3.8,1.2,7.1,3.7,9.7c2.5,2.7,5.5,4,9,4
			c1.4,0,2.7-0.2,4-0.5c1.3-0.3,2.4-0.8,3.3-1.3c0.9-0.5,1.7-1,2.4-1.5c0.7-0.5,1.2-0.9,1.6-1.3l0.5-0.5l3.8,5.2
			c-0.1,0.2-0.4,0.4-0.7,0.7c-0.3,0.3-1,0.8-2,1.6c-1,0.8-2.1,1.5-3.2,2.1c-1.1,0.6-2.6,1.1-4.4,1.6c-1.8,0.5-3.6,0.7-5.5,0.7
			c-5.9,0-10.7-1.9-14.4-5.8C443.5,226.8,441.6,221.9,441.6,216.1z"/>
		<path class="st2" d="M484.3,232.2V203h-3.6v-6.1h23.6c2.5,0,3.7,1.2,3.7,3.7v5.9h-6.5v-2.4c0-0.8-0.4-1.2-1.2-1.2h-8.8v10.2h12.6
			v6.1h-12.6v9.3c0,0.8,0.4,1.2,1.2,1.2h9c0.8,0,1.2-0.4,1.2-1.2v-2.4h6.5v5.9c0,1.3-0.3,2.3-0.9,2.9c-0.6,0.6-1.5,0.9-2.8,0.9H488
			c-1.3,0-2.3-0.3-2.9-0.9C484.6,234.4,484.3,233.5,484.3,232.2z"/>
		<path class="st2" d="M515.9,235.9V203h-3.6v-6.1h17.5c3.6,0,6.6,1.1,8.8,3.2c2.2,2.1,3.4,5,3.4,8.6c0,1.6-0.3,3.1-0.8,4.5
			c-0.5,1.4-1.1,2.4-1.9,3.2s-1.5,1.4-2.1,1.8s-1.2,0.7-1.7,0.8v0.1c0.8,0.4,1.4,1,1.9,2l3.8,7.5c0.4,0.8,1.4,1.3,2.7,1.3h0.7v6.1
			h-3.8c-1.5,0-2.6-0.2-3.4-0.5c-0.8-0.4-1.4-1.2-2.1-2.4l-5-9.8c-0.4-0.7-0.9-1.2-1.3-1.5c-0.5-0.2-1.3-0.4-2.3-0.4h-3.6v14.6
			H515.9z M523.1,215.2h5.7c1.8,0,3.2-0.5,4.3-1.6c1-1.1,1.5-2.6,1.5-4.5c0-1.9-0.5-3.4-1.5-4.4c-1-1.1-2.4-1.6-4.1-1.6h-5.8V215.2z
			"/>
		<path class="st2" d="M550.5,232.2V203h-3.6v-6.1h23.6c2.5,0,3.7,1.2,3.7,3.7v5.9h-6.5v-2.4c0-0.8-0.4-1.2-1.2-1.2h-8.8v10.2h12.6
			v6.1h-12.6v9.3c0,0.8,0.4,1.2,1.2,1.2h9c0.8,0,1.2-0.4,1.2-1.2v-2.4h6.5v5.9c0,1.3-0.3,2.3-0.9,2.9c-0.6,0.6-1.5,0.9-2.8,0.9
			h-17.7c-1.3,0-2.3-0.3-2.9-0.9C550.8,234.4,550.5,233.5,550.5,232.2z"/>
		<path class="st2" d="M582.1,235.9v-31.7c0-0.8-0.4-1.2-1.2-1.2h-2.4v-6.1h7c1.3,0,2.3,0.3,2.9,0.9c0.6,0.6,0.9,1.5,0.9,2.8v12.1
			h2.7c1.6,0,2.7-0.4,3.1-1.3l7.9-14.6h7.9l-8.8,16c-0.4,0.7-0.8,1.2-1.2,1.7c-0.4,0.5-0.7,0.8-0.9,0.9l-0.4,0.2v0.1
			c0.9,0.2,1.7,1.1,2.5,2.7l4.9,9.9c0.4,0.8,1.3,1.3,2.7,1.3h1v6.1h-4.1c-1.5,0-2.7-0.2-3.4-0.5c-0.7-0.4-1.4-1.2-2-2.4l-6.4-12.8
			c-0.3-0.6-0.7-1-1.2-1.1c-0.5-0.1-1.2-0.2-2.2-0.2h-2.3v17H582.1z"/>
		<path class="st2" d="M343.4,298.9l-11.8-46.2c-0.3-1.2-1.1-1.8-2.6-1.8h-1.5v-8.9h6.8c2.1,0,3.7,0.3,4.8,1
			c1.1,0.7,1.9,1.9,2.3,3.6l7.8,33.8l1,6h0.2c0.2-1.8,0.6-3.8,1.2-6l10.3-38.3h8.9l9.8,38.3l1.1,6h0.2c0.2-1.9,0.5-3.9,1-6l7.8-33.8
			c0.4-1.8,1.1-3,2.2-3.6c1.1-0.7,2.7-1,4.8-1h6.9v8.9h-1.5c-1.4,0-2.3,0.6-2.6,1.8l-11.8,46.2h-12.1l-8.6-32.2l-1.4-7h-0.2
			c-0.3,2.2-0.8,4.6-1.5,7l-9,32.2H343.4z"/>
		<path class="st2" d="M405,298.9V290h1.3c1.3,0,2.1-0.6,2.5-1.8l16.9-46.2h11l16.8,46.2c0.4,1.2,1.2,1.8,2.5,1.8h1.3v8.9h-6.2
			c-2,0-3.4-0.3-4.4-1c-0.9-0.6-1.7-1.9-2.4-3.7l-3.5-9.9h-19.2l-3.5,9.9c-0.6,1.8-1.4,3-2.3,3.7c-0.9,0.6-2.3,1-4.3,1H405z
			 M423.8,275.7h14.4l-4.9-14.2l-2.2-8.5H431c-0.8,3.6-1.5,6.4-2.2,8.5L423.8,275.7z"/>
		<path class="st2" d="M472.9,298.9V251h-8.7c-1.2,0-1.8,0.6-1.8,1.8v3.4h-9.2v-9c0-1.9,0.4-3.2,1.1-4c0.7-0.8,2.1-1.2,4-1.2h39.6
			c1.9,0,3.3,0.4,4,1.2c0.7,0.8,1.1,2.1,1.1,4v9h-9.2v-3.4c0-1.2-0.6-1.8-1.8-1.8h-8.7v47.9H472.9z"/>
		<path class="st2" d="M513,298.9V251h-5.2v-8.9h25.4c5.3,0,9.5,1.5,12.8,4.6c3.3,3.1,4.9,7.2,4.9,12.5c0,2.4-0.4,4.6-1.1,6.6
			c-0.7,2-1.7,3.5-2.8,4.6c-1.1,1.1-2.1,2-3.1,2.6c-1,0.6-1.8,1-2.5,1.2v0.2c1.2,0.5,2.1,1.5,2.8,2.9l5.5,11c0.6,1.2,2,1.8,4,1.8h1
			v8.9h-5.5c-2.2,0-3.8-0.3-4.9-0.8c-1.1-0.5-2.1-1.7-3-3.4l-7.3-14.3c-0.6-1.1-1.2-1.8-2-2.1c-0.7-0.3-1.9-0.5-3.4-0.5h-5.3v21.2
			H513z M523.5,268.8h8.3c2.7,0,4.7-0.8,6.2-2.4c1.5-1.6,2.2-3.8,2.2-6.6c0-2.8-0.7-4.9-2.2-6.5c-1.5-1.5-3.5-2.3-6-2.3h-8.5V268.8z
			"/>
		<path class="st2" d="M558.2,298.9V290h1.3c1.3,0,2.1-0.6,2.5-1.8l16.9-46.2h11l16.8,46.2c0.4,1.2,1.2,1.8,2.5,1.8h1.3v8.9h-6.2
			c-2,0-3.4-0.3-4.4-1c-0.9-0.6-1.7-1.9-2.4-3.7l-3.5-9.9h-19.2l-3.5,9.9c-0.6,1.8-1.4,3-2.3,3.7c-0.9,0.6-2.3,1-4.3,1H558.2z
			 M577.1,275.7h14.4l-4.9-14.2l-2.2-8.5h-0.2c-0.8,3.6-1.5,6.4-2.2,8.5L577.1,275.7z"/>
	</g>
</g>
<g id="lgzpp">
	<g>
		<path class="st2" d="M966.6,126.4v-14.5l-4.5,2.6v-9.1l4.5-2.6V89.1c0-1.1-0.5-1.6-1.6-1.6h-3.1v-8.1h9.4c1.8,0,3,0.4,3.8,1.2
			c0.8,0.8,1.2,2.1,1.2,3.8v13l7.2-4.2v9.1l-7.2,4.2v15.2c0,1.1,0.5,1.6,1.6,1.6h11.4c1.1,0,1.6-0.5,1.6-1.6v-3.1h8.7v7.9
			c0,1.8-0.4,3-1.2,3.8c-0.8,0.8-2,1.2-3.8,1.2h-22.9c-1.8,0-3-0.4-3.8-1.2C967,129.4,966.6,128.2,966.6,126.4z"/>
		<path class="st2" d="M1000.2,105c0-7.5,2.6-13.8,7.7-18.9c5.1-5.1,11.5-7.7,19.1-7.7c7.6,0,14,2.6,19.1,7.7
			c5.1,5.1,7.7,11.4,7.7,18.9c0,7.7-2.6,14.1-7.7,19.4c-5.2,5.2-11.5,7.9-19.1,7.9c-7.6,0-14-2.6-19.1-7.9
			C1002.8,119.1,1000.2,112.7,1000.2,105z M1010.1,105c0,5.2,1.6,9.5,4.9,13c3.3,3.5,7.3,5.3,12,5.3s8.7-1.8,12-5.3
			c3.3-3.5,4.9-7.9,4.9-13c0-4.9-1.6-9.1-4.9-12.5c-3.3-3.4-7.3-5.1-12-5.1s-8.7,1.7-12,5.1C1011.8,95.9,1010.1,100.1,1010.1,105z
			 M1023.3,75.9l5.6-10h8.9l-7.7,10H1023.3z"/>
		<path class="st2" d="M1062.6,126.4V87.5h-4.8v-8.1h21.2c8.1,0,14.5,2.3,19.3,6.9c4.8,4.6,7.2,10.9,7.2,19c0,8.1-2.4,14.5-7.2,19.1
			c-4.8,4.6-11.2,7-19.3,7h-11.4c-1.8,0-3-0.4-3.8-1.2C1063,129.4,1062.6,128.2,1062.6,126.4z M1072.2,121.6c0,1.1,0.5,1.6,1.6,1.6
			h4.7c5.3,0,9.4-1.5,12.5-4.6c3.1-3.1,4.6-7.5,4.6-13.3c0-5.7-1.5-10-4.6-13.1c-3.1-3.1-7.2-4.6-12.4-4.6h-6.3V121.6z"/>
		<path class="st2" d="M1108.3,131.4v-6.1l23.4-33.1c0.6-0.9,1.3-1.7,1.9-2.5c0.7-0.8,1.2-1.3,1.5-1.7l0.5-0.5v-0.1
			c-1,0.1-2.3,0.1-4,0.1H1119c-1.1,0-1.6,0.5-1.6,1.6v3.1h-8.7v-7.9c0-1.7,0.4-3,1.2-3.8c0.8-0.8,2.1-1.2,3.8-1.2h33.8v6l-23.4,33.2
			c-0.6,0.9-1.3,1.7-1.9,2.5c-0.7,0.8-1.2,1.3-1.5,1.7l-0.5,0.5v0.1c1-0.1,2.3-0.1,4-0.1h14.2c1.1,0,1.6-0.5,1.6-1.6v-3.1h8.6v7.9
			c0,1.8-0.4,3-1.2,3.8c-0.8,0.8-2.1,1.2-3.8,1.2H1108.3z"/>
		<path class="st2" d="M1156.6,131.4V89.1c0-1.1-0.5-1.6-1.6-1.6h-3.1v-8.1h9.4c1.8,0,3,0.4,3.8,1.2c0.8,0.8,1.2,2.1,1.2,3.8v16.2
			h3.7c2.1,0,3.5-0.6,4.2-1.7l10.5-19.5h10.5l-11.7,21.4c-0.5,0.9-1,1.6-1.5,2.3c-0.5,0.6-1,1.1-1.2,1.2l-0.5,0.3v0.1
			c1.2,0.3,2.3,1.5,3.4,3.6l6.6,13.3c0.5,1.1,1.8,1.7,3.7,1.7h1.4v8.1h-5.5c-2.1,0-3.6-0.2-4.5-0.7c-1-0.5-1.9-1.5-2.7-3.1
			l-8.5-17.1c-0.4-0.8-0.9-1.3-1.6-1.5c-0.7-0.2-1.7-0.3-2.9-0.3h-3.1v22.7H1156.6z"/>
		<path class="st2" d="M1196.6,131.4v-8.1h1.2c1.2,0,1.9-0.5,2.3-1.6l15.5-42.3h10l15.4,42.3c0.3,1.1,1.1,1.6,2.3,1.6h1.2v8.1h-5.7
			c-1.8,0-3.1-0.3-4-0.9c-0.9-0.6-1.6-1.7-2.2-3.4l-3.2-9.1h-17.6l-3.2,9.1c-0.6,1.7-1.3,2.8-2.1,3.4c-0.8,0.6-2.1,0.9-4,0.9H1196.6
			z M1213.8,110.1h13.2l-4.5-13l-2.1-7.8h-0.1c-0.7,3.3-1.4,5.9-2,7.8L1213.8,110.1z"/>
		<path class="st2" d="M961.1,156.3c0-5.7,1.9-10.6,5.8-14.5c3.9-3.9,8.7-5.9,14.4-5.9c1.8,0,3.6,0.2,5.2,0.5c1.7,0.4,3,0.8,4.1,1.3
			c1.1,0.5,2,1,2.8,1.5c0.8,0.5,1.4,0.9,1.8,1.2l0.6,0.6l-4.1,5.3c-0.3-0.3-0.7-0.6-1.3-1c-0.6-0.4-1.8-0.9-3.5-1.6
			c-1.8-0.7-3.6-1-5.3-1c-3.5,0-6.6,1.3-9,3.8c-2.5,2.5-3.7,5.8-3.7,9.7c0,4.2,1.3,7.6,3.8,10.2c2.5,2.6,5.6,3.8,9.3,3.8
			c1.9,0,3.6-0.3,5.3-1c1.7-0.7,2.9-1.4,3.6-2.1l1.1-1v-3c0-0.8-0.4-1.2-1.2-1.2h-2.4v-6.2h6.4c1.3,0,2.3,0.3,2.9,0.9
			c0.6,0.6,0.9,1.5,0.9,2.9v17h-6.3v-1.9l0.1-1.7h-0.1c-0.1,0.1-0.3,0.3-0.5,0.4c-0.2,0.2-0.7,0.5-1.5,1c-0.8,0.5-1.6,0.9-2.4,1.3
			c-0.8,0.4-1.9,0.7-3.2,1s-2.7,0.4-4.1,0.4c-5.4,0-9.9-1.9-13.7-5.7S961.1,162.5,961.1,156.3z"/>
		<path class="st2" d="M1006.3,176.4v-33.5h-3.6v-6.2h17.8c3.7,0,6.7,1.1,9,3.2c2.3,2.1,3.4,5.1,3.4,8.8c0,1.7-0.3,3.2-0.8,4.6
			c-0.5,1.4-1.2,2.5-1.9,3.2s-1.5,1.4-2.2,1.8c-0.7,0.4-1.2,0.7-1.7,0.8v0.1c0.8,0.4,1.5,1,2,2l3.9,7.7c0.4,0.9,1.4,1.3,2.8,1.3h0.7
			v6.2h-3.9c-1.5,0-2.7-0.2-3.4-0.6c-0.8-0.4-1.5-1.2-2.1-2.4l-5.1-10c-0.4-0.7-0.9-1.2-1.4-1.5c-0.5-0.2-1.3-0.4-2.4-0.4h-3.7v14.8
			H1006.3z M1013.6,155.3h5.8c1.9,0,3.3-0.6,4.3-1.7c1-1.1,1.5-2.6,1.5-4.6c0-1.9-0.5-3.5-1.5-4.5c-1-1.1-2.4-1.6-4.2-1.6h-5.9
			V155.3z"/>
		<path class="st2" d="M1037.9,156.2c0-5.7,2-10.5,5.9-14.4c3.9-3.9,8.8-5.9,14.6-5.9s10.7,2,14.6,5.9c3.9,3.9,5.9,8.7,5.9,14.4
			c0,5.9-2,10.8-5.9,14.8c-3.9,4-8.8,6-14.6,6s-10.7-2-14.6-6C1039.9,167,1037.9,162.1,1037.9,156.2z M1045.5,156.2
			c0,4,1.3,7.3,3.8,10s5.6,4,9.2,4c3.6,0,6.7-1.3,9.2-4c2.5-2.7,3.8-6,3.8-10c0-3.8-1.3-7-3.8-9.5c-2.5-2.6-5.6-3.9-9.2-3.9
			c-3.6,0-6.7,1.3-9.2,3.9C1046.8,149.3,1045.5,152.4,1045.5,156.2z"/>
		<path class="st2" d="M1081.9,176.4v-6.2h1.7c0.7,0,1.2-0.4,1.2-1.2l2.6-32.3h7.6l8.2,18.9l2,5.3h0.1c0.7-2,1.3-3.8,2-5.3l8.2-18.9
			h7.6l2.6,32.3c0.1,0.8,0.5,1.2,1.2,1.2h1.7v6.2h-6.3c-1.3,0-2.2-0.3-2.8-0.9c-0.5-0.6-0.9-1.6-1-2.9l-1.3-17.7
			c-0.1-0.8-0.1-1.7-0.1-2.7c0-1,0-1.9,0-2.5l0.1-1h-0.1c-0.8,2.6-1.5,4.7-2.2,6.2l-6.6,14.7h-5.9l-6.6-14.7c-0.3-0.7-0.6-1.5-1-2.5
			c-0.4-1-0.6-1.9-0.9-2.6l-0.3-1.1h-0.1c0.1,2.4,0.1,4.5-0.1,6.2l-1.3,17.7c-0.1,1.4-0.4,2.4-1,2.9c-0.6,0.6-1.5,0.9-2.8,0.9
			H1081.9z"/>
		<path class="st2" d="M1130.5,176.4v-6.2h0.9c0.9,0,1.5-0.4,1.7-1.2l11.8-32.3h7.7l11.8,32.3c0.3,0.8,0.8,1.2,1.7,1.2h0.9v6.2h-4.4
			c-1.4,0-2.4-0.2-3.1-0.7c-0.7-0.4-1.2-1.3-1.7-2.6l-2.5-6.9H1142l-2.5,6.9c-0.4,1.3-1,2.1-1.6,2.6c-0.6,0.4-1.6,0.7-3,0.7H1130.5z
			 M1143.7,160.1h10.1l-3.4-10l-1.6-5.9h-0.1c-0.6,2.5-1.1,4.5-1.6,5.9L1143.7,160.1z"/>
		<path class="st2" d="M1173.3,172.6v-29.7h-3.6v-6.2h16.2c6.2,0,11.1,1.8,14.8,5.3c3.7,3.5,5.5,8.4,5.5,14.6
			c0,6.2-1.8,11.1-5.5,14.6c-3.7,3.5-8.6,5.3-14.8,5.3h-8.7c-1.3,0-2.3-0.3-2.9-0.9C1173.6,174.9,1173.3,173.9,1173.3,172.6z
			 M1180.7,168.9c0,0.8,0.4,1.2,1.2,1.2h3.6c4,0,7.2-1.2,9.5-3.6c2.3-2.4,3.5-5.8,3.5-10.2c0-4.3-1.2-7.7-3.5-10.1
			c-2.4-2.4-5.5-3.6-9.5-3.6h-4.8V168.9z"/>
		<path class="st2" d="M1208,176.4v-6.2h0.9c0.9,0,1.5-0.4,1.7-1.2l11.8-32.3h7.7l11.8,32.3c0.3,0.8,0.8,1.2,1.7,1.2h0.9v6.2h-4.4
			c-1.4,0-2.4-0.2-3.1-0.7c-0.7-0.4-1.2-1.3-1.7-2.6l-2.5-6.9h-13.4l-2.5,6.9c-0.4,1.3-1,2.1-1.6,2.6c-0.6,0.4-1.6,0.7-3,0.7H1208z
			 M1221.2,160.1h10.1l-3.4-10l-1.6-5.9h-0.1c-0.6,2.5-1.1,4.5-1.6,5.9L1221.2,160.1z"/>
		<path class="st2" d="M960.3,221.4v-4.6l17.5-24.9c0.5-0.7,1-1.3,1.5-1.9c0.5-0.6,0.9-1,1.1-1.3l0.4-0.4v-0.1
			c-0.8,0.1-1.8,0.1-3,0.1h-9.5c-0.8,0-1.2,0.4-1.2,1.2v2.4h-6.5v-5.9c0-1.3,0.3-2.2,0.9-2.8c0.6-0.6,1.5-0.9,2.9-0.9h25.4v4.5
			l-17.5,24.9c-0.5,0.7-1,1.3-1.5,1.9c-0.5,0.6-0.9,1-1.1,1.3l-0.4,0.4v0.1c0.8-0.1,1.8-0.1,3-0.1h10.7c0.8,0,1.2-0.4,1.2-1.2v-2.4
			h6.5v5.9c0,1.3-0.3,2.3-0.9,2.9c-0.6,0.6-1.5,0.9-2.9,0.9H960.3z"/>
		<path class="st2" d="M996.3,207.5v-17.8c0-0.8-0.4-1.2-1.2-1.2h-2.4v-6.1h7c1.3,0,2.3,0.3,2.9,0.9c0.6,0.6,0.9,1.5,0.9,2.8v21.2
			c0,2.5,0.7,4.5,2.2,5.9c1.5,1.4,3.4,2.1,5.9,2.1c2.5,0,4.5-0.7,5.9-2.1c1.5-1.4,2.2-3.4,2.2-6v-21.1c0-1.3,0.3-2.2,0.9-2.8
			s1.5-0.9,2.9-0.9h7v6.1h-2.4c-0.8,0-1.2,0.4-1.2,1.2v17.8c0,4.3-1.4,7.8-4.2,10.5c-2.8,2.7-6.5,4-11.1,4c-4.6,0-8.3-1.3-11.2-4
			C997.7,215.3,996.3,211.8,996.3,207.5z"/>
		<path class="st2" d="M1033.3,201.5c0-5.6,1.9-10.4,5.7-14.2c3.8-3.8,8.5-5.7,14.1-5.7c1.4,0,2.9,0.2,4.5,0.5
			c1.6,0.3,3.2,0.8,4.8,1.4c1.6,0.6,2.9,1.5,4,2.7c1,1.2,1.6,2.6,1.6,4.2v4.3h-6.5v-2.2c0-1.3-0.9-2.3-2.6-3.1
			c-1.7-0.7-3.5-1.1-5.5-1.1c-3.6,0-6.6,1.2-8.9,3.6c-2.4,2.4-3.5,5.6-3.5,9.6c0,3.8,1.2,7.1,3.7,9.8c2.5,2.7,5.5,4,9,4
			c1.4,0,2.7-0.2,4-0.5c1.3-0.3,2.4-0.8,3.3-1.3c0.9-0.5,1.7-1,2.4-1.5c0.7-0.5,1.2-0.9,1.6-1.3l0.5-0.6l3.8,5.2
			c-0.1,0.2-0.4,0.4-0.7,0.7c-0.3,0.3-1,0.8-2,1.6c-1,0.8-2.1,1.5-3.2,2.1c-1.1,0.6-2.6,1.1-4.4,1.6s-3.6,0.7-5.5,0.7
			c-5.9,0-10.7-2-14.5-5.9C1035.2,212.3,1033.3,207.4,1033.3,201.5z"/>
		<path class="st2" d="M1075.8,221.4v-31.7c0-0.8-0.4-1.2-1.2-1.2h-2.4v-6.1h7c1.3,0,2.3,0.3,2.9,0.9c0.6,0.6,0.9,1.5,0.9,2.8v12.8
			h17.2v-12.8c0-2.5,1.2-3.7,3.7-3.7h7v6.1h-2.4c-0.8,0-1.2,0.4-1.2,1.2v31.7h-7.2V205H1083v16.4H1075.8z"/>
		<path class="st2" d="M1114.2,201.6c0-5.6,1.9-10.3,5.8-14.2c3.9-3.8,8.7-5.7,14.4-5.7s10.5,1.9,14.4,5.7c3.9,3.8,5.8,8.6,5.8,14.2
			c0,5.8-1.9,10.6-5.8,14.5c-3.9,3.9-8.7,5.9-14.4,5.9s-10.5-2-14.4-5.9C1116.1,212.2,1114.2,207.3,1114.2,201.6z M1121.7,201.6
			c0,3.9,1.2,7.1,3.7,9.8c2.5,2.6,5.5,4,9,4c3.6,0,6.6-1.3,9-4c2.5-2.6,3.7-5.9,3.7-9.8c0-3.7-1.2-6.8-3.7-9.4
			c-2.5-2.5-5.5-3.8-9-3.8c-3.6,0-6.6,1.3-9,3.8C1122.9,194.7,1121.7,197.9,1121.7,201.6z"/>
		<path class="st2" d="M1167.1,221.4l-8.1-31.7c-0.2-0.8-0.8-1.2-1.8-1.2h-1v-6.1h4.7c1.4,0,2.5,0.2,3.3,0.7
			c0.8,0.5,1.3,1.3,1.6,2.5l5.3,23.3l0.7,4.1h0.1c0.1-1.2,0.4-2.6,0.8-4.1l7.1-26.3h6.1l6.7,26.3l0.8,4.1h0.1
			c0.1-1.3,0.3-2.7,0.7-4.1l5.4-23.3c0.3-1.2,0.8-2,1.5-2.5c0.8-0.5,1.8-0.7,3.3-0.7h4.7v6.1h-1c-1,0-1.6,0.4-1.8,1.2l-8.1,31.7
			h-8.3l-5.9-22.1l-1-4.8h-0.1c-0.2,1.5-0.6,3.2-1,4.8l-6.2,22.1H1167.1z"/>
		<path class="st2" d="M1208.5,221.4v-6.1h0.9c0.9,0,1.4-0.4,1.7-1.2l11.6-31.7h7.5l11.5,31.7c0.3,0.8,0.8,1.2,1.7,1.2h0.9v6.1h-4.3
			c-1.4,0-2.4-0.2-3-0.7c-0.6-0.4-1.2-1.3-1.6-2.5l-2.4-6.8h-13.2l-2.4,6.8c-0.4,1.2-1,2.1-1.6,2.5c-0.6,0.4-1.6,0.7-3,0.7H1208.5z
			 M1221.4,205.4h9.9l-3.4-9.8l-1.5-5.8h-0.1c-0.6,2.5-1.1,4.4-1.5,5.8L1221.4,205.4z"/>
		<path class="st3" d="M964.1,261.4v-28.8h-3.1v-5.3h15.6c3.2,0,5.8,1,7.8,3.1c2,2,3,4.7,3,8c0,3.3-1,6-3,8.1
			c-2,2.1-4.6,3.1-7.8,3.1h-6.2v11.8H964.1z M970.4,244.2h5c1.8,0,3.1-0.5,4.1-1.6c1-1.1,1.5-2.5,1.5-4.3c0-1.8-0.5-3.2-1.4-4.2
			c-1-1-2.3-1.6-4-1.6h-5.1V244.2z"/>
		<path class="st3" d="M993,261.4v-28.8h-3.1v-5.3h15.3c3.2,0,5.7,0.9,7.7,2.8c2,1.8,2.9,4.3,2.9,7.5c0,1.4-0.2,2.8-0.7,3.9
			c-0.4,1.2-1,2.1-1.7,2.8c-0.7,0.7-1.3,1.2-1.8,1.6c-0.6,0.4-1.1,0.6-1.5,0.7v0.1c0.7,0.3,1.3,0.9,1.7,1.7l3.3,6.6
			c0.4,0.7,1.2,1.1,2.4,1.1h0.6v5.3h-3.3c-1.3,0-2.3-0.2-3-0.5c-0.7-0.3-1.3-1-1.8-2.1l-4.4-8.6c-0.4-0.6-0.7-1.1-1.2-1.3
			c-0.4-0.2-1.1-0.3-2-0.3h-3.2v12.7H993z M999.3,243.3h5c1.6,0,2.8-0.5,3.7-1.4c0.9-0.9,1.3-2.3,1.3-4c0-1.7-0.4-3-1.3-3.9
			c-0.9-0.9-2.1-1.4-3.6-1.4h-5.1V243.3z"/>
		<path class="st3" d="M1019.5,261.4V256h0.8c0.8,0,1.3-0.4,1.5-1.1l10.1-27.7h6.6l10.1,27.7c0.2,0.7,0.7,1.1,1.5,1.1h0.8v5.3h-3.7
			c-1.2,0-2.1-0.2-2.6-0.6c-0.6-0.4-1-1.1-1.4-2.2l-2.1-6h-11.5l-2.1,6c-0.4,1.1-0.8,1.8-1.4,2.2c-0.5,0.4-1.4,0.6-2.6,0.6H1019.5z
			 M1030.8,247.5h8.6l-2.9-8.5l-1.3-5.1h-0.1c-0.5,2.1-0.9,3.8-1.3,5.1L1030.8,247.5z"/>
		<path class="st3" d="M1052.1,244c0-4.9,1.6-9,4.9-12.4s7.4-5,12.3-5c1.2,0,2.5,0.1,3.9,0.4c1.4,0.3,2.8,0.7,4.2,1.2
			c1.4,0.5,2.6,1.3,3.5,2.4c0.9,1,1.4,2.2,1.4,3.6v3.8h-5.7v-1.9c0-1.2-0.7-2-2.2-2.7c-1.5-0.6-3.1-1-4.8-1c-3.1,0-5.7,1-7.8,3.1
			c-2.1,2.1-3.1,4.9-3.1,8.4c0,3.3,1.1,6.2,3.2,8.5s4.8,3.5,7.9,3.5c1.2,0,2.4-0.2,3.5-0.5c1.1-0.3,2.1-0.7,2.9-1.1
			c0.8-0.4,1.5-0.9,2.1-1.3c0.6-0.4,1.1-0.8,1.4-1.1l0.4-0.5l3.3,4.5c-0.1,0.2-0.3,0.4-0.6,0.6c-0.3,0.3-0.8,0.7-1.7,1.4
			c-0.9,0.7-1.8,1.3-2.8,1.8c-1,0.5-2.2,1-3.8,1.4s-3.2,0.6-4.8,0.6c-5.2,0-9.4-1.7-12.6-5.1C1053.7,253.4,1052.1,249.2,1052.1,244z
			"/>
		<path class="st3" d="M1085.7,244.1c0-4.9,1.7-9,5.1-12.4c3.4-3.3,7.6-5,12.6-5c5,0,9.2,1.7,12.6,5c3.4,3.3,5.1,7.5,5.1,12.4
			c0,5-1.7,9.3-5.1,12.7c-3.4,3.4-7.6,5.2-12.6,5.2c-5,0-9.2-1.7-12.6-5.2C1087.4,253.4,1085.7,249.1,1085.7,244.1z M1092.3,244.1
			c0,3.4,1.1,6.2,3.2,8.5c2.1,2.3,4.8,3.5,7.9,3.5c3.1,0,5.7-1.2,7.9-3.5c2.1-2.3,3.2-5.2,3.2-8.5c0-3.2-1.1-6-3.2-8.2
			c-2.1-2.2-4.8-3.3-7.9-3.3c-3.1,0-5.7,1.1-7.9,3.3C1093.3,238.1,1092.3,240.9,1092.3,244.1z"/>
		<path class="st3" d="M1132.1,261.4l-7.1-27.7c-0.2-0.7-0.7-1.1-1.5-1.1h-0.9v-5.3h4.1c1.2,0,2.2,0.2,2.9,0.6
			c0.7,0.4,1.1,1.1,1.4,2.2l4.7,20.3l0.6,3.6h0.1c0.1-1.1,0.4-2.3,0.7-3.6l6.2-23h5.3l5.9,23l0.7,3.6h0.1c0.1-1.1,0.3-2.3,0.6-3.6
			l4.7-20.3c0.2-1.1,0.7-1.8,1.3-2.2c0.7-0.4,1.6-0.6,2.9-0.6h4.1v5.3h-0.9c-0.9,0-1.4,0.4-1.5,1.1l-7.1,27.7h-7.2l-5.2-19.3
			l-0.9-4.2h-0.1c-0.2,1.3-0.5,2.8-0.9,4.2l-5.4,19.3H1132.1z"/>
		<path class="st3" d="M1171.2,261.4V256h3.4v-23.4h-3.4v-5.3h12.8v5.3h-3.4V256h3.4v5.3H1171.2z"/>
		<path class="st3" d="M1198.2,261.4v-28.8h-5.2c-0.7,0-1.1,0.4-1.1,1.1v2.1h-5.5v-5.4c0-1.1,0.2-1.9,0.7-2.4s1.2-0.7,2.4-0.7h23.8
			c1.2,0,2,0.2,2.4,0.7c0.4,0.5,0.7,1.3,0.7,2.4v5.4h-5.5v-2.1c0-0.7-0.4-1.1-1.1-1.1h-5.2v28.8H1198.2z"/>
		<path class="st3" d="M1221.7,258.1v-25.5h-3.1v-5.3h20.6c2.2,0,3.3,1.1,3.3,3.3v5.2h-5.7v-2.1c0-0.7-0.4-1.1-1.1-1.1h-7.7v8.9h11
			v5.3h-11v8.1c0,0.7,0.4,1.1,1.1,1.1h7.9c0.7,0,1.1-0.4,1.1-1.1v-2.1h5.7v5.2c0,1.2-0.3,2-0.8,2.5c-0.5,0.5-1.4,0.8-2.5,0.8h-15.5
			c-1.2,0-2-0.3-2.5-0.8C1221.9,260.1,1221.7,259.3,1221.7,258.1z"/>
		<path class="st3" d="M964.7,312.4V280h-3.5v-6h17.5c3.6,0,6.5,1.2,8.8,3.5c2.3,2.3,3.4,5.3,3.4,9c0,3.7-1.1,6.7-3.4,9.1
			s-5.2,3.5-8.8,3.5h-7v13.2H964.7z M971.7,293.1h5.7c2,0,3.5-0.6,4.6-1.8c1.1-1.2,1.6-2.8,1.6-4.8c0-2-0.5-3.6-1.6-4.7
			c-1.1-1.2-2.6-1.8-4.5-1.8h-5.8V293.1z"/>
		<path class="st3" d="M993.4,307.1l4-5c0.1,0.1,0.3,0.3,0.5,0.5c0.2,0.2,0.6,0.6,1.3,1.1c0.6,0.5,1.3,1,2,1.4
			c0.7,0.4,1.5,0.8,2.5,1.1s2,0.5,3,0.5c1.5,0,2.9-0.4,3.9-1.2c1.1-0.8,1.6-1.9,1.6-3.3c0-0.9-0.3-1.7-1-2.4
			c-0.7-0.7-1.5-1.4-2.6-1.9c-1.1-0.6-2.2-1.1-3.5-1.7c-1.3-0.6-2.6-1.2-3.8-1.9c-1.3-0.7-2.4-1.5-3.5-2.3c-1.1-0.8-1.9-1.9-2.6-3.2
			c-0.7-1.3-1-2.8-1-4.4c0-3.1,1.2-5.7,3.6-7.7c2.4-2.1,5.5-3.1,9.2-3.1c1.7,0,3.3,0.2,5,0.7c1.7,0.5,3.1,1.3,4.5,2.5
			c1.3,1.2,2,2.7,2,4.3v3.6h-6.4v-1.7c0-0.9-0.5-1.6-1.5-2.1c-1-0.6-2.2-0.8-3.5-0.8c-1.6,0-3,0.4-4,1.1c-1.1,0.8-1.6,1.7-1.6,3
			c0,0.9,0.3,1.6,1,2.3c0.7,0.7,1.5,1.3,2.6,1.8c1.1,0.5,2.2,1.1,3.5,1.6c1.3,0.5,2.6,1.2,3.8,1.8c1.3,0.7,2.4,1.4,3.5,2.3
			c1.1,0.8,1.9,2,2.6,3.3c0.7,1.4,1,2.9,1,4.6c0,3.2-1.2,5.8-3.5,8c-2.3,2.2-5.4,3.3-9.3,3.3c-1.6,0-3.1-0.2-4.6-0.6
			c-1.5-0.4-2.7-0.9-3.7-1.5c-1-0.6-1.9-1.2-2.6-1.7s-1.3-1.1-1.7-1.5L993.4,307.1z"/>
		<path class="st3" d="M1022,312.4v-4.5l17.2-24.4c0.5-0.6,0.9-1.3,1.4-1.8c0.5-0.6,0.9-1,1.1-1.2l0.4-0.4v-0.1
			c-0.8,0.1-1.7,0.1-2.9,0.1h-9.3c-0.8,0-1.2,0.4-1.2,1.2v2.3h-6.4v-5.8c0-1.3,0.3-2.2,0.9-2.8c0.6-0.6,1.5-0.9,2.8-0.9h24.9v4.4
			l-17.2,24.5c-0.5,0.6-0.9,1.3-1.4,1.8c-0.5,0.6-0.9,1-1.1,1.2l-0.4,0.4v0.1c0.8-0.1,1.7-0.1,2.9-0.1h10.5c0.8,0,1.2-0.4,1.2-1.2
			v-2.3h6.4v5.8c0,1.3-0.3,2.2-0.9,2.8c-0.6,0.6-1.5,0.9-2.8,0.9H1022z"/>
		<path class="st3" d="M1054.2,292.9c0-5.5,1.9-10.2,5.6-13.9c3.7-3.7,8.3-5.6,13.9-5.6c1.4,0,2.8,0.2,4.4,0.5
			c1.5,0.3,3.1,0.8,4.7,1.4c1.6,0.6,2.9,1.5,3.9,2.7c1,1.2,1.5,2.5,1.5,4.1v4.3h-6.4v-2.2c0-1.3-0.8-2.3-2.5-3
			c-1.7-0.7-3.5-1.1-5.4-1.1c-3.5,0-6.5,1.2-8.8,3.5c-2.3,2.3-3.5,5.5-3.5,9.4c0,3.7,1.2,6.9,3.6,9.6c2.4,2.6,5.4,4,8.9,4
			c1.4,0,2.7-0.2,4-0.5c1.3-0.3,2.4-0.8,3.2-1.3c0.9-0.5,1.7-1,2.4-1.5c0.7-0.5,1.2-0.9,1.5-1.2l0.5-0.5l3.7,5.1
			c-0.1,0.2-0.4,0.4-0.6,0.7c-0.3,0.3-0.9,0.8-1.9,1.6s-2.1,1.4-3.2,2c-1.1,0.6-2.5,1.1-4.3,1.6c-1.8,0.5-3.6,0.7-5.4,0.7
			c-5.8,0-10.5-1.9-14.2-5.8S1054.2,298.6,1054.2,292.9z"/>
		<path class="st3" d="M1091.5,312.4v-4.5l17.2-24.4c0.5-0.6,0.9-1.3,1.4-1.8c0.5-0.6,0.9-1,1.1-1.2l0.4-0.4v-0.1
			c-0.8,0.1-1.7,0.1-2.9,0.1h-9.3c-0.8,0-1.2,0.4-1.2,1.2v2.3h-6.4v-5.8c0-1.3,0.3-2.2,0.9-2.8c0.6-0.6,1.5-0.9,2.8-0.9h24.9v4.4
			l-17.2,24.5c-0.5,0.6-0.9,1.3-1.4,1.8c-0.5,0.6-0.9,1-1.1,1.2l-0.4,0.4v0.1c0.8-0.1,1.7-0.1,2.9-0.1h10.5c0.8,0,1.2-0.4,1.2-1.2
			v-2.3h6.4v5.8c0,1.3-0.3,2.2-0.9,2.8c-0.6,0.6-1.5,0.9-2.8,0.9H1091.5z"/>
		<path class="st3" d="M1123.7,292.9c0-5.5,1.9-10.1,5.7-13.9c3.8-3.8,8.5-5.6,14.1-5.6c5.6,0,10.3,1.9,14.1,5.6
			c3.8,3.8,5.7,8.4,5.7,13.9c0,5.7-1.9,10.4-5.7,14.3c-3.8,3.9-8.5,5.8-14.1,5.8c-5.6,0-10.3-1.9-14.1-5.8
			C1125.6,303.3,1123.7,298.6,1123.7,292.9z M1131,292.9c0,3.8,1.2,7,3.6,9.6c2.4,2.6,5.4,3.9,8.9,3.9c3.5,0,6.4-1.3,8.9-3.9
			c2.4-2.6,3.6-5.8,3.6-9.6c0-3.6-1.2-6.7-3.6-9.2c-2.4-2.5-5.4-3.8-8.9-3.8c-3.5,0-6.4,1.3-8.9,3.8
			C1132.2,286.2,1131,289.3,1131,292.9z M1140.8,271.5l4.1-7.3h6.6l-5.7,7.3H1140.8z"/>
		<path class="st3" d="M1170,308.7V298l-3.3,1.9v-6.7l3.3-1.9v-10.1c0-0.8-0.4-1.2-1.2-1.2h-2.3v-6h6.9c1.3,0,2.2,0.3,2.8,0.9
			c0.6,0.6,0.9,1.5,0.9,2.8v9.6l5.3-3.1v6.7l-5.3,3.1v11.2c0,0.8,0.4,1.2,1.2,1.2h8.4c0.8,0,1.2-0.4,1.2-1.2v-2.3h6.4v5.8
			c0,1.3-0.3,2.2-0.9,2.8c-0.6,0.6-1.5,0.9-2.8,0.9h-16.9c-1.3,0-2.2-0.3-2.8-0.9C1170.3,310.9,1170,310,1170,308.7z"/>
		<path class="st3" d="M1198.2,312.4v-31.2c0-0.8-0.4-1.2-1.2-1.2h-2.3v-6h6.9c1.3,0,2.2,0.3,2.8,0.9c0.6,0.6,0.9,1.5,0.9,2.8v11.9
			h2.7c1.6,0,2.6-0.4,3.1-1.2l7.7-14.4h7.8l-8.6,15.8c-0.4,0.6-0.7,1.2-1.1,1.7c-0.4,0.5-0.7,0.8-0.9,0.9l-0.4,0.2v0.1
			c0.9,0.2,1.7,1.1,2.5,2.6l4.9,9.8c0.4,0.8,1.3,1.2,2.7,1.2h1v6h-4c-1.5,0-2.6-0.2-3.3-0.5c-0.7-0.4-1.4-1.1-2-2.3l-6.3-12.6
			c-0.3-0.6-0.7-0.9-1.2-1.1c-0.5-0.1-1.2-0.2-2.2-0.2h-2.3v16.7H1198.2z"/>
		<path class="st3" d="M1228.9,312.4v-6h3.8V280h-3.8v-6h14.4v6h-3.8v26.4h3.8v6H1228.9z"/>
	</g>
	<g id="Layer_1_3_">
		<g>
			<path class="st3" d="M883.8,162.2c0.4,0.8,1.2,0.8,1.6,1.2c0.4,0,0.8,0,1.2,0.4c0.4,0.4,1.2,0.4,1.6,0.8c0.8,0,1.2,0.4,1.6,1.2
				l0.4,0.4c0.8,0.4,1.2,0.8,1.6,1.2c0,0.4,0.4,0.4,0.8,0.4c0.8,0.4,1.2,0.8,2,0.8c0.8,0.4,1.2,0.4,2,0.8c0.8,0.4,1.6,1.2,2,1.6
				c1.2,0.8,2,2,2.7,3.1c0.4,0.4,0.4,0.8,0.8,1.2c0.4,0.8,0.8,1.6,1.2,2.7c0,0.4,0.4,0.8,0.4,1.6c0,0.8,0,1.6,0,2.7
				c0,1.2,0,2.4,0,3.5c-0.8,2.7-2,5.1-3.9,7.1c-0.8,0.8-1.6,1.6-2.7,2c-1.2,0.4-2.4,1.2-3.5,1.2c-2.4,0-4.7,0-7.1,0l0,0
				c-1.2-0.4-2.4-0.4-3.5-1.2c-0.4-0.4-1.2-0.4-2-0.8c-2.7-1.6-5.1-3.1-6.7-5.9c-1.2-1.6-2-3.1-2.4-5.1c-0.4-1.2-1.2-2-0.8-3.1
				c0-0.4,0-0.4-0.4-0.8c-0.4-0.4-0.4-1.2-0.4-1.6c0-0.4,0-0.4-0.4-0.4c-0.8,0.4-1.2,0.4-2,0.4c-0.8,0-2,0-2.7,0c1.2,0,2,0,3.1,0
				h0.4v0.4c-0.8,1.2-1.6,2-2.7,3.1c-0.4,0-0.4,0.4-0.8,0c-0.4-0.4-0.8-0.4-1.2-0.8c-0.4-0.4-0.4-0.4-0.4,0c0,0.4-0.4,0.4-0.8,0.4
				c-0.4,0-0.8,0-1.2,0.4c-1.2,0.4-2,0.8-3.1,1.2c-0.4,0-0.4,0-0.8,0.4c-0.8,0.4-1.6,0.4-2.4,0.4c-0.4,0-0.8,0-1.2-0.4
				c-0.4-0.4-0.4-0.4-0.8-0.4c-1.6,0-3.1-0.4-4.7-0.4c-1.6,0-2.7-1.2-3.5-2c-0.8-0.8-1.2-1.2-2.4-1.2c-0.8,0-1.2,0-2,0.4
				c-0.8,0-2,0-2.7,0.4c-0.4,0-0.8,0.4-0.8,0.4c0,1.2-0.4,2-0.4,3.1s0.4,2.4,0.4,3.9c0,0.4,0.4,1.2,1.2,1.2c0.8,0,1.2,0.4,2,0.8
				c0,0,0,0,0.4,0c1.2,0.4,2,0.4,2.7,1.2c0.4,0.4,0.8,0,1.2,0c0.8-0.4,1.2-0.4,2,0c0.8,0.4,1.6,0.4,2,0c0.4,0,0.4-0.4,0.8-0.4
				c0.8,0,1.2-0.4,2-0.8c1.2,0,2,0,2.7,0.4c0.4,0.4,1.2,0.4,2,0c0.4-0.4,0.8-0.4,1.2,0c0.8,0.4,1.6,0.4,2.4,0s1.6-0.4,2.4-0.4
				c0.4,0,0.8,0,1.2-0.4c0.4-0.4,0.4,0,0.8,0c0.4,0.4,1.2,0.4,1.6,0c0.8-0.4,1.6-0.8,2-1.6c0.4-0.4,1.2-0.4,1.6-0.4c0,0,0,0,0,0.4
				c-0.4,0.8-0.8,1.6-1.2,2.4c-0.4,0.4-0.4,0.8-1.2,1.2c-0.4,0-0.8,0.4-0.8,0.4c-0.8,1.2-2,1.6-3.1,2c-0.4,0-0.4,0-0.4,0.4
				c-1.2,1.6-2.4,2-4.3,2.4c-0.8,0-1.6,0.4-2.4,0.8c-0.8,0.4-1.6,0.4-2.4,0.4c-0.4,0-0.4,0-0.8,0.4c-0.8,0.4-1.2,0.4-2,0.4
				c-0.4,0-1.2,0-1.6,0.4c-0.4,0.4-0.4,0.4-0.8,0h-0.4c-0.4,0-0.8,0-0.8,0.4c0,0.4,0,1.2,0.4,1.2c0.8,0.4,1.6,0.8,2.4,0.8
				c2,0.8,3.5,0.8,5.5,1.2c1.2,0.4,2.7,0.4,3.9-0.4c0.4,0,0.4-0.4,0.8,0c1.2,0,2.4-0.4,3.5-0.8c0.4,0,0.4-0.4,0.8-0.4
				c0,0,0.4-0.4,0.4,0v0.4c-0.8,0.4-2,1.2-2.7,1.6c-0.8,0.4-1.6,0.4-2.4,1.2l0,0c-1.2,0-2.4,1.2-3.9,0.8c-0.8,0-1.6,0-2.4,0.4
				c-1.6,0.8-3.5,0.4-5.1,0c-0.8-0.4-1.2-0.8-2-1.2s-1.6-0.8-2.4-1.2c-2.4-1.2-4.3-2.7-5.9-4.7c-1.2-1.6-2.4-2.7-2.7-4.7
				c-0.4-1.2-1.2-2.7-1.2-4.3c0,0,0,0,0-0.4c-0.8-2-0.4-4.3-0.4-6.3V181c0.4-0.8,0.4-2,0.8-2.7c0-0.8,0.4-1.6,0.8-2.4
				c0.8-1.6,1.6-3.5,2.4-4.7s2-2.4,3.1-3.1c1.2-1.2,2.4-2,3.5-2.7c1.6-1.2,3.1-2,4.7-2.7c1.2-0.8,2.7-1.2,3.9-1.6
				c1.2-0.4,2-0.4,3.1-1.2l0,0c1.2,0,2-0.8,2.7-0.8c0.8-0.4,1.6-0.8,2.4-1.2c1.2-0.8,2.4-1.2,3.5-2c1.6-1.2,3.1-2,4.3-3.5
				c0.8-0.8,1.2-1.6,1.6-2.7c0.8-0.8,0.8-2,1.2-3.1c0-0.4,0-0.4,0-0.8c0-0.4,0-0.8,0-1.2c0.8-2,0.8-3.5,0-5.5v-0.4
				c-0.4-2.4-1.2-4.3-2.7-6.7c-1.2-1.6-2.4-3.1-3.9-3.9c-0.8-0.4-1.6-0.8-2.4-1.2c-2-0.8-3.9-0.8-5.9-1.2c-0.4,0-0.4,0-0.8,0
				c-1.2,0.4-2,0.4-3.1,0.8s-2.4,0.8-3.5,1.6c-1.2,0.8-2,1.2-2.7,2.4c-0.8,0.8-2,2-2.4,3.1c-0.4,0.8-0.8,1.6-1.2,2
				c0,0,0,0.4-0.4,0.4c0,0.4-0.4,1.2-0.4,1.6c0,0.4-0.4,0.8-0.4,1.2c0,1.6,0,3.5,0,5.1v0.4c0.8,2,1.2,3.9,2.4,5.5c0,0,0.4,0.4,0,0.4
				c-0.4,0-0.4,0-0.4,0c-1.2-1.2-2-2.4-2.7-3.9c-0.4-1.2-1.2-2-1.2-3.5c0-0.4,0-0.8-0.4-1.2c-0.4-1.6-0.4-2.7,0-4.3
				c0.4-0.8,0.4-1.2,0.4-2c0-0.4,0-0.4,0-0.8c0.8-2.7,2.4-5.1,4.7-7.1c-0.4-0.8,0-2-0.4-2.7c-1.2-2-2.4-4.3-3.9-5.9
				c-1.6-1.6-3.5-3.1-5.5-4.3c-0.8-0.4-1.6-0.4-2.4-0.8c0,0-0.4,0-0.8,0c-0.8,0-1.2,0-2-0.4c0-0.4-0.4-0.4-0.8-0.4
				c-1.6,0-3.1-0.4-4.7,0.4c-0.4,0-1.2,0.4-1.6,0.4c-0.4,0-0.8,0.4-0.8,0.4c0,0.4-0.4,0.8-0.8,1.6c-0.4,0.4-2,0.8-2.7,0.4
				c-0.4,0-0.4-0.4-0.4-0.8c0-0.4-0.8-0.4-0.8-0.8s0.4-0.4,0.8-0.8c0.4-0.8,1.2-1.2,2-1.2c1.2-0.4,2.4-0.4,3.5-1.2h0.4
				c2,0,4.3,0,6.3,0c0.8,0,1.2,0.4,2,0.8c1.6,0,2.7,1.2,3.9,1.6c2,0.8,3.5,1.6,4.7,3.1c1.2,1.2,2,2.7,3.1,3.9c0.8,0.8,1.2,2,1.6,2.7
				l0.4,0.4c0.4,0.8,0.8,1.2,1.6,0.8c0.8-0.4,2-1.2,3.1-1.2c0.8,0,1.2-0.4,2-0.8c2,0,4.3,0,6.3,0c0.4,0,0.4,0,0.8,0.4
				c0.8,0.4,1.6,0.4,2.7,0.4c0.4,0,0.4-0.4,0.8-0.4c0.4-1.2,0.8-2.4,1.2-3.5c0,0,0-0.4,0-0.8c0.8-3.1,0.8-6.7,0.8-9.8
				c0-0.4,0-0.4-0.4-0.8c0-0.4-0.4-0.8-0.4-0.8c0-1.2-0.4-2.4-0.8-3.5c-0.4-1.2-0.8-2.4-1.6-3.5c-0.4-0.8-1.2-1.6-1.6-2.7
				c-0.8-0.4-0.8-0.8-1.6-0.4c-0.8,0-1.2,0-1.6-0.4l-0.4-0.4c0-0.4-0.4-0.8-0.4-0.8c0-1.2,0.8-2,2-2.4h0.4c1.2,1.2,2.4,2.7,3.5,3.9
				c0.8,1.2,1.6,2.7,2.4,4.3c0.4,1.2,1.2,2.4,1.2,3.5s0.8,2,0.8,3.1c0,2,0.4,3.9,0,6.3c0,0.8,0,2,0,2.7c-0.4,1.2-0.8,2.7-1.2,3.9
				c-0.4,0.8-0.8,2-0.8,2.7s0,1.2,0.8,1.6c0.4,0.4,0.8,0.4,1.2,0.8c1.6,1.2,2.7,2.4,3.9,4.3c0.8,1.2,1.6,2.7,2,4.3
				c0,0.4,0,0.4,0.4,0.8c0,0.4,0.4,0.8,0.4,1.2c0,1.6,0,3.1,0.4,4.7c0,0.4,0,0.8,0,1.2c-0.4,2-0.4,3.9-0.4,5.9
				c0,0.4,0.4,0.8,0.8,0.4c0,0,0.4,0,0.4-0.4c1.2-1.2,2.4-2,3.5-2.7c1.2-1.2,2.7-1.6,4.3-2.4c1.2-0.4,2-0.4,3.1-1.2
				c0.4-0.4,0.8,0,1.6,0c1.6,0,3.5-0.4,5.1,0c1.2,0.4,2.4,0.8,3.5,1.6c1.2,0.8,2.4,1.6,3.1,2.4c0.4,0.4,0.8,1.2,1.2,1.6
				c0.8,1.2,0.8,2.4,0.8,3.5c0.4,1.6-0.4,3.1,0,4.7c0,0.4,0,0.4,0,0.8c-0.4,0.8-0.8,1.6-0.8,2.7c-0.4,0.8-0.4,1.6-1.2,2
				c-1.6,1.2-3.1,2.4-4.7,3.5c-0.8,0.4-1.6,0.4-2.4,0c-0.4,0-0.8-0.4-1.2-0.4c-0.4-0.4-0.8-0.4-1.6-0.4c-0.4,0-0.4,0-0.4,0
				c-1.2-0.8-2.4-0.8-3.1-1.2C884.2,162.2,883.8,162.2,883.8,162.2z M868.9,167.7c0-0.4,0-0.8,0-1.2c0-0.8,0-0.8-1.2-0.8h-0.4
				c-1.2,0.8-2.4,0.8-3.9,0.8c-1.2,0-2.7,0-3.9,0.8c-0.4,0.4-0.8,0-1.2-0.4c0-0.4-0.4-0.4-0.8-0.4c-1.6,0.4-3.1,0.4-5.1,0.4
				c-0.4,0-0.8,0-0.8-0.8c0-0.4-0.4-0.8-0.8-0.8c-0.4,0-0.8-0.4-1.2-0.4c-0.8-0.4-2-0.4-2.7,0c-0.8,0.4-2,1.2-2.7,2
				c-0.8,0.8-2,1.2-2.7,2c-0.8,0.8-0.4,2.4,0.4,2.4s1.2,0.4,2,0.4s1.6,0.8,1.6,1.6s0.4,0.8,0.8,0.8c0.4,0,0.8,0,1.2,0
				c0.8,0,1.6,0.4,2,0.4c0.8,0,2,0,2.7-0.4c0,0,0.4,0,0.8,0c0.8,0,1.6,0,2.4,0c0.4,0,0.4,0,0.8,0c0.8,0.4,2,0.4,2.7,0.4h0.4
				c0.4,0.4,0.8,0.4,1.2,0.4c0.4,0,0.8,0,1.2,0.4c0.8,0.8,1.6,0.4,2.4,0.4c0.4,0,0.4,0,0.8,0c1.2,0.4,2.4,0.4,3.1-0.4
				c0.4-0.4,0.8-0.8,0.8-1.6C868.9,171.2,868.9,169.6,868.9,167.7z M866.5,164.5c0.4,0,0.8,0,0.8,0c0.8,0,1.2-0.4,1.2-1.2
				c0-0.4,0-0.8,0-1.2c0-1.6,0-3.1,0-4.3c0.4-1.6,0.4-3.1,0.4-4.7c0-0.4,0-0.8-0.4-0.8c-0.4,0-0.8,0-0.8,0.4
				c-0.4,0.4-0.4,0.8-0.8,0.8c-1.2,1.2-2.4,2-3.5,2.7c-0.8,0.4-1.2,1.2-2,1.6c-2,0.8-3.5,2.4-5.5,3.1c-0.4,0-0.4,0.8-0.4,1.2
				c0,0.4,0.4,0.4,0.4,0.4c0.8,0.4,2,0.4,2.7,0.8c0,0,0,0,0.4,0c0.8,0,1.6,0,2.4,0.4c0.4,0.4,1.2,0.4,2,0.4c0.4,0,0.4,0,0.8,0
				C864.9,164.5,865.7,164.5,866.5,164.5z M882.6,161.8c0-0.4-0.4-0.4-0.4-0.4c-0.8-0.4-1.2-0.4-1.6-1.2c-0.8-0.8-1.6-1.2-2.7-1.2
				c-1.2,0-2.4-0.4-3.5-0.4c-0.4,0-0.8,0-0.8,0.4l0.4,0.4c0.4,0,1.2,0.4,1.6,0.4s0.8,0,1.2,0.4c0,0,0,0,0.4,0c0.8,0,1.6,0.4,2,0
				c0.4,0,0.4,0,0.8,0.4C880.6,161,881.4,161.8,882.6,161.8z"/>
			<path class="st3" d="M904.5,114c0-0.4,0-0.4,0-0.8c-0.8-1.2-1.6-2.4-2-3.5c0-0.4-0.4-0.4-0.8-0.4c-1.6,0-2.7,0-4.3,0
				c-0.4,0-0.4,0-0.8,0.4c-0.8,1.2-1.6,2.4-2.4,3.9c0,0.4,0,0.4,0,0.8c0.8,1.2,1.6,2.7,2.4,3.9c0,0.4,0.4,0.4,0.4,0.4
				c1.6,0,3.1,0,4.3,0c0.4,0,0.4-0.4,0.8-0.8c0,0.8,0,1.2,0,1.6c-0.4-0.4-0.4-0.4-0.8-0.4c-1.2,0-2.7,0-3.9,0c-0.4,0-0.4,0-0.8,0.4
				c-0.8,1.2-1.6,2.4-2,3.5c0,0.4,0,0.4,0,0.8c0.4,0.4,0.4,0.8,0.4,1.2c0.4,0.4,0.4,0.8,0,1.6c-0.4-0.8-0.8-1.2-1.2-2
				c0-0.4-0.4-0.4-0.8-0.4c-1.6,0-2.7,0-4.3,0c-0.4,0-0.4,0-0.8,0.4c-0.8,1.2-1.6,2.4-2.4,3.9c0,0.4,0,0.4,0,0.8
				c0.8,1.2,1.6,2.7,2.4,3.9c0,0.4,0.4,0.4,0.8,0.4c1.6,0,2.7,0,4.3,0c0.4,0,0.4,0,0.8-0.4c0.4-0.8,0.8-1.2,1.2-2
				c0.4,0.4,0.4,0.8,0,1.2l0,0c-0.8,0.8-0.8,1.6,0,2.7c0.8,0.8,1.2,2,1.6,2.7c0,0.4,0.4,0.4,0.8,0.4c1.6,0,2.7,0,4.3,0
				c0.4,0,0.4,0,0.8-0.4c0.4-0.8,0.8-1.2,1.2-2c0.4-0.4,0.4-0.4,1.2-0.4c-0.4,0.8-1.2,2-1.6,2.7c0,0.4,0,0.4,0,0.8
				c0.8,1.2,1.6,2.4,2.4,3.9c0,0.4,0.4,0.4,0.4,0.4c1.6,0,2.7,0,4.3,0c0.4,0,0.4,0,0.4-0.4c0.8-1.2,1.6-2.7,2.4-3.9
				c0-0.4,0-0.4,0-0.8c-0.4-0.4-0.4-0.8-0.8-1.6c0.8-0.4,0.8-0.4,0.8,0.4c0.4,0.8,0.8,1.6,2,1.2c-0.4,0.4-0.4,0.8-1.2,0.8
				c0,0-0.4,0-0.4,0.4c-0.8,1.2-1.6,2.7-2.4,3.9c0,0.4,0,0.4,0,0.8c0.4,0.4,0.4,0.8,0,1.2l0,0c-0.4-1.2-1.2-1.2-2-1.2
				c-1.2,0-2.4,0-3.5,0c-0.4,0-0.4,0-0.4,0.4c-0.8,1.2-1.6,2.4-2,3.5c0,0.4,0,0.4,0,0.8c0.8,1.2,1.2,2.4,2,3.1
				c0.4,0.4,0.4,1.2,1.2,0.8l0,0c-0.4,0-0.8,0.4-0.8,0.4c-0.4,0-0.4-0.4-0.4-0.8c-0.8-1.2-1.6-2.4-2-3.5c-0.8-0.8-1.2-0.8-1.6-0.8
				h-0.4c-0.4,0-0.4-0.4-0.4-0.4c0-0.4,0.4-0.4,0.4-0.4c0.8,0,1.2-0.4,1.6-0.8c0.4-1.2,1.2-2.4,2-3.1c0-0.4,0-0.4,0-0.8
				c-0.8-1.2-1.6-2.4-2-3.5c0-0.4-0.4-0.4-0.8-0.4c-1.6,0-2.7,0-4.3,0c-0.4,0-0.4,0-0.8,0.4c-0.4,0.8-0.8,1.6-1.6,2.4
				c0,0.4-0.4,0.4-0.8,0c-0.4,0,0-0.4,0-0.4c0.4-0.8,1.2-1.6,1.6-2.7c0-0.4,0-0.4,0-0.8c-0.8-1.2-1.6-2.4-2.4-3.9
				c0-0.4-0.4-0.4-0.4-0.4c-1.6,0-3.1,0-4.3,0c-0.4,0-0.4,0-0.4,0.4c-0.8,1.2-1.6,2.7-2.4,3.9c0,0.4,0,0.4,0,0.8
				c0.4,0.8,0.8,1.6,1.2,2.4c-0.4,0-0.8,0-1.2-0.4c-0.4-1.2-1.2-2-2.7-1.6c-1.2,0-2,0-3.1,0c-0.4,0-0.4,0-0.4,0.4
				c-0.4,0.4-0.4,0.8-0.8,1.2c0,0.4-0.4,0.4-0.8,0.4c0.4-0.8,0.8-1.6,1.2-2c0-0.4,0-0.4,0-0.4c-0.8-1.2-1.6-2.7-2.4-3.9
				c0-0.4-0.4-0.4-0.8-0.4c-1.6,0-2.7,0-4.3,0c-0.4,0-0.4,0-0.4-0.4c0-0.4,0.4-0.4,0.4-0.4c1.6,0,2.7,0,4.3,0c0.4,0,0.4,0,0.8-0.4
				c0.8-1.2,1.6-2.7,2.4-3.9c0-0.4,0-0.4,0-0.8c-0.8-1.2-1.6-2.4-2-3.5c0-0.4-0.4-0.4-0.4-0.4c-1.6,0-3.1,0-4.3,0
				c-0.4,0-0.4,0-0.4,0.4c-0.8,1.2-1.2,2.4-2,3.5c-0.4-0.4-0.4-0.8,0-1.2c0.4-0.8,1.2-2,1.6-2.7c0-0.4,0-0.4,0-0.8
				c-0.4-0.4-0.4-0.8-0.4-0.8c-0.4-0.4-0.4-0.4,0-1.2c0.4,0.8,0.8,1.2,1.2,2c0,0.4,0.4,0.4,0.4,0.4c1.6,0,3.1,0,4.3,0
				c0.4,0,0.4,0,0.4-0.4c0.8-1.2,1.6-2.7,2.4-3.9c0-0.4,0-0.4,0-0.4c-0.8-1.2-1.6-2.7-2.4-3.9c0-0.4-0.4-0.4-0.4-0.4
				c-1.6,0-3.1,0-4.7,0c-0.4,0-0.4,0.4-0.4,0.4c0-0.4-0.4-1.2,0-1.6c0,0.4,0.4,0.4,1.2,0.4c1.2,0,2.7,0,3.9,0c0.4,0,0.4,0,0.8-0.4
				c0.8-1.2,1.6-2.7,2.4-3.9v-0.4c-0.8-1.2-1.6-2.7-2.4-3.9c0-0.4-0.4-0.4-0.8-0.4c-1.6,0-2.7,0-4.3,0c-0.4,0-0.8,0-0.8,0.4
				c0,0.4-0.4,0.8-0.8,1.2c-0.4-0.4-0.4-0.8,0-1.2c0.4-0.4,0.4-0.8,0-1.6c-0.4-0.4-0.8-1.2-1.2-2c0.4,0,0.8,0,1.2,0.8
				c-0.4,0-0.4,0.8,0.4,1.2c0.4,0.4,1.2,0,2,0c0.8,0,2,0,2.7,0c0.4,0,0.4,0,0.4-0.4c0.8-1.2,1.6-2.7,2.4-3.9c0,0,0.4-0.4,0-0.4
				c0,0-0.4-0.4,0-0.4c0,0,0.4-0.4,0.4,0s0.4,0.4,0.4,0.4c1.6,0,2.7,0,4.3,0c0.4,0,0.4,0,0.4-0.4s0.4-0.4,0.4-0.8
				c0.8-0.8,1.2-0.8,2-0.8c-0.4,0.8-0.8,1.2-1.2,2c0,0.4,0,0.4,0,0.8c0.8,1.2,1.6,2.4,2.4,3.9c0,0.4,0.4,0.4,0.8,0.4
				c1.6,0,2.7,0,4.3,0c0.4,0,0.4,0,0.8-0.4c0.8-1.2,1.6-2.7,2.4-3.9c0-0.4,0-0.4,0-0.8c-0.8-1.2-1.2-2-2-3.1c0,0-0.4-0.4,0-0.4
				c0.4,0,0.4-0.4,0.8,0c0.4,0.8,1.2,1.6,1.6,2.4c0.4,0.8,0.8,0.8,1.6,0.8c1.2,0,2.4,0,3.9,0c0.4,0,0.4,0,0.8-0.4
				c0.8-1.2,1.6-2.4,2-3.5c0,0,0-0.4,0.4-0.4s0.4,0.4,0,0.8s-0.4,0.8-0.8,1.2c-1.2,0.8-2,1.6-2.4,2.4c0,0.4,0,0.4,0,0.8
				c0.8,1.2,1.6,2.4,2,3.5c0,0.4,0.4,0.4,0.8,0.4c1.2,0,2.7,0,3.9,0c-0.4,0.4-0.8,0.8-1.2,0.8c-0.8,0-2,0-2.7,0
				c-0.4,0-0.4,0-0.4,0.4c-0.8,1.2-1.6,2.7-2.4,3.9v0.4c0.8,1.2,1.6,2.7,2.4,3.9c0,0.4,0.4,0.4,0.8,0.4
				C905.3,113.6,904.9,114,904.5,114L904.5,114z M899.8,108.5c0.8,0,1.6,0,2.4,0c0.4,0,0.4,0,0.4-0.4c0.8-1.2,1.6-2.7,2.4-3.9
				c0-0.4,0-0.4,0-0.8c-0.8-1.2-1.6-2.7-2.4-3.9l-0.4-0.4c-1.6,0-3.1,0-4.3,0c-0.4,0-0.4,0-0.4,0.4c-0.8,1.2-1.6,2.7-2.4,3.9
				c0,0.4,0,0.4,0,0.4c0.8,1.2,1.6,2.7,2.4,3.9c0,0.4,0.4,0.4,0.8,0.4C898.3,108.5,899,108.5,899.8,108.5z M883,128.1
				c0.8,0,1.6,0,2.4,0c0.4,0,0.4,0,0.8-0.4c0.8-1.2,1.6-2.4,2.4-3.9c0-0.4,0-0.4,0-0.8c-0.8-1.2-1.6-2.7-2.4-3.9
				c0-0.4-0.4-0.4-0.4-0.4c-1.6,0-3.1,0-4.3,0c-0.4,0-0.4,0-0.4,0.4c-0.8,1.2-1.6,2.7-2.4,3.9c0,0.4,0,0.4,0,0.8
				c0.8,1.2,1.6,2.4,2.4,3.9c0,0.4,0.4,0.4,0.8,0.4C881.4,128.1,882.2,128.1,883,128.1z M883,118.3c0.8,0,1.6,0,2.4,0
				c0.4,0,0.4,0,0.4-0.4c0.8-1.2,1.6-2.7,2.4-3.9v-0.4c-0.8-1.2-1.6-2.7-2.4-3.9l-0.4-0.4c-1.6,0-3.1,0-4.7,0c-0.4,0-0.4,0-0.4,0.4
				c-0.8,1.2-1.6,2.7-2.4,3.9c0,0.4,0,0.4,0,0.8c0.8,1.2,1.6,2.7,2.4,3.9c0,0.4,0.4,0.4,0.8,0.4C881.8,118.3,882.2,118.3,883,118.3z
				 M891.2,113.6c0.8,0,1.6,0,2.4,0c0.4,0,0.4,0,0.4-0.4c0.8-1.2,1.6-2.7,2.4-3.9c0-0.4,0-0.4,0-0.8c-0.8-1.2-1.6-2.7-2.4-3.9
				c0-0.4-0.4-0.4-0.4-0.4c-1.6,0-3.1,0-4.3,0c-0.4,0-0.4,0-0.4,0.4c-0.8,1.2-1.6,2.4-2.4,3.9c0,0.4,0,0.4,0,0.8
				c0.8,1.2,1.6,2.4,2.4,3.9c0,0.4,0.4,0.4,0.4,0.4C890,113.6,890.4,113.6,891.2,113.6z M883,128.9L883,128.9c-0.8,0-1.6,0-2.4,0
				c-0.4,0-0.4,0-0.4,0.4c-0.8,1.2-1.6,2.4-2.4,3.9c0,0.4,0,0.4,0,0.8c0.8,1.2,1.6,2.7,2.4,3.9c0,0.4,0.4,0.4,0.4,0.4
				c1.6,0,3.1,0,4.3,0c0.4,0,0.4,0,0.4-0.4c0.8-1.2,1.6-2.7,2.4-3.9c0-0.4,0-0.4,0-0.8c-0.8-1.2-1.2-2.4-2-3.5
				c-0.4-0.4-0.4-0.8-1.2-0.8C884.2,128.9,883.8,128.9,883,128.9z M883,99.9L883,99.9c-0.8,0-1.6,0-2.4,0c-0.4,0-0.4,0-0.4,0.4
				c-0.8,1.2-1.6,2.4-2,3.5c0,0.4,0,0.4,0,0.8c0.8,1.2,1.6,2.4,2.4,3.9c0,0.4,0.4,0.4,0.4,0.4c1.6,0,3.1,0,4.3,0
				c0.4,0,0.4,0,0.4-0.4c0.8-1.2,1.6-2.7,2.4-3.9c0-0.4,0-0.4,0-0.8c-0.8-1.2-1.6-2.4-2.4-3.9c0-0.4-0.4-0.4-0.4-0.4
				C884.5,99.9,883.8,99.9,883,99.9z M891.6,114.4L891.6,114.4c-0.8,0-1.6,0-2.4,0c-0.4,0-0.4,0-0.4,0.4c-0.8,1.2-1.6,2.7-2.4,3.9
				v0.4c0.8,1.2,1.6,2.7,2.4,3.9c0,0.4,0.4,0.4,0.4,0.4c1.6,0,3.1,0,4.3,0c0.4,0,0.4,0,0.4-0.4c0.8-1.2,1.6-2.7,2.4-3.9
				c0-0.4,0-0.4,0-0.4c-0.8-1.2-1.6-2.4-2-3.5c0-0.4-0.4-0.4-0.8-0.4C892.8,114.4,892,114.4,891.6,114.4z"/>
			<path class="st3" d="M828.1,199.8c0-0.8,0.8-1.6,1.2-2c0.8-1.2,0.8-2.4,0-3.1c-0.4-0.8-1.2-1.6-1.6-2.4c0-0.4-0.4-0.4-0.4-0.4
				c-1.6,0-3.1,0-4.3,0c-0.4,0-0.4,0-0.4,0.4c-0.8,1.2-1.6,2.7-2.4,3.9c0,0.4,0,0.4,0,0.4c0.8,1.2,1.6,2.7,2.4,3.9
				c0,0.4,0.4,0.4,0.8,0.4c1.2,0,2.4,0,3.9,0c-0.4,0.4-0.8,0.8-1.2,0.8c-0.8,0-1.6,0-2.7,0c-0.4,0-0.4,0-0.4,0.4
				c-0.8,1.2-1.6,2.7-2.4,3.9c0,0.4,0,0.4,0,0.4c0.8,1.2,1.6,2.7,2.4,3.9c0,0.4,0.4,0.4,0.8,0.4c0.8,0,1.6,0,2,0h0.4
				c-0.8,0-1.2,0-1.2,0c-0.8,0-2,0-2.7,0c-0.4,0-0.4,0-0.4-0.4c-0.8-1.2-1.6-2.7-2.4-3.9c0-0.4-0.4-0.4-0.4-0.4c-1.6,0-3.1,0-4.3,0
				c-0.4,0-0.4,0-0.4,0.4c-0.4,0.4-0.4,1.2-0.8,1.6c0,0,0,0.8-0.4,0.4c-0.4-0.4,0-0.4,0-0.8c-0.4-0.4-0.4-0.8,0-1.2
				c0.4-0.4,0-0.8,0-0.8c-0.8-1.2-1.6-2.4-2-3.5c0-0.4-0.4-0.4-0.8-0.4c-1.6,0-3.1,0-4.3,0c-0.8,0-0.8,0-1.2-0.8c0,0,0,0,0-0.4
				c0-0.4,0-0.8,0-0.8c0.4,0,0.4,0.4,0.4,0.4c0.4,0.4,0.4,0.8,1.2,0.4c1.2,0,2.7,0,3.9,0c0.4,0,0.4,0,0.8-0.4
				c0.8-1.2,1.6-2.7,2.4-3.9c0-0.4,0-0.4,0-0.8c-0.8-0.4-1.2-0.8-1.6-1.6c-0.4-0.4-0.4-0.8,0-1.2c0.4,0.8,1.2,1.6,1.6,2.7
				c0,0.4,0.4,0.4,0.8,0.4c1.6,0,2.7,0,4.3,0c0.4,0,0.4,0,0.4-0.4c0.8-1.2,1.6-2.4,2-3.5c0-0.4,0.4-0.4,0-0.8
				c-0.4-1.6-1.2-2.7-1.6-3.9c0-0.4-0.4-0.4-0.8-0.4c-1.2,0-2.7,0-3.9,0c-0.4,0-0.4,0-0.4-0.4s0.4-0.4,0.4-0.4c1.2,0,2.7,0,3.9,0
				c0.4,0,0.4,0,0.4-0.4c0.8-1.2,1.6-2.7,2.4-3.9c0-0.4,0-0.4,0-0.8c-0.8-1.2-1.6-2.7-2.4-3.9c0-0.4-0.4-0.4-0.4-0.4
				c-1.6,0-3.1,0-4.7,0c-0.4,0-0.4,0-0.4,0.4c-0.8,1.2-1.6,2.7-2.4,3.9c0,0,0,0.4-0.4,0.4c-0.4,0-0.4-0.4,0-0.4
				c0.8-1.2,1.6-2.7,2.4-3.9c0-0.4,0-0.4,0-0.8c-0.4-0.4-0.4-0.8,0-1.2c0.4,1.2,0.8,1.2,1.6,1.2c1.2,0,2.4,0,3.5,0
				c0.4,0,0.4,0,0.4-0.4c0.8-1.2,1.6-2.7,2.4-3.9c0.4-0.4,0-0.8,0-0.8c-0.4-0.8-1.2-2-1.6-2.7c0,0-0.4-0.4,0-0.4
				c0-0.4,0.4-0.4,0.4,0c0.8,1.2,1.2,2,2,3.1c0.4,0.4,0.4,0.4,0.8,0.4c1.6,0,2.7,0,4.3,0c0.4,0,0.4,0,0.8-0.4c0.8-1.2,1.2-2.4,2-3.5
				c0-0.4,0.4-0.4,0-0.8c-0.8-1.2-1.6-2.4-2-3.5c-0.4-0.4-0.4-0.4-0.8-0.4c-1.6,0-2.7,0-4.3,0c0-0.4,0.4-0.8,0.8-0.8
				c1.2,0,2.4,0,3.5,0c0.4,0,0.4,0,0.8-0.4c0.8-1.2,1.6-2.4,2.4-3.9c0-0.4,0.4-0.4,0-0.8c-0.8-1.2-1.6-2.7-2.4-3.9
				c0-0.4-0.4-0.4-0.4-0.4c-0.8,0-1.2,0-2,0c-0.8,0.4-0.8,0-0.8-0.4s0,0,0.4,0c0.8,0,1.6,0,2.4,0c0.4,0,0.4,0,0.4-0.4
				c0.8-1.2,1.6-2.7,2.4-3.9c0-0.4,0-0.4,0-0.8c-0.8-1.2-1.6-2.4-2.4-3.9c0-0.4-0.4-0.4-0.8-0.4c-1.2,0-2.7,0-3.9,0
				c-0.4,0-0.8,0-0.8-0.8c1.6,0,3.1,0,4.7,0c0.4,0,0.4,0,0.8-0.4c0.8-1.2,1.6-2.4,2.4-3.9c0-0.4,0-0.4,0-0.8c-0.8-0.8-1.6-2-2.4-3.1
				c0-0.4-0.4-0.4-0.8-0.4c-1.6,0-2.7,0-4.3,0c-0.4,0-0.4,0-0.4,0.4c-0.8,1.2-1.2,2.4-2,3.1c0,0,0,0.4-0.4,0.4c-0.4,0-0.4-0.4,0-0.8
				c0.8-1.2,1.2-2,2-3.1c0.4-0.4,0.4-0.8,0-1.2c-1.2-0.8-2-2-2.4-3.5c-0.4,0-0.4-0.4-0.8-0.4c-0.8,0-2,0-2.7,0c-0.8,0-1.2,0-1.6-0.8
				h0.4c1.2,0,2.4,0,3.5,0c0.4,0,0.8,0,0.8-0.4c0.4-0.8,0.8-2,2-2.4c0,0,0,0,0.4,0l0,0c-0.4,0.8-0.8,2-1.6,2.7c0,0.4-0.4,0.4,0,0.8
				c0.8,1.6,1.6,2.7,2.4,3.9c0,0.4,0.4,0.4,0.8,0.4c1.6,0,2.7,0,4.3,0c0.4,0,0.4,0,0.8-0.4c0.4-1.2,0.8-2.4,1.6-3.9
				c0-0.4,0-0.4,0-0.8c-0.4-1.2-1.2-2.4-2-3.5c0-0.4-0.4-0.4-0.8-0.4c-1.2,0-2.7,0-3.9,0h-0.4c0-0.4,0-0.8,0.4-0.4c0.8,0,2,0,2.7,0
				c1.2,0,2-0.4,2.4-1.2c0-0.4,0-0.8,0.8-0.8c0.4,0,0.4,0,0.4,0.4c-0.4,0-0.8,0.8-1.2,1.2c0,0.4,0,0.4,0,0.8
				c0.8,1.2,1.6,2.7,2.4,3.9c0,0.4,0.4,0.4,0.4,0.4c1.6,0,2.7,0,4.3,0c0.4,0,0.4,0,0.8-0.4c0.8-1.2,1.6-2.4,2-3.5c0,0,0-0.4,0.4-0.4
				c0.4,0,0.4,0.4,0,0.4c-0.4,1.2-1.2,2.7-2,3.9v0.4c0,0.4,0.4,0.4,0.4,0.8c0.4,0.4,0.4,0.8,0,1.2c0-0.4-0.4-0.8-0.8-1.6l-0.4-0.4
				c-1.6,0-3.1,0-4.3,0c-0.4,0-0.4,0-0.4,0.4c-0.8,1.2-1.6,2.7-2.4,3.9c0,0.4,0,0.4,0,0.8c0.8,1.2,1.6,2.4,2.4,3.9
				c0,0.4,0.4,0.4,0.8,0.4c1.2,0,2.4,0,3.5,0c0.4,0,0.4,0,0.4,0.4c0,0.4,0,0.4-0.4,0.4c-1.2,0-2.7,0-3.9,0c-0.4,0-0.4,0-0.4,0.4
				c-0.8,1.2-1.6,2.7-2.4,3.9c0,0.4,0,0.4,0,0.4c0.8,1.2,1.6,2.7,2.4,3.9c0,0.4,0.4,0.4,0.4,0.4c1.6,0,3.1,0,4.7,0
				c0.4,0,0.4-0.4,0.8-0.8c0.4,0.4,0.4,0.4,0,0.8v0.4c0.8,1.2,1.6,2.7,2.4,3.9c0,0,0,0.4,0.4,0.4c0.4,0,0.8,0.4,0.8,0.8l0,0
				c-0.8,0-1.2,0.4-1.6,0.8c-0.8,0.8-1.6,2-2.4,3.1c0,0.4,0,0.4,0,0.8c0.8,1.2,1.6,2.4,2.4,3.9c0,0.4,0.4,0.4,0.8,0.4
				c0.4,0,0.4,0,0.8,0c0,0.4-0.4,0.8-0.8,0.8c-0.4,0-0.4,0-0.4,0.4c0,0.4-0.4,0.8-0.4,1.2c-0.4,0.8-0.8,0.8-1.6,1.2l0,0
				c0.4-0.8,0.8-1.6,1.6-2.4c0-0.4,0.4-0.4,0-0.8c-0.8-1.2-1.6-2.4-2-3.5c0-0.4-0.4-0.4-0.8-0.4c-1.6,0-3.1,0-4.3,0
				c-0.4,0-0.4,0-0.4,0.4c-0.8,1.2-1.6,2.4-2.4,3.9c0,0.4,0,0.4,0,0.8c0.8,1.2,1.6,2.4,2,3.5c0,0.4,0.4,0.4,0.8,0.4
				c1.6,0,2.7,0,4.3,0c0,0.4-0.4,0.8-1.2,0.8c-1.2,0-2.4,0-3.5,0c-0.4,0-0.4,0-0.4,0.4c-0.8,1.2-1.6,2.7-2.4,3.9c0,0.4,0,0.4,0,0.8
				c0.8,1.2,1.6,2.7,2.4,3.9c0,0.4,0,0.4,0,0.8c-0.4,1.6-1.6,3.1-2.4,4.3c0,0.4,0,0.4,0,0.8c0-0.8,0-0.4,0.4,0
				c0.4,0.4,0.8,1.2,0.4,2c-0.4-0.8-0.8-1.2-0.8-2c-0.4-1.2-1.2-1.6-2.4-1.6c-1.2,0-2.4,0-3.5,0c-0.4,0-0.4,0-0.4,0.4
				c-0.8,1.2-1.6,2.7-2.4,3.9c0,0.4,0,0.4,0,0.8c0.8,1.2,1.6,2.7,2.4,3.9c0,0.4,0.4,0.4,0.8,0.4c1.6,0,2.7,0,4.3,0
				c0.4,0,0.4,0,0.8-0.4c0.8-1.2,1.2-2,2-3.1c0,1.2-0.4,2.4-1.2,3.1c-0.4,0.4-0.4,0.8,0,1.2c0.8,1.2,1.2,2.4,2,3.1
				c0.4,0.4,0.4,0.8,1.2,0.8c0,0,0.4,0,0.8,0c-0.4,0.4-0.4,0.8-1.2,0.8c-0.4,0-0.4,0-0.4,0.4c-0.4,0.8-0.8,1.6-1.2,2
				C828.9,199.4,828.5,199.8,828.1,199.8L828.1,199.8z M833.2,157.1c0.8,0,1.6,0,2.4,0c0.4,0,0.4,0,0.4-0.4c0.8-1.2,1.6-2.7,2.4-3.9
				v-0.4c-0.8-1.2-1.6-2.7-2.4-3.9c0-0.4-0.4-0.4-0.4-0.4c-1.6,0-3.1,0-4.3,0c-0.4,0-0.4,0-0.4,0.4c-0.8,1.2-1.6,2.7-2.4,3.9
				c0,0.4,0,0.4,0,0.4c0.8,1.2,1.6,2.7,2.4,3.9c0,0.4,0.4,0.4,0.4,0.4C831.6,157.1,832.4,157.1,833.2,157.1z M825,181.4
				c0.8,0,1.6,0,2,0c0.4,0,0.4,0,0.8-0.4c0.8-1.2,1.6-2.7,2.4-3.9c0-0.4,0-0.4,0-0.8c-0.8-1.2-1.6-2.7-2.4-3.9
				c0-0.4-0.4-0.4-0.4-0.4c-1.6,0-3.1,0-4.3,0c-0.4,0-0.4,0-0.4,0.4c-0.8,1.2-1.6,2.7-2.4,3.9v0.4c0.8,1.2,1.6,2.7,2.4,3.9
				c0,0.4,0.4,0.4,0.8,0.4C823.4,181.4,824.2,181.4,825,181.4z M816.7,196.7c-0.8,0-1.6,0-2.4,0c-0.4,0-0.4,0-0.4,0.4
				c-0.8,1.2-1.6,2.7-2.4,3.9v0.4c0.8,1.2,1.6,2.7,2.4,3.9c0,0.4,0.4,0.4,0.4,0.4c1.6,0,3.1,0,4.3,0c0.4,0,0.4,0,0.4-0.4
				c0.8-1.2,1.6-2.7,2.4-3.9c0-0.4,0-0.4,0-0.8c-0.8-1.2-1.6-2.4-2-3.5c0-0.4-0.4-0.4-0.8-0.4C817.9,196.7,817.1,196.7,816.7,196.7z
				"/>
			<path class="st3" d="M851.2,130.1c0.8,0,1.6,0,2.4,0.4l0.4,0.4c0,0,0,0,0.4,0.4c1.2,0.4,2,1.6,2.4,2.7c0.4,1.2,0.4,2,0.4,3.1
				c0,2-0.8,3.5-2.7,4.7c-2,1.6-3.9,1.6-6.3,0.8c-1.6-0.4-2.7-1.6-3.5-3.1c-0.4-0.8-0.4-2-0.8-2.7c0-0.4,0-0.8,0-1.2
				c0-0.4,0-0.4,0-0.8c0-1.2,0.8-2.4,1.6-3.1C847.3,130.8,849.3,129.7,851.2,130.1z M848.5,134.8c0,2,2,3.9,3.5,3.5
				c2,0,3.5-1.6,3.5-3.5s-2-3.9-3.9-3.9C850.4,131.2,848.5,133.2,848.5,134.8z"/>
			<path class="st3" d="M835.9,108.5c0.4-1.2,0.8-2,1.6-3.1c0.8-1.2,0.8-2,0-2.7c-0.4-0.8-0.8-1.6-1.6-2.4c0-0.4-0.4-0.4-0.8-0.4
				s-1.2,0-1.6,0c0.4-0.8,0.4-0.8,1.2-0.8c0.4,0,0.8,0,1.2-0.8c0.8-1.2,1.6-2.4,2-3.5c0.4-0.4,0.4-0.4,0.8-0.4c0.4,0,1.2,0,1.6,0
				c1.2,0,2.7,0,3.9,0c0.4,0,0.4,0.4,0.4,0.4c0.8,1.2,1.2,2.4,2,3.5c0.4,0.4,0.4,0.8,0.8,0.4c1.2,0,2.4,0,3.1,0c1.2,0,2,0.4,2.4,1.6
				c0.8,0.8,1.2,2,1.6,3.1c0.4,0.4,0.4,0.4,0.8,0.4h0.4c0.4,0,0.4,0.4,0.4,0.4c0,0.4-0.4,0-0.4,0c-0.8,0-1.2,0.4-1.6,0.8
				c-0.4,1.2-1.2,2-2,3.1c0,0.4,0,0.4,0,0.8c0.8,1.2,1.2,2,2,3.1c0.4,0.4,0.4,0.8,0,1.2c-0.4-0.8-0.8-1.2-1.2-2
				c-0.4-0.4-0.4-0.8-0.8-1.2c-0.4-0.8-0.8-0.8-1.6-0.8c-1.2,0-2.4,0-3.9,0c-0.4,0-0.4,0-0.8,0.4c-0.4,0.8-1.2,1.6-1.6,2.7
				c0,0,0,0.4-0.4,0.4s-0.4-0.4,0-0.8c0.4-0.8,1.2-2,1.6-2.7c0-0.4,0-0.4,0-0.8c-0.8-1.2-1.6-2.4-2.4-3.9c0-0.4-0.4-0.4-0.8-0.4
				c-1.6,0-2.7,0-4.3,0c-0.4,0-0.4,0-0.4,0.4c0.4,1.2,0,2.4-0.8,3.5C836.7,108.5,836.3,108.5,835.9,108.5z M849.7,99.5L849.7,99.5
				c-0.8,0-1.6,0-2,0c-0.4,0-0.4,0-0.8,0.4c-0.8,1.2-1.6,2.4-2.4,3.9c0,0.4,0,0.4,0,0.8c0.8,1.2,1.6,2.7,2.4,3.9
				c0,0.4,0.4,0.4,0.8,0.4c1.6,0,2.7,0,4.3,0c0.4,0,0.4,0,0.8-0.4c0.8-1.2,1.6-2.7,2.4-3.9c0-0.4,0-0.4,0-0.8
				c-0.8-1.2-1.6-2.4-2.4-3.9c0-0.4-0.4-0.4-0.8-0.4C851.2,99.5,850.4,99.5,849.7,99.5z M841.4,94.8c-0.8,0-1.6,0-2.4,0
				c-0.4,0-0.4,0-0.4,0.4c-0.8,1.2-1.6,2.4-2.4,3.5c0,0.4,0,0.4,0,0.8c0.8,1.2,1.6,2.7,2.4,3.9c0,0.4,0.4,0.4,0.4,0.4
				c1.6,0,2.7,0,4.3,0c0.4,0,0.4,0,0.4-0.4c0.8-1.2,1.6-2.7,2.4-3.9c0-0.4,0-0.4,0-0.4c-0.8-1.2-1.6-2.4-2.4-3.9
				c0-0.4-0.4-0.4-0.8-0.4C843,94.8,842.2,94.8,841.4,94.8z"/>
			<path class="st3" d="M861.4,144.2c0.4,0.4,0.8,0.8,1.2,1.2c0.4,0.8,0.4,1.2,0.4,2c-0.4,0.8-0.8,1.2-1.2,2c-1.2,1.2-2.4,2-3.5,2.7
				c-1.2,0.4-2.4,1.2-3.9,1.2c-0.8,0-2,0.4-2.7,0.4c0,0,0,0-0.4,0c0.4-0.4,0.8-0.4,1.2-0.8c0.8,0,1.2-0.4,2-0.8
				c0.4-0.4,1.2-0.4,1.6-0.4c1.6-0.4,2.7-1.2,3.5-2c1.6-1.2,2-2.7,2-4.3C861.4,144.9,861.4,144.6,861.4,144.2z"/>
			<path class="st3" d="M854.8,208.4c0.4,1.6,1.6,2,2.7,2c0.8,0,2,0,2.7,0c0.4,0,0.4,0,0.4-0.4c0.8-1.2,1.6-2.4,2.4-3.9
				c0-0.4,0-0.4,0-0.8c-0.4-0.4-0.4-1.2-0.8-1.6c0,0-0.4-0.4,0-0.4c0,0,0.4,0,0.8,0c0.4,0.4,0.8,1.2,0.8,1.6c0,0.4,0.4,0.4,0.4,0.4
				c1.6,0,3.1,0,4.3,0c0.4,0,0.4,0,0.4-0.4c0.4-0.4,0.8-1.2,0.8-1.6c0,0,0-0.4,0.4-0.4h0.4c0.4,0,0,0.4,0,0.4
				c-0.4,0.8-0.8,1.2-1.2,2c0,0.4,0,0.4,0,0.4s0.4,0.4,0,0.8c0,0-0.4,0.4-0.4,0c0-0.4-0.4-0.4-0.8-0.4c-1.6,0-2.7,0-4.3,0
				c-0.4,0-0.4,0-0.8,0.4c-0.8,1.2-1.6,2.7-2.4,3.9c0,0.4-0.4,0.4-0.4,0.4c-2,0-3.5,0-5.5,0c-0.4,0-0.4,0-0.4-0.4
				c0-0.4-0.4-0.8-0.4-0.8C854,209.2,854,208.8,854.8,208.4z"/>
			<path class="st3" d="M821.4,125L821.4,125L821.4,125L821.4,125L821.4,125z"/>
			<path class="st3" d="M836.7,165.3L836.7,165.3L836.7,165.3L836.7,165.3L836.7,165.3z"/>
			<path class="st3" d="M828.1,199.8L828.1,199.8L828.1,199.8L828.1,199.8L828.1,199.8z"/>
			<path class="st3" d="M852,134c0.8,0,1.6,0.8,1.6,1.6c0,0.8-0.8,1.6-1.6,1.6s-1.6-0.8-1.6-1.6C850.4,134.8,851.2,134,852,134z"/>
		</g>
	</g>
</g>
</svg>
